SplineFontDB: 3.0
FontName: EuphoriaScript-Regular
FullName: Euphoria Script
FamilyName: Euphoria Script
Weight: Book
Copyright: Copyright (c) 2012 Sabrina Mariela Lopez (typesenses@live.com.ar), with Reserved Font Name "Euphoria Script"
Version: 1.002
ItalicAngle: 0
UnderlinePosition: -63
UnderlineWidth: 62
Ascent: 1000
Descent: 250
sfntRevision: 0x00010083
LayerCount: 2
Layer: 0 1 "Back"  1
Layer: 1 1 "Fore"  0
XUID: [1021 571 1513124025 1485641]
FSType: 0
OS2Version: 2
OS2_WeightWidthSlopeOnly: 0
OS2_UseTypoMetrics: 1
CreationTime: 1328515553
ModificationTime: 1328537274
PfmFamily: 17
TTFWeight: 400
TTFWidth: 5
LineGap: 0
VLineGap: 0
Panose: 2 0 0 0 0 0 0 0 0 0
OS2TypoAscent: 13
OS2TypoAOffset: 1
OS2TypoDescent: -192
OS2TypoDOffset: 1
OS2TypoLinegap: 0
OS2WinAscent: 1
OS2WinAOffset: 1
OS2WinDescent: 0
OS2WinDOffset: 1
HheadAscent: 1
HheadAOffset: 1
HheadDescent: 0
HheadDOffset: 1
OS2SubXSize: 875
OS2SubYSize: 812
OS2SubXOff: 0
OS2SubYOff: 175
OS2SupXSize: 875
OS2SupYSize: 812
OS2SupXOff: 0
OS2SupYOff: 596
OS2StrikeYSize: 62
OS2StrikeYPos: 312
OS2Vendor: 'PYRS'
OS2CodePages: 00000001.00000000
OS2UnicodeRanges: 00000023.00000000.00000000.00000000
DEI: 91125
TtTable: prep
PUSHW_1
 511
SCANCTRL
PUSHB_1
 4
SCANTYPE
EndTTInstrs
ShortTable: maxp 16
  1
  0
  219
  147
  5
  64
  2
  2
  0
  1
  1
  0
  64
  0
  2
  1
EndShort
LangName: 1033 "" "" "" "SabrinaMarielaLopez: Euphoria Script: 2012" "" "Version 1.002" "" "Euphoria Script is a trademark of Sabrina Mariela Lopez." "Sabrina Mariela Lopez" "Sabrina Mariela Lopez" "" "www.typesenses.com" "www.typesenses.com" "This Font Software is licensed under the SIL Open Font License, Version 1.1. This license is available with a FAQ at: http://scripts.sil.org/OFL" "http://scripts.sil.org/OFL" 
GaspTable: 1 65535 15 1
Encoding: UnicodeBmp
UnicodeInterp: none
NameList: Adobe Glyph List
DisplaySize: -24
AntiAlias: 1
FitToEm: 1
BeginChars: 65539 219

StartChar: exclam
Encoding: 33 33 4
Width: 236
GlyphClass: 2
Flags: W
LayerCount: 2
Fore
SplineSet
96 109 m 128,-1,1
 120 109 120 109 120 86 c 0,2,3
 120 66 120 66 98 10 c 1,4,-1
 90 -8 l 1,5,6
 73 -8 73 -8 64 21 c 0,7,8
 60 36 60 36 60 50.5 c 128,-1,9
 60 65 60 65 64 80 c 0,10,0
 72 109 72 109 96 109 c 128,-1,1
66 239 m 0,11,12
 66 335 66 335 89 460 c 128,-1,13
 112 585 112 585 150.5 679.5 c 128,-1,14
 189 774 189 774 227 774 c 0,15,16
 243 774 243 774 243 758 c 1,17,18
 203 668 203 668 156.5 469.5 c 128,-1,19
 110 271 110 271 110 193 c 0,20,21
 110 180 110 180 96 180 c 0,22,23
 66 180 66 180 66 239 c 0,11,12
EndSplineSet
EndChar

StartChar: quotedbl
Encoding: 34 34 5
Width: 293
GlyphClass: 2
Flags: W
LayerCount: 2
Fore
SplineSet
160 600 m 0,0,1
 141 553 141 553 131.5 553 c 128,-1,2
 122 553 122 553 122 572 c 128,-1,3
 122 591 122 591 123 608 c 0,4,5
 127 649 127 649 138 687 c 1,6,7
 143 713 143 713 166 713 c 0,8,9
 178 713 178 713 183 705 c 0,10,11
 194 687 194 687 160 600 c 0,0,1
237.5 553 m 128,-1,13
 228 553 228 553 228 572 c 128,-1,14
 228 591 228 591 229 608 c 0,15,16
 233 649 233 649 244 687 c 1,17,18
 249 713 249 713 272 713 c 0,19,20
 293 713 293 713 293 692 c 0,21,22
 293 667 293 667 270 610 c 128,-1,12
 247 553 247 553 237.5 553 c 128,-1,13
EndSplineSet
EndChar

StartChar: numbersign
Encoding: 35 35 6
Width: 775
GlyphClass: 2
Flags: W
LayerCount: 2
Fore
SplineSet
392 238 m 1,0,1
 284 234 284 234 242 234 c 1,2,3
 211 59 211 59 211 -20 c 0,4,5
 211 -33 211 -33 197 -33 c 0,6,7
 174 -33 174 -33 174 53.5 c 128,-1,8
 174 140 174 140 185 233 c 1,9,10
 83 231 83 231 77 231 c 0,11,12
 47 231 47 231 43 253 c 1,13,14
 42 268 42 268 55 270 c 1,15,16
 60 263 60 263 77 263 c 2,17,-1
 189 263 l 1,18,19
 197 324 197 324 216 406 c 1,20,21
 158 404 158 404 94 404 c 0,22,23
 65 404 65 404 61 424 c 1,24,25
 62 439 62 439 73 442 c 1,26,27
 77 436 77 436 94 436 c 2,28,-1
 224 436 l 1,29,30
 250 533 250 533 281 593 c 128,-1,31
 312 653 312 653 336 653 c 0,32,33
 352 653 352 653 352 637 c 1,34,35
 317 562 317 562 285 437 c 1,36,37
 383 437 383 437 431 438 c 1,38,39
 457 534 457 534 488 593.5 c 128,-1,40
 519 653 519 653 543 653 c 0,41,42
 559 653 559 653 559 637 c 1,43,44
 523 563 523 563 491 438 c 1,45,46
 562 439 562 439 642 439 c 0,47,48
 651 439 651 439 650 428 c 1,49,50
 646 416 646 416 629 415 c 1,51,52
 588 415 588 415 485 412 c 1,53,54
 474 367 474 367 454 265 c 1,55,56
 533 266 533 266 624 266 c 0,57,58
 633 266 633 266 632 255 c 1,59,60
 628 243 628 243 611 242 c 1,61,62
 564 242 564 242 449 239 c 1,63,64
 417 55 417 55 417 -20 c 0,65,66
 417 -33 417 -33 403 -33 c 0,67,68
 380 -33 380 -33 380 56.5 c 128,-1,69
 380 146 380 146 392 238 c 1,0,1
247 263 m 1,70,71
 295 265 295 265 395 265 c 1,72,73
 407 340 407 340 424 410 c 1,74,75
 356 410 356 410 278 407 c 1,76,77
 271 385 271 385 247 263 c 1,70,71
EndSplineSet
EndChar

StartChar: dollar
Encoding: 36 36 7
Width: 479
GlyphClass: 2
Flags: W
LayerCount: 2
Fore
SplineSet
29 48 m 0,0,1
 29 -14 29 -14 109 -14 c 0,2,3
 149 -14 149 -14 180 -4 c 1,4,5
 197 97 197 97 238 332 c 1,6,7
 230 339 230 339 209.5 356 c 128,-1,8
 189 373 189 373 180 382 c 128,-1,9
 171 391 171 391 158 406 c 0,10,11
 135 434 135 434 135 470 c 0,12,13
 135 529 135 529 183 582 c 128,-1,14
 231 635 231 635 294 650 c 1,15,16
 297 672 297 672 301.5 697.5 c 128,-1,17
 306 723 306 723 307.5 731 c 128,-1,18
 309 739 309 739 317 739 c 0,19,20
 320 739 320 739 324 737 c 0,21,22
 340 730 340 730 340 711 c 128,-1,23
 340 692 340 692 332 654 c 1,24,25
 352 653 352 653 362 640.5 c 128,-1,26
 372 628 372 628 372 616 c 2,27,-1
 371 604 l 1,28,29
 361 611 361 611 344.5 611 c 128,-1,30
 328 611 328 611 324 610 c 1,31,32
 293 441 293 441 275 352 c 1,33,34
 305 326 305 326 322 308.5 c 128,-1,35
 339 291 339 291 355.5 258 c 128,-1,36
 372 225 372 225 372 190 c 0,37,38
 372 119 372 119 327.5 58.5 c 128,-1,39
 283 -2 283 -2 204 -26 c 1,40,41
 190 -93 190 -93 187 -117 c 0,42,43
 185 -126 185 -126 180 -126 c 0,44,45
 177 -126 177 -126 175 -125 c 0,46,47
 164 -120 164 -120 164 -108 c 128,-1,48
 164 -96 164 -96 166 -88 c 0,49,50
 172 -52 172 -52 174 -33 c 1,51,52
 134 -39 134 -39 109 -39 c 0,53,54
 11 -39 11 -39 -9 27 c 0,55,56
 -14 43 -14 43 -14 59 c 0,57,58
 -14 99 -14 99 16 142 c 0,59,60
 64 209 64 209 142 215 c 2,61,-1
 156 216 l 2,62,63
 169 216 169 216 177 208 c 128,-1,64
 185 200 185 200 188 185 c 1,65,66
 117 185 117 185 65 126 c 0,67,68
 29 85 29 85 29 48 c 0,0,1
284 81.5 m 128,-1,70
 310 129 310 129 310 191.5 c 128,-1,71
 310 254 310 254 266 303 c 1,72,-1
 210 9 l 1,73,69
 258 34 258 34 284 81.5 c 128,-1,70
223 546 m 128,-1,75
 198 511 198 511 198 468.5 c 128,-1,76
 198 426 198 426 247 379 c 1,77,78
 267 503 267 503 284 598 c 1,79,74
 248 581 248 581 223 546 c 128,-1,75
EndSplineSet
EndChar

StartChar: percent
Encoding: 37 37 8
Width: 721
GlyphClass: 2
Flags: W
LayerCount: 2
Fore
SplineSet
160 -89 m 0,0,1
 149 -89 149 -89 149 -73 c 256,2,3
 149 -57 149 -57 173.5 -7 c 128,-1,4
 198 43 198 43 340.5 356.5 c 128,-1,5
 483 670 483 670 498 702 c 1,6,7
 510 724 510 724 524.5 724 c 128,-1,8
 539 724 539 724 544 712 c 0,9,10
 553 688 553 688 524 627 c 0,11,12
 511 601 511 601 430 442 c 0,13,14
 237 59 237 59 176 -73 c 0,15,16
 168 -89 168 -89 160 -89 c 0,0,1
240 635 m 1,17,18
 181 635 181 635 143 552 c 128,-1,19
 105 469 105 469 105 381 c 128,-1,20
 105 293 105 293 150 293 c 0,21,22
 198 293 198 293 231.5 364.5 c 128,-1,23
 265 436 265 436 265 512 c 128,-1,24
 265 588 265 588 223 588 c 1,25,26
 223 596 223 596 232.5 604.5 c 128,-1,27
 242 613 242 613 255 613 c 0,28,29
 302 613 302 613 302 529 c 128,-1,30
 302 445 302 445 264 366 c 1,31,32
 216 270 216 270 146.5 270 c 128,-1,33
 77 270 77 270 60 353 c 0,34,35
 55 376 55 376 55 401 c 0,36,37
 55 462 55 462 85 532 c 0,38,39
 126 627 126 627 190 649 c 0,40,41
 206 655 206 655 219 655 c 128,-1,42
 232 655 232 655 236.5 650 c 128,-1,43
 241 645 241 645 240 635 c 1,17,18
573 342 m 1,44,45
 514 342 514 342 476 259 c 128,-1,46
 438 176 438 176 438 88 c 128,-1,47
 438 0 438 0 482 0 c 0,48,49
 531 0 531 0 564.5 72 c 128,-1,50
 598 144 598 144 598 219.5 c 128,-1,51
 598 295 598 295 555 295 c 1,52,53
 555 304 555 304 565 312 c 128,-1,54
 575 320 575 320 588 320 c 0,55,56
 635 320 635 320 635 236 c 128,-1,57
 635 152 635 152 591 65 c 128,-1,58
 547 -22 547 -22 478 -22.5 c 128,-1,59
 409 -23 409 -23 393 60 c 0,60,61
 388 83 388 83 388 107 c 0,62,63
 388 169 388 169 418 239 c 0,64,65
 458 333 458 333 522 356 c 0,66,67
 538 362 538 362 551 362 c 128,-1,68
 564 362 564 362 569 357 c 128,-1,69
 574 352 574 352 573 342 c 1,44,45
EndSplineSet
EndChar

StartChar: ampersand
Encoding: 38 38 9
Width: 721
GlyphClass: 2
Flags: W
LayerCount: 2
Fore
SplineSet
292 627 m 1,0,1
 168 627 168 627 168 477 c 0,2,3
 168 438 168 438 178 392 c 1,4,5
 223 431 223 431 252.5 460.5 c 128,-1,6
 282 490 282 490 314 532 c 0,7,8
 376 614 376 614 376 719 c 1,9,10
 390 716 390 716 399.5 703.5 c 128,-1,11
 409 691 409 691 409 669 c 128,-1,12
 409 647 409 647 402 620 c 128,-1,13
 395 593 395 593 387 573 c 128,-1,14
 379 553 379 553 358.5 525.5 c 128,-1,15
 338 498 338 498 328 485 c 128,-1,16
 318 472 318 472 288 443 c 0,17,18
 216 375 216 375 207 369 c 128,-1,19
 198 363 198 363 196 361 c 128,-1,20
 194 359 194 359 192 357.5 c 128,-1,21
 190 356 190 356 188 354 c 1,22,23
 230 201 230 201 334 82 c 1,24,25
 383 139 383 139 402 218 c 0,26,27
 414 264 414 264 414 297 c 128,-1,28
 414 330 414 330 408 353 c 0,29,30
 394 409 394 409 354 409 c 1,31,32
 360 430 360 430 388 430 c 0,33,34
 427 430 427 430 440 366 c 0,35,36
 445 343 445 343 445 306.5 c 128,-1,37
 445 270 445 270 431 214 c 0,38,39
 408 124 408 124 352 61 c 1,40,41
 455 -45 455 -45 556 -45 c 0,42,43
 617 -45 617 -45 636 -7 c 0,44,45
 646 14 646 14 635 20 c 0,46,47
 634 21 634 21 632 21 c 1,48,49
 632 27 632 27 638 34 c 0,50,51
 647 45 647 45 662 45 c 0,52,53
 685 45 685 45 685 14 c 128,-1,54
 685 -17 685 -17 645 -45 c 0,55,56
 604 -73 604 -73 541 -73 c 0,57,58
 427 -73 427 -73 315 27 c 1,59,60
 243 -28 243 -28 160.5 -28 c 128,-1,61
 78 -28 78 -28 24.5 10 c 128,-1,62
 -29 48 -29 48 -29 113 c 128,-1,63
 -29 178 -29 178 8 229 c 128,-1,64
 45 280 45 280 118 343 c 1,65,66
 98 411 98 411 98 464.5 c 128,-1,67
 98 518 98 518 113 560 c 128,-1,68
 128 602 128 602 167 627 c 128,-1,69
 206 652 206 652 265 652 c 0,70,71
 279 652 279 652 283.5 644 c 128,-1,72
 288 636 288 636 292 627 c 1,0,1
154 -1 m 0,73,74
 233 -1 233 -1 295 45 c 1,75,76
 188 152 188 152 132 303 c 1,77,78
 22 202 22 202 22 110 c 0,79,80
 22 58 22 58 61 28.5 c 128,-1,81
 100 -1 100 -1 154 -1 c 0,73,74
EndSplineSet
EndChar

StartChar: quotesingle
Encoding: 39 39 10
Width: 265
GlyphClass: 2
Flags: W
LayerCount: 2
Fore
SplineSet
201 651.5 m 128,-1,1
 211 685 211 685 211 719 c 128,-1,2
 211 753 211 753 238 753 c 128,-1,3
 265 753 265 753 265 717 c 0,4,5
 265 662 265 662 227 624 c 1,6,7
 208 607 208 607 196 606 c 1,8,9
 176 606 176 606 174 615 c 1,10,-1
 174 618 l 1,11,0
 191 618 191 618 201 651.5 c 128,-1,1
EndSplineSet
EndChar

StartChar: parenleft
Encoding: 40 40 11
Width: 276
GlyphClass: 2
Flags: W
LayerCount: 2
Fore
SplineSet
281 775 m 1,0,1
 291 775 291 775 291 766 c 128,-1,2
 291 757 291 757 285 757 c 0,3,4
 228 748 228 748 174 630.5 c 128,-1,5
 120 513 120 513 95 383 c 128,-1,6
 70 253 70 253 70 142 c 0,7,8
 70 -28 70 -28 125 -63 c 0,9,10
 129 -66 129 -66 130 -71 c 0,11,12
 132 -79 132 -79 124 -79 c 0,13,14
 122 -79 122 -79 118 -77 c 0,15,16
 58 -44 58 -44 34 52 c 0,17,18
 18 114 18 114 18 169 c 0,19,20
 18 320 18 320 71 496 c 0,21,22
 105 609 105 609 162.5 688 c 128,-1,23
 220 767 220 767 281 775 c 1,0,1
EndSplineSet
EndChar

StartChar: parenright
Encoding: 41 41 12
Width: 297
GlyphClass: 2
Flags: W
LayerCount: 2
Fore
SplineSet
5 -83 m 1,0,1
 -4 -83 -4 -83 -4 -74 c 128,-1,2
 -4 -65 -4 -65 3 -65 c 1,3,4
 60 -56 60 -56 113.5 62.5 c 128,-1,5
 167 181 167 181 192.5 312.5 c 128,-1,6
 218 444 218 444 218 555 c 0,7,8
 218 725 218 725 162 761 c 0,9,10
 156 765 156 765 158 770.5 c 128,-1,11
 160 776 160 776 163.5 776 c 128,-1,12
 167 776 167 776 170 775 c 0,13,14
 221 747 221 747 245.5 675 c 128,-1,15
 270 603 270 603 270 517 c 0,16,17
 270 423 270 423 248 317 c 128,-1,18
 226 211 226 211 190.5 125.5 c 128,-1,19
 155 40 155 40 105.5 -18.5 c 128,-1,20
 56 -77 56 -77 5 -83 c 1,0,1
EndSplineSet
EndChar

StartChar: asterisk
Encoding: 42 42 13
Width: 442
GlyphClass: 2
Flags: W
LayerCount: 2
Fore
SplineSet
210 681.5 m 128,-1,1
 243 664 243 664 255 644 c 1,2,3
 257 652 257 652 257 674 c 128,-1,4
 257 696 257 696 254 724.5 c 128,-1,5
 251 753 251 753 256 762 c 0,6,7
 263 773 263 773 276.5 773 c 128,-1,8
 290 773 290 773 297.5 764.5 c 128,-1,9
 305 756 305 756 307 740 c 128,-1,10
 309 724 309 724 307 706 c 0,11,12
 303 665 303 665 284 640 c 1,13,14
 310 649 310 649 361 681 c 1,15,16
 373 687 373 687 383.5 687 c 128,-1,17
 394 687 394 687 400 677 c 128,-1,18
 406 667 406 667 406 660 c 0,19,20
 406 639 406 639 370.5 623 c 128,-1,21
 335 607 335 607 313.5 607 c 128,-1,22
 292 607 292 607 279 611 c 1,23,24
 289 594 289 594 344 544 c 0,25,26
 357 532 357 532 357 522 c 128,-1,27
 357 512 357 512 348.5 503 c 128,-1,28
 340 494 340 494 325.5 494 c 128,-1,29
 311 494 311 494 289 520 c 0,30,31
 253 564 253 564 254 603 c 1,32,33
 234 585 234 585 203 524 c 0,34,35
 193 505 193 505 182.5 505 c 128,-1,36
 172 505 172 505 165 509 c 0,37,38
 151 519 151 519 151 529 c 128,-1,39
 151 539 151 539 156.5 554.5 c 128,-1,40
 162 570 162 570 187.5 594 c 128,-1,41
 213 618 213 618 237 625 c 1,42,43
 219 633 219 633 147 645 c 0,44,45
 120 649 120 649 120 670 c 0,46,47
 120 673 120 673 120 676 c 0,48,49
 127 699 127 699 152 699 c 128,-1,0
 177 699 177 699 210 681.5 c 128,-1,1
EndSplineSet
EndChar

StartChar: plus
Encoding: 43 43 14
Width: 626
GlyphClass: 2
Flags: W
LayerCount: 2
Fore
SplineSet
490 301 m 0,0,1
 433 301 433 301 291 296 c 1,2,3
 256 119 256 119 256 48 c 0,4,5
 256 38 256 38 246 38 c 0,6,7
 233 38 233 38 233 97 c 0,8,9
 233 201 233 201 250 295 c 1,10,11
 116 293 116 293 91.5 293 c 128,-1,12
 67 293 67 293 63 313 c 1,13,14
 64 328 64 328 75 331 c 1,15,16
 79 325 79 325 96 325 c 2,17,-1
 255 325 l 1,18,19
 274 418 274 418 301 479 c 128,-1,20
 328 540 328 540 348 540 c 0,21,22
 360 540 360 540 360 529 c 1,23,24
 327 461 327 461 302 347 c 0,25,26
 300 339 300 339 296 325 c 1,27,-1
 503 325 l 2,28,29
 511 325 511 325 511 317 c 0,30,31
 511 301 511 301 490 301 c 0,0,1
EndSplineSet
EndChar

StartChar: comma
Encoding: 44 44 15
Width: 204
GlyphClass: 2
Flags: W
LayerCount: 2
Fore
SplineSet
55 10.5 m 128,-1,1
 65 44 65 44 65 78 c 128,-1,2
 65 112 65 112 92 112 c 128,-1,3
 119 112 119 112 119 76 c 0,4,5
 119 21 119 21 81 -17 c 0,6,7
 63 -35 63 -35 50 -35 c 0,8,9
 30 -35 30 -35 28 -26 c 1,10,-1
 28 -23 l 1,11,0
 45 -23 45 -23 55 10.5 c 128,-1,1
EndSplineSet
EndChar

StartChar: hyphen
Encoding: 45 45 16
Width: 578
GlyphClass: 2
Flags: W
LayerCount: 2
Fore
SplineSet
446 301 m 2,0,1
 446 301 446 301 96 293 c 0,2,3
 67 293 67 293 63 313 c 1,4,5
 64 328 64 328 75 331 c 1,6,7
 79 325 79 325 96 325 c 2,8,-1
 458 325 l 2,9,10
 468 325 468 325 467 314 c 1,11,12
 463 302 463 302 446 301 c 2,0,1
EndSplineSet
EndChar

StartChar: period
Encoding: 46 46 17
Width: 234
GlyphClass: 2
Flags: W
LayerCount: 2
Fore
SplineSet
78 -7 m 1,0,1
 57 -7 57 -7 57 32 c 0,2,3
 57 56 57 56 70 83 c 128,-1,4
 83 110 83 110 107 110 c 0,5,6
 127 110 127 110 127 87 c 256,7,8
 127 64 127 64 90 10 c 2,9,-1
 78 -7 l 1,0,1
EndSplineSet
EndChar

StartChar: slash
Encoding: 47 47 18
Width: 433
GlyphClass: 2
Flags: W
LayerCount: 2
Fore
SplineSet
0 -89 m 0,0,1
 -11 -89 -11 -89 -11 -73 c 0,2,3
 -11 -56 -11 -56 13.5 -6 c 128,-1,4
 38 44 38 44 183.5 363.5 c 128,-1,5
 329 683 329 683 339.5 703.5 c 128,-1,6
 350 724 350 724 367.5 724 c 128,-1,7
 385 724 385 724 385 699 c 0,8,9
 385 670 385 670 368 635.5 c 128,-1,10
 351 601 351 601 270 442 c 0,11,12
 77 59 77 59 16 -73 c 0,13,14
 8 -89 8 -89 0 -89 c 0,0,1
EndSplineSet
EndChar

StartChar: zero
Encoding: 48 48 19
Width: 491
GlyphClass: 2
Flags: W
LayerCount: 2
Fore
SplineSet
70 202 m 0,0,1
 70 28 70 28 158 28 c 128,-1,2
 246 28 246 28 306.5 162 c 128,-1,3
 367 296 367 296 367 426 c 0,4,5
 367 576 367 576 295 576 c 1,6,7
 298 590 298 590 310.5 600 c 128,-1,8
 323 610 323 610 341 610 c 0,9,10
 420 610 420 610 420 452 c 0,11,12
 420 358 420 358 383 245 c 0,13,14
 329 83 329 83 239 25 c 0,15,16
 200 -1 200 -1 158 -1 c 0,17,18
 48 -1 48 -1 13 115 c 0,19,20
 -1 162 -1 162 -1 226.5 c 128,-1,21
 -1 291 -1 291 26 380 c 0,22,23
 72 531 72 531 162 606 c 0,24,25
 219 654 219 654 282 654 c 0,26,27
 291 654 291 654 296.5 647.5 c 128,-1,28
 302 641 302 641 304 628 c 1,29,30
 203 628 203 628 134 478 c 0,31,32
 70 340 70 340 70 202 c 0,0,1
EndSplineSet
EndChar

StartChar: one
Encoding: 49 49 20
Width: 395
GlyphClass: 2
Flags: W
LayerCount: 2
Fore
SplineSet
348 654 m 0,0,1
 364 654 364 654 364 638 c 1,2,3
 310 577 310 577 262.5 348.5 c 128,-1,4
 215 120 215 120 215 12 c 0,5,6
 215 -1 215 -1 201 -1 c 0,7,8
 171 -1 171 -1 171 79 c 0,9,10
 171 256 171 256 205 410.5 c 128,-1,11
 239 565 239 565 292 624 c 1,12,13
 208 594 208 594 133.5 505 c 128,-1,14
 59 416 59 416 59 335 c 0,15,16
 59 290 59 290 85 290 c 1,17,18
 80 267 80 267 56.5 267 c 128,-1,19
 33 267 33 267 17 288 c 128,-1,20
 1 309 1 309 1 344 c 0,21,22
 1 410 1 410 62.5 484.5 c 128,-1,23
 124 559 124 559 205.5 606.5 c 128,-1,24
 287 654 287 654 348 654 c 0,0,1
EndSplineSet
EndChar

StartChar: two
Encoding: 50 50 21
Width: 491
GlyphClass: 2
Flags: W
LayerCount: 2
Fore
SplineSet
-34 47 m 0,0,1
 -40 47 -40 47 -40 62 c 128,-1,2
 -40 77 -40 77 -33 77 c 0,3,4
 -13 77 -13 77 47 130 c 128,-1,5
 107 183 107 183 171.5 255 c 128,-1,6
 236 327 236 327 286.5 410 c 128,-1,7
 337 493 337 493 337 545 c 0,8,9
 337 622 337 622 253 622 c 128,-1,10
 169 622 169 622 115 544 c 0,11,12
 83 497 83 497 83 464 c 128,-1,13
 83 431 83 431 103 431 c 1,14,-1
 103 426 l 2,15,16
 103 403 103 403 84 392 c 0,17,18
 76 388 76 388 66 388 c 0,19,20
 27 388 27 388 27 433 c 0,21,22
 27 494 27 494 85 562 c 0,23,24
 164 653 164 653 271 654 c 0,25,26
 340 654 340 654 375.5 620.5 c 128,-1,27
 411 587 411 587 411 532.5 c 128,-1,28
 411 478 411 478 370 408 c 128,-1,29
 329 338 329 338 268 274 c 1,30,31
 138 141 138 141 28 74 c 1,32,33
 55 72 55 72 106 66 c 0,34,35
 218 51 218 51 261 51 c 128,-1,36
 304 51 304 51 324 56.5 c 128,-1,37
 344 62 344 62 354 70 c 0,38,39
 376 87 376 87 383 105 c 1,40,41
 400 105 400 105 397 79 c 0,42,43
 393 39 393 39 354.5 15 c 128,-1,44
 316 -9 316 -9 256.5 -9 c 128,-1,45
 197 -9 197 -9 96.5 19 c 128,-1,46
 -4 47 -4 47 -34 47 c 0,0,1
EndSplineSet
EndChar

StartChar: three
Encoding: 51 51 22
Width: 468
GlyphClass: 2
Flags: W
LayerCount: 2
Fore
SplineSet
226 352 m 1,0,1
 361 314 361 314 361 174 c 0,2,3
 361 87 361 87 292 8 c 0,4,5
 208 -87 208 -87 69 -87 c 0,6,7
 -40 -87 -40 -87 -76 -31 c 0,8,9
 -85 -18 -85 -18 -85 -6 c 128,-1,10
 -85 6 -85 6 -75.5 17.5 c 128,-1,11
 -66 29 -66 29 -47 37 c 1,12,13
 -47 17 -47 17 -39 -3 c 128,-1,14
 -31 -23 -31 -23 -3.5 -41.5 c 128,-1,15
 24 -60 24 -60 69 -60 c 0,16,17
 172 -60 172 -60 236 28 c 0,18,19
 284 94 284 94 284 167 c 0,20,21
 284 278 284 278 195 315 c 0,22,23
 161 329 161 329 117 329 c 1,24,25
 117 342 117 342 126 352 c 128,-1,26
 135 362 135 362 148 362 c 0,27,28
 194 362 194 362 256 428 c 128,-1,29
 318 494 318 494 318 559 c 0,30,31
 318 587 318 587 299.5 604.5 c 128,-1,32
 281 622 281 622 244 622 c 0,33,34
 174 622 174 622 134 566 c 0,35,36
 114 539 114 539 114 515 c 128,-1,37
 114 491 114 491 137 491 c 1,38,39
 137 476 137 476 124.5 462.5 c 128,-1,40
 112 449 112 449 95 449 c 0,41,42
 53 449 53 449 53 492 c 128,-1,43
 53 535 53 535 103 586 c 0,44,45
 171 654 171 654 268 654 c 128,-1,46
 365 654 365 654 384 584 c 0,47,48
 388 570 388 570 388 554 c 0,49,50
 388 505 388 505 343 444.5 c 128,-1,51
 298 384 298 384 226 352 c 1,0,1
EndSplineSet
EndChar

StartChar: four
Encoding: 52 52 23
Width: 547
GlyphClass: 2
Flags: W
LayerCount: 2
Fore
SplineSet
462 311 m 0,0,1
 494 311 494 311 494 271.5 c 128,-1,2
 494 232 494 232 460 199 c 0,3,4
 416 156 416 156 339 151 c 1,5,6
 325 56 325 56 325 -4 c 0,7,8
 325 -18 325 -18 311 -18 c 0,9,10
 280 -18 280 -18 280 62 c 0,11,12
 280 120 280 120 282 150 c 1,13,14
 236 151 236 151 65 165 c 1,15,16
 40 150 40 150 16 150 c 0,17,18
 -40 150 -40 150 -40 177 c 0,19,20
 -40 191 -40 191 -18 200 c 1,21,22
 -5 204 -5 204 11 204 c 2,23,-1
 18 204 l 1,24,25
 43 226 43 226 66 278 c 1,26,27
 103 366 103 366 123 506 c 0,28,29
 129 548 129 548 129 591.5 c 128,-1,30
 129 635 129 635 113 635 c 1,31,32
 116 654 116 654 135 654 c 0,33,34
 165 654 165 654 174 566 c 1,35,36
 178 538 178 538 178 490.5 c 128,-1,37
 178 443 178 443 164 366 c 0,38,39
 144 254 144 254 99 197 c 1,40,41
 217 181 217 181 284 178 c 1,42,43
 294 324 294 324 328 432 c 0,44,45
 346 487 346 487 373 519 c 128,-1,46
 400 551 400 551 433 551 c 0,47,48
 449 551 449 551 449 535 c 1,49,50
 418 493 418 493 389.5 392.5 c 128,-1,51
 361 292 361 292 343 179 c 1,52,53
 418 186 418 186 442 240 c 0,54,55
 448 255 448 255 448 271 c 128,-1,56
 448 287 448 287 434 289 c 1,57,58
 441 311 441 311 462 311 c 0,0,1
EndSplineSet
EndChar

StartChar: five
Encoding: 53 53 24
Width: 450
GlyphClass: 2
Flags: W
LayerCount: 2
Fore
SplineSet
192.5 621 m 128,-1,1
 223 614 223 614 254.5 614 c 128,-1,2
 286 614 286 614 309.5 620.5 c 128,-1,3
 333 627 333 627 345 636 c 0,4,5
 369 656 369 656 376 678 c 1,6,7
 388 678 388 678 388 656 c 0,8,9
 388 603 388 603 340 570 c 0,10,11
 304 546 304 546 244 546 c 128,-1,12
 184 546 184 546 127 576 c 1,13,14
 124 560 124 560 119 524 c 0,15,16
 108 441 108 441 96 401 c 1,17,18
 136 421 136 421 179 421 c 0,19,20
 298 421 298 421 342 324 c 0,21,22
 362 279 362 279 362 229 c 128,-1,23
 362 179 362 179 344 124 c 0,24,25
 305 8 305 8 209 -49 c 0,26,27
 145 -87 145 -87 69 -87 c 0,28,29
 -40 -87 -40 -87 -76 -31 c 0,30,31
 -85 -18 -85 -18 -85 -6 c 128,-1,32
 -85 6 -85 6 -75.5 17.5 c 128,-1,33
 -66 29 -66 29 -47 37 c 1,34,35
 -47 17 -47 17 -39 -3 c 128,-1,36
 -31 -23 -31 -23 -3.5 -41.5 c 128,-1,37
 24 -60 24 -60 69 -60 c 0,38,39
 171 -60 171 -60 236 42 c 0,40,41
 288 125 288 125 288 219 c 0,42,43
 288 337 288 337 216 375 c 0,44,45
 190 389 190 389 162.5 389 c 128,-1,46
 135 389 135 389 116.5 380 c 128,-1,47
 98 371 98 371 87 360 c 0,48,49
 59 330 59 330 44.5 330 c 128,-1,50
 30 330 30 330 22.5 336 c 128,-1,51
 15 342 15 342 12 355 c 1,52,53
 39 355 39 355 56.5 400 c 128,-1,54
 74 445 74 445 80 498 c 0,55,56
 98 642 98 642 125 642 c 0,57,58
 127 642 127 642 144.5 635 c 128,-1,0
 162 628 162 628 192.5 621 c 128,-1,1
EndSplineSet
EndChar

StartChar: six
Encoding: 54 54 25
Width: 467
GlyphClass: 2
Flags: W
LayerCount: 2
Fore
SplineSet
81 201 m 0,0,1
 81 250 81 250 102 305.5 c 128,-1,2
 123 361 123 361 170.5 406 c 128,-1,3
 218 451 218 451 279 451 c 0,4,5
 364 451 364 451 389 364 c 0,6,7
 397 334 397 334 397 287.5 c 128,-1,8
 397 241 397 241 368 171 c 0,9,10
 323 60 323 60 238 18 c 0,11,12
 200 -1 200 -1 158 -1 c 0,13,14
 51 -1 51 -1 15 111 c 0,15,16
 -1 159 -1 159 -1 224.5 c 128,-1,17
 -1 290 -1 290 26 379 c 0,18,19
 76 543 76 543 183 636 c 0,20,21
 271 713 271 713 374 713 c 0,22,23
 383 713 383 713 388.5 706.5 c 128,-1,24
 394 700 394 700 396 687 c 1,25,26
 266 687 266 687 171 534 c 0,27,28
 92 407 92 407 75 248 c 0,29,30
 71 214 71 214 71 185 c 0,31,32
 71 92 71 92 108 51 c 0,33,34
 128 28 128 28 158 28 c 0,35,36
 235 28 235 28 289 128 c 1,37,38
 333 213 333 213 333 303 c 0,39,40
 333 407 333 407 278 420 c 0,41,42
 271 422 271 422 263 422 c 0,43,44
 203 422 203 422 156 347.5 c 128,-1,45
 109 273 109 273 109 200 c 0,46,47
 109 195 109 195 102 193 c 128,-1,48
 95 191 95 191 88 193.5 c 128,-1,49
 81 196 81 196 81 201 c 0,0,1
EndSplineSet
EndChar

StartChar: seven
Encoding: 55 55 26
Width: 381
GlyphClass: 2
Flags: W
LayerCount: 2
Fore
SplineSet
383 654 m 0,0,1
 399 654 399 654 399 638 c 1,2,3
 350 595 350 595 275 486 c 128,-1,4
 200 377 200 377 137 239.5 c 128,-1,5
 74 102 74 102 74 14 c 0,6,7
 74 1 74 1 60 1 c 0,8,9
 29 1 29 1 29 51 c 0,10,11
 29 81 29 81 40 128 c 0,12,13
 73 273 73 273 155.5 419.5 c 128,-1,14
 238 566 238 566 306 620 c 1,15,16
 279 616 279 616 197.5 595 c 128,-1,17
 116 574 116 574 85 574 c 128,-1,18
 54 574 54 574 46.5 589 c 128,-1,19
 39 604 39 604 43 620 c 2,20,-1
 47 635 l 1,21,22
 65 619 65 619 97.5 619 c 128,-1,23
 130 619 130 619 235 636.5 c 128,-1,24
 340 654 340 654 383 654 c 0,0,1
EndSplineSet
EndChar

StartChar: eight
Encoding: 56 56 27
Width: 465
GlyphClass: 2
Flags: W
LayerCount: 2
Fore
SplineSet
409 674 m 0,0,1
 409 594 409 594 362.5 530 c 128,-1,2
 316 466 316 466 231 392 c 1,3,4
 240 381 240 381 265.5 352 c 128,-1,5
 291 323 291 323 303.5 307 c 128,-1,6
 316 291 316 291 332 265 c 0,7,8
 364 215 364 215 364 162 c 0,9,10
 364 73 364 73 301 22.5 c 128,-1,11
 238 -28 238 -28 158 -28 c 128,-1,12
 78 -28 78 -28 24.5 10 c 128,-1,13
 -29 48 -29 48 -29 117 c 0,14,15
 -29 199 -29 199 51 279 c 0,16,17
 88 316 88 316 156 374 c 1,18,19
 109 438 109 438 109 502 c 128,-1,20
 109 566 109 566 152.5 609 c 128,-1,21
 196 652 196 652 265 652 c 0,22,23
 285 652 285 652 296.5 645 c 128,-1,24
 308 638 308 638 310 630 c 2,25,-1
 312 623 l 1,26,27
 301 627 301 627 273 627 c 0,28,29
 221 627 221 627 194.5 597 c 128,-1,30
 168 567 168 567 168 521.5 c 128,-1,31
 168 476 168 476 209 420 c 1,32,33
 288 492 288 492 332 561 c 128,-1,34
 376 630 376 630 376 719 c 1,35,36
 390 716 390 716 399.5 703.5 c 128,-1,37
 409 691 409 691 409 674 c 0,0,1
302 137 m 0,38,39
 302 167 302 167 288 199 c 128,-1,40
 274 231 274 231 263 246.5 c 128,-1,41
 252 262 252 262 218.5 300 c 128,-1,42
 185 338 185 338 178 346 c 1,43,44
 102 280 102 280 62 226 c 128,-1,45
 22 172 22 172 22 115 c 128,-1,46
 22 58 22 58 61 28.5 c 128,-1,47
 100 -1 100 -1 157 -1 c 128,-1,48
 214 -1 214 -1 258 36 c 128,-1,49
 302 73 302 73 302 137 c 0,38,39
EndSplineSet
EndChar

StartChar: nine
Encoding: 57 57 28
Width: 477
GlyphClass: 2
Flags: W
LayerCount: 2
Fore
SplineSet
61 362 m 0,0,1
 61 230 61 230 138 230 c 0,2,3
 198 230 198 230 240.5 302 c 128,-1,4
 283 374 283 374 283 444 c 0,5,6
 283 448 283 448 283 452 c 128,-1,7
 283 456 283 456 290 458 c 0,8,9
 312 464 312 464 312 445 c 0,10,11
 312 398 312 398 293.5 344 c 128,-1,12
 275 290 275 290 229 245 c 128,-1,13
 183 200 183 200 122 200 c 0,14,15
 36 200 36 200 10 288 c 0,16,17
 0 322 0 322 0 369 c 128,-1,18
 0 416 0 416 24 481 c 0,19,20
 66 592 66 592 149 633 c 0,21,22
 187 652 187 652 228 652 c 0,23,24
 343 652 343 652 384 534 c 0,25,26
 402 480 402 480 402 411.5 c 128,-1,27
 402 343 402 343 379 258 c 0,28,29
 333 91 333 91 229 -5 c 0,30,31
 141 -87 141 -87 37 -87 c 0,32,33
 -27 -87 -27 -87 -62.5 -60 c 128,-1,34
 -98 -33 -98 -33 -99 -8 c 0,35,36
 -99 6 -99 6 -90 17.5 c 128,-1,37
 -81 29 -81 29 -63 37 c 1,38,39
 -62 3 -62 3 -39 -28.5 c 128,-1,40
 -16 -60 -16 -60 36 -60 c 0,41,42
 143 -60 143 -60 230 84 c 0,43,44
 308 213 308 213 328 375 c 0,45,46
 333 416 333 416 333 451 c 0,47,48
 333 550 333 550 292 595 c 0,49,50
 266 624 266 624 228 624 c 0,51,52
 150 624 150 624 102 526 c 0,53,54
 61 444 61 444 61 362 c 0,0,1
EndSplineSet
EndChar

StartChar: colon
Encoding: 58 58 29
Width: 250
GlyphClass: 2
Flags: W
LayerCount: 2
Fore
SplineSet
78 -7 m 1,0,1
 57 -7 57 -7 57 32 c 0,2,3
 57 56 57 56 70 83 c 128,-1,4
 83 110 83 110 107 110 c 0,5,6
 127 110 127 110 127 87 c 256,7,8
 127 64 127 64 90 10 c 2,9,-1
 78 -7 l 1,0,1
102 258 m 1,10,11
 81 258 81 258 81 298 c 0,12,13
 81 322 81 322 94 349 c 128,-1,14
 107 376 107 376 131 376 c 0,15,16
 151 376 151 376 151 352 c 0,17,18
 151 341 151 341 139 317.5 c 128,-1,19
 127 294 127 294 114 276 c 2,20,-1
 102 258 l 1,10,11
EndSplineSet
EndChar

StartChar: semicolon
Encoding: 59 59 30
Width: 240
GlyphClass: 2
Flags: W
LayerCount: 2
Fore
SplineSet
108 258 m 1,0,1
 87 258 87 258 87 298 c 0,2,3
 87 322 87 322 99.5 349 c 128,-1,4
 112 376 112 376 136 376 c 0,5,6
 157 376 157 376 157 352 c 0,7,8
 157 332 157 332 120 276 c 2,9,-1
 108 258 l 1,0,1
55 10.5 m 128,-1,11
 65 44 65 44 65 78 c 128,-1,12
 65 112 65 112 92 112 c 128,-1,13
 119 112 119 112 119 76 c 0,14,15
 119 21 119 21 81 -17 c 0,16,17
 63 -35 63 -35 50 -35 c 0,18,19
 30 -35 30 -35 28 -26 c 1,20,-1
 28 -23 l 1,21,10
 45 -23 45 -23 55 10.5 c 128,-1,11
EndSplineSet
EndChar

StartChar: less
Encoding: 60 60 31
Width: 533
GlyphClass: 2
Flags: W
LayerCount: 2
Fore
SplineSet
382 435 m 0,0,1
 382 392 382 392 300.5 329.5 c 128,-1,2
 219 267 219 267 140 259 c 1,3,4
 207 229 207 229 263.5 162.5 c 128,-1,5
 320 96 320 96 320 50 c 0,6,7
 320 35 320 35 313 23.5 c 128,-1,8
 306 12 306 12 291 4 c 1,9,10
 291 77 291 77 203 158 c 128,-1,11
 115 239 115 239 9 239 c 1,12,13
 12 252 12 252 30.5 264 c 128,-1,14
 49 276 49 276 71 276 c 0,15,16
 176 276 176 276 264.5 348 c 128,-1,17
 353 420 353 420 353 482 c 1,18,19
 356 481 356 481 361 479 c 128,-1,20
 366 477 366 477 374 465 c 128,-1,21
 382 453 382 453 382 435 c 0,0,1
EndSplineSet
EndChar

StartChar: equal
Encoding: 61 61 32
Width: 654
GlyphClass: 2
Flags: W
LayerCount: 2
Fore
SplineSet
490 376 m 2,0,1
 490 376 490 376 96 368 c 0,2,3
 67 368 67 368 63 388 c 1,4,5
 64 403 64 403 75 406 c 1,6,7
 79 400 79 400 96 400 c 2,8,-1
 503 400 l 2,9,10
 511 400 511 400 511 392 c 0,11,12
 511 376 511 376 490 376 c 2,0,1
490 226 m 2,13,-1
 96 218 l 2,14,15
 67 218 67 218 63 238 c 1,16,17
 64 253 64 253 75 256 c 1,18,19
 79 250 79 250 96 250 c 2,20,-1
 503 250 l 2,21,22
 511 250 511 250 511 242 c 0,23,24
 511 226 511 226 490 226 c 2,13,-1
EndSplineSet
EndChar

StartChar: greater
Encoding: 62 62 33
Width: 463
GlyphClass: 2
Flags: W
LayerCount: 2
Fore
SplineSet
27 52 m 0,0,1
 27 95 27 95 108 157.5 c 128,-1,2
 189 220 189 220 269 228 c 1,3,4
 202 258 202 258 145.5 324.5 c 128,-1,5
 89 391 89 391 89 437 c 0,6,7
 89 452 89 452 96 463 c 128,-1,8
 103 474 103 474 117 482 c 1,9,10
 117 409 117 409 205 328.5 c 128,-1,11
 293 248 293 248 400 248 c 1,12,13
 397 236 397 236 378 223.5 c 128,-1,14
 359 211 359 211 337 211 c 0,15,16
 267 211 267 211 199.5 175 c 128,-1,17
 132 139 132 139 93.5 91 c 128,-1,18
 55 43 55 43 55 4 c 1,19,20
 45 7 45 7 36 20.5 c 128,-1,21
 27 34 27 34 27 52 c 0,0,1
EndSplineSet
EndChar

StartChar: question
Encoding: 63 63 34
Width: 492
GlyphClass: 2
Flags: W
LayerCount: 2
Fore
SplineSet
193 666 m 0,0,1
 162 620 162 620 162 586.5 c 128,-1,2
 162 553 162 553 182 553 c 1,3,4
 182 537 182 537 171.5 523.5 c 128,-1,5
 161 510 161 510 144 510 c 0,6,7
 105 510 105 510 105 555 c 0,8,9
 105 616 105 616 163 684 c 0,10,11
 242 775 242 775 350 776 c 0,12,13
 418 776 418 776 454 742 c 128,-1,14
 490 708 490 708 490 654 c 128,-1,15
 490 600 490 600 456.5 543.5 c 128,-1,16
 423 487 423 487 375.5 440 c 128,-1,17
 328 393 328 393 280 350 c 0,18,19
 166 245 166 245 166 190 c 0,20,21
 166 179 166 179 149 178.5 c 128,-1,22
 132 178 132 178 132 190 c 0,23,24
 132 246 132 246 232 362 c 1,25,26
 274 409 274 409 315.5 459 c 128,-1,27
 357 509 357 509 386.5 564.5 c 128,-1,28
 416 620 416 620 416 667 c 0,29,30
 416 744 416 744 331.5 744 c 128,-1,31
 247 744 247 744 193 666 c 0,0,1
142 109 m 128,-1,33
 166 109 166 109 166 86 c 0,34,35
 166 66 166 66 144 10 c 1,36,-1
 136 -8 l 1,37,38
 119 -8 119 -8 110 21 c 0,39,40
 106 36 106 36 106 50.5 c 128,-1,41
 106 65 106 65 110 80 c 0,42,32
 118 109 118 109 142 109 c 128,-1,33
EndSplineSet
EndChar

StartChar: at
Encoding: 64 64 35
Width: 837
GlyphClass: 2
Flags: W
LayerCount: 2
Fore
SplineSet
523 243 m 0,0,1
 523 155 523 155 570 155 c 0,2,3
 626 155 626 155 667.5 232.5 c 128,-1,4
 709 310 709 310 709 396 c 0,5,6
 709 554 709 554 596 607 c 0,7,8
 551 629 551 629 490 629 c 0,9,10
 327 629 327 629 225 496 c 0,11,12
 136 380 136 380 136 228 c 0,13,14
 136 102 136 102 206 29 c 0,15,16
 264 -31 264 -31 358 -31 c 0,17,18
 400 -31 400 -31 434 -20.5 c 128,-1,19
 468 -10 468 -10 486 4 c 0,20,21
 524 35 524 35 533 60 c 2,22,-1
 537 70 l 1,23,-1
 555 69 l 1,24,25
 552 53 552 53 536 28 c 128,-1,26
 520 3 520 3 499.5 -13.5 c 128,-1,27
 479 -30 479 -30 439 -43.5 c 128,-1,28
 399 -57 399 -57 349 -57 c 0,29,30
 187 -57 187 -57 118 64 c 0,31,32
 80 131 80 131 80 214 c 0,33,34
 80 261 80 261 92 313 c 0,35,36
 126 460 126 460 238 556.5 c 128,-1,37
 350 653 350 653 508.5 653 c 128,-1,38
 667 653 667 653 723 528 c 1,39,40
 746 474 746 474 746 418.5 c 128,-1,41
 746 363 746 363 730 307 c 0,42,43
 700 200 700 200 633 155 c 0,44,45
 601 133 601 133 568 133 c 0,46,47
 514 133 514 133 492 178 c 0,48,49
 476 213 476 213 476 262 c 0,50,51
 476 275 476 275 477 290 c 1,52,-1
 469 290 l 1,53,54
 379 134 379 134 330 134 c 0,55,56
 270 134 270 134 270 229 c 0,57,58
 270 299 270 299 310 378 c 0,59,60
 360 477 360 477 433 493 c 1,61,-1
 456 496 l 1,62,63
 475 496 475 496 488 486 c 128,-1,64
 501 476 501 476 505 466 c 2,65,-1
 509 456 l 1,66,67
 512 441 512 441 496 441 c 0,68,69
 482 441 482 441 478 451 c 0,70,71
 470 471 470 471 451 471 c 0,72,73
 407 471 407 471 370 392 c 0,74,75
 326 300 326 300 326 216 c 0,76,77
 326 174 326 174 338 166 c 1,78,79
 357 166 357 166 412 248 c 0,80,81
 425 269 425 269 434 284 c 128,-1,82
 443 299 443 299 458 323.5 c 128,-1,83
 473 348 473 348 482 362 c 128,-1,84
 491 376 491 376 501.5 394 c 128,-1,85
 512 412 512 412 518 422 c 128,-1,86
 524 432 524 432 531 442 c 0,87,88
 544 462 544 462 560 462 c 0,89,90
 574 462 574 462 574 444 c 1,91,92
 554 408 554 408 538.5 349.5 c 128,-1,93
 523 291 523 291 523 243 c 0,0,1
EndSplineSet
EndChar

StartChar: A
Encoding: 65 65 36
Width: 1057
GlyphClass: 2
Flags: W
LayerCount: 2
Fore
SplineSet
369 -14 m 1,0,1
 320 33 320 33 320 127 c 0,2,3
 320 232 320 232 389 344 c 0,4,5
 427 406 427 406 492 446 c 128,-1,6
 557 486 557 486 634 486 c 0,7,8
 668 486 668 486 707 474 c 1,9,10
 783 599 783 599 831 655 c 128,-1,11
 879 711 879 711 914 740 c 0,12,13
 993 804 993 804 1074 804 c 0,14,15
 1090 804 1090 804 1090 788 c 1,16,17
 1024 643 1024 643 988.5 495.5 c 128,-1,18
 953 348 953 348 933.5 208.5 c 128,-1,19
 914 69 914 69 914 -28 c 0,20,21
 914 -42 914 -42 900 -42 c 0,22,23
 865 -42 865 -42 865 38 c 0,24,25
 865 139 865 139 846 221 c 0,26,27
 811 377 811 377 724 427 c 1,28,29
 713 406 713 406 682.5 347 c 128,-1,30
 652 288 652 288 637.5 260.5 c 128,-1,31
 623 233 623 233 594.5 183.5 c 128,-1,32
 566 134 566 134 546 104 c 0,33,34
 498 32 498 32 442 -22 c 1,35,36
 452 -25 452 -25 466 -25 c 0,37,38
 550 -25 550 -25 605 30.5 c 128,-1,39
 660 86 660 86 681 162 c 0,40,41
 684 173 684 173 697 172 c 0,42,43
 705 171 705 171 703 164 c 0,44,45
 681 78 681 78 619.5 13.5 c 128,-1,46
 558 -51 558 -51 465 -51 c 0,47,48
 444 -51 444 -51 418 -44 c 1,49,50
 326 -118 326 -118 222 -118 c 0,51,52
 87 -118 87 -118 30 -12 c 0,53,54
 -1 45 -1 45 -1 111 c 0,55,56
 -1 146 -1 146 8 184 c 0,57,58
 32 287 32 287 106 331 c 0,59,60
 143 353 143 353 187 353 c 0,61,62
 201 353 201 353 210 344.5 c 128,-1,63
 219 336 219 336 223 318 c 1,64,65
 164 318 164 318 117 276 c 0,66,67
 38 207 38 207 38 80 c 0,68,69
 38 3 38 3 84.5 -40.5 c 128,-1,70
 131 -84 131 -84 209.5 -84 c 128,-1,71
 288 -84 288 -84 369 -14 c 1,0,1
633 450 m 0,72,73
 549 450 549 450 482 395 c 128,-1,74
 415 340 415 340 384 266.5 c 128,-1,75
 353 193 353 193 353 118 c 128,-1,76
 353 43 353 43 391 4 c 1,77,78
 429 40 429 40 472 98.5 c 128,-1,79
 515 157 515 157 540 197 c 128,-1,80
 565 237 565 237 618 327 c 128,-1,81
 671 417 671 417 687 443 c 1,82,83
 663 450 663 450 633 450 c 0,72,73
1022 765 m 1,84,85
 942 744 942 744 876 666 c 128,-1,86
 810 588 810 588 741 459 c 1,87,88
 838 406 838 406 877 247 c 1,89,90
 895 417 895 417 935.5 559.5 c 128,-1,91
 976 702 976 702 1022 765 c 1,84,85
EndSplineSet
EndChar

StartChar: B
Encoding: 66 66 37
Width: 762
GlyphClass: 2
Flags: W
LayerCount: 2
Fore
SplineSet
562 461 m 1,0,1
 681 423 681 423 681 266 c 0,2,3
 681 135 681 135 569.5 9.5 c 128,-1,4
 458 -116 458 -116 263 -116 c 0,5,6
 110 -116 110 -116 64 -27 c 0,7,8
 48 3 48 3 48 34.5 c 128,-1,9
 48 66 48 66 64 99 c 0,10,11
 94 163 94 163 151 163 c 0,12,13
 156 163 156 163 158 157.5 c 128,-1,14
 160 152 160 152 157.5 146 c 128,-1,15
 155 140 155 140 150 140 c 0,16,17
 116 140 116 140 93 96 c 0,18,19
 77 67 77 67 77 41 c 128,-1,20
 77 15 77 15 89 -9 c 0,21,22
 124 -77 124 -77 245 -77 c 0,23,24
 397 -77 397 -77 509 51 c 0,25,26
 596 149 596 149 616 266 c 0,27,28
 621 294 621 294 621 318 c 0,29,30
 621 387 621 387 580 421 c 0,31,32
 558 439 558 439 526 442 c 1,33,34
 472 419 472 419 410 419 c 0,35,36
 403 419 403 419 403 432.5 c 128,-1,37
 403 446 403 446 410 446 c 0,38,39
 511 446 511 446 587 541 c 0,40,41
 643 612 643 612 647 680 c 1,42,43
 645 740 645 740 600 743 c 1,44,45
 551 743 551 743 495 673 c 128,-1,46
 439 603 439 603 394 503 c 128,-1,47
 349 403 349 403 311.5 298.5 c 128,-1,48
 274 194 274 194 253 119.5 c 128,-1,49
 232 45 232 45 232 32 c 128,-1,50
 232 19 232 19 218 19 c 0,51,52
 188 19 188 19 188 99 c 0,53,54
 188 292 188 292 231.5 474 c 128,-1,55
 275 656 275 656 328 717 c 1,56,57
 185 697 185 697 96 616 c 1,58,59
 45 571 45 571 45 518 c 0,60,61
 45 492 45 492 65 492 c 1,62,63
 61 478 61 478 43 478 c 128,-1,64
 25 478 25 478 11.5 492 c 128,-1,65
 -2 506 -2 506 -2 531 c 0,66,67
 -2 590 -2 590 69.5 640.5 c 128,-1,68
 141 691 141 691 224 715.5 c 128,-1,69
 307 740 307 740 365 740 c 0,70,71
 381 740 381 740 381 724 c 1,72,73
 316 573 316 573 263 283 c 1,74,-1
 271 283 l 1,75,76
 329 464 329 464 408 607 c 0,77,78
 450 684 450 684 501 728.5 c 128,-1,79
 552 773 552 773 605 773 c 0,80,81
 689 773 689 773 705 705 c 0,82,83
 708 691 708 691 708 675 c 0,84,85
 708 621 708 621 666.5 559.5 c 128,-1,86
 625 498 625 498 562 461 c 1,0,1
EndSplineSet
EndChar

StartChar: C
Encoding: 67 67 38
Width: 605
GlyphClass: 2
Flags: W
LayerCount: 2
Fore
SplineSet
579 514 m 0,0,1
 579 510 579 510 570.5 509 c 128,-1,2
 562 508 562 508 553.5 512 c 128,-1,3
 545 516 545 516 545 523 c 0,4,5
 545 625 545 625 568 687.5 c 128,-1,6
 591 750 591 750 628 750 c 0,7,8
 638 750 638 750 645 743 c 128,-1,9
 652 736 652 736 652 724 c 1,10,11
 606 678 606 678 587 590 c 0,12,13
 579 554 579 554 579 514 c 0,0,1
519 726 m 0,14,15
 381 726 381 726 272 565 c 0,16,17
 178 426 178 426 149 241 c 0,18,19
 139 180 139 180 139 129 c 0,20,21
 139 31 139 31 175 -28.5 c 128,-1,22
 211 -88 211 -88 276 -88 c 0,23,24
 364 -88 364 -88 426 13 c 0,25,26
 468 81 468 81 468 133 c 0,27,28
 468 156 468 156 456 156 c 1,29,30
 462 179 462 179 486 179 c 0,31,32
 514 179 514 179 514 139 c 0,33,34
 514 64 514 64 448 -21 c 0,35,36
 369 -122 369 -122 263 -122 c 0,37,38
 130 -122 130 -122 83 11 c 1,39,40
 60 73 60 73 60 151.5 c 128,-1,41
 60 230 60 230 86 327 c 0,42,43
 136 519 136 519 254.5 646 c 128,-1,44
 373 773 373 773 517 774 c 0,45,46
 537 774 537 774 546 761 c 128,-1,47
 555 748 555 748 554 736 c 1,48,-1
 554 723 l 1,49,50
 546 726 546 726 519 726 c 0,14,15
EndSplineSet
EndChar

StartChar: D
Encoding: 68 68 39
Width: 750
GlyphClass: 2
Flags: W
LayerCount: 2
Fore
SplineSet
44 478 m 0,0,1
 7 478 7 478 7 530 c 128,-1,2
 7 582 7 582 61 646 c 0,3,4
 151 754 151 754 311 771 c 1,5,-1
 366 774 l 1,6,7
 548 774 548 774 630 629 c 1,8,9
 679 540 679 540 679 424 c 0,10,11
 679 376 679 376 671 323 c 0,12,13
 642 145 642 145 533 21 c 0,14,15
 413 -116 413 -116 253.5 -116 c 128,-1,16
 94 -116 94 -116 51 -27 c 0,17,18
 38 1 38 1 38 32.5 c 128,-1,19
 38 64 38 64 55 99 c 0,20,21
 88 163 88 163 145 163 c 0,22,23
 150 163 150 163 151.5 157.5 c 128,-1,24
 153 152 153 152 150.5 146 c 128,-1,25
 148 140 148 140 143 140 c 0,26,27
 109 140 109 140 84 96 c 1,28,29
 68 65 68 65 68 39 c 128,-1,30
 68 13 68 13 78 -9 c 0,31,32
 110 -77 110 -77 231 -77 c 0,33,34
 368 -77 368 -77 479 63 c 0,35,36
 579 189 579 189 608 359 c 0,37,38
 618 414 618 414 618 463 c 0,39,40
 618 572 618 572 569 647 c 0,41,42
 504 748 504 748 365 748 c 0,43,44
 191 748 191 748 104 631 c 0,45,46
 60 571 60 571 60 519 c 0,47,48
 60 498 60 498 69 498 c 1,49,50
 63 478 63 478 44 478 c 0,0,1
188 99 m 0,51,52
 188 251 188 251 215 394.5 c 128,-1,53
 242 538 242 538 281.5 621.5 c 128,-1,54
 321 705 321 705 358 705 c 0,55,56
 374 705 374 705 374 689 c 1,57,58
 329 596 329 596 295 441 c 0,59,60
 232 158 232 158 232 32 c 0,61,62
 232 19 232 19 218 19 c 0,63,64
 188 19 188 19 188 99 c 0,51,52
EndSplineSet
EndChar

StartChar: E
Encoding: 69 69 40
Width: 632
GlyphClass: 2
Flags: W
LayerCount: 2
Fore
SplineSet
477 302 m 0,0,1
 526 302 526 302 541 237 c 0,2,3
 547 213 547 213 547 187 c 0,4,5
 547 126 547 126 516 53 c 0,6,7
 462 -73 462 -73 353 -124 c 0,8,9
 293 -152 293 -152 224 -152 c 0,10,11
 76 -152 76 -152 22 -44 c 0,12,13
 -3 6 -3 6 -3 63 c 128,-1,14
 -3 120 -3 120 18 182 c 0,15,16
 64 318 64 318 182 404 c 0,17,18
 255 456 255 456 343 476 c 1,19,20
 263 505 263 505 263 576 c 128,-1,21
 263 647 263 647 334 710.5 c 128,-1,22
 405 774 405 774 513 774 c 0,23,24
 531 774 531 774 540 760 c 128,-1,25
 549 746 549 746 548 732 c 1,26,-1
 548 719 l 1,27,28
 540 723 540 723 514 723 c 0,29,30
 423 723 423 723 361 659 c 0,31,32
 317 614 317 614 317 570 c 0,33,34
 317 487 317 487 442 487 c 0,35,36
 453 487 453 487 460.5 480.5 c 128,-1,37
 468 474 468 474 473 461 c 1,38,39
 300 461 300 461 183 328 c 0,40,41
 73 204 73 204 73 52 c 0,42,43
 73 -34 73 -34 123 -81 c 0,44,45
 162 -119 162 -119 225 -119 c 0,46,47
 367 -119 367 -119 443 1 c 0,48,49
 493 79 493 79 493 165 c 0,50,51
 493 259 493 259 446 276 c 0,52,53
 438 279 438 279 429 279 c 1,54,55
 442 302 442 302 477 302 c 0,0,1
583 548 m 0,56,57
 583 543 583 543 574 543 c 128,-1,58
 565 543 565 543 556.5 547 c 128,-1,59
 548 551 548 551 548 558 c 0,60,61
 548 660 548 660 571 722.5 c 128,-1,62
 594 785 594 785 632 785 c 0,63,64
 642 785 642 785 649 777.5 c 128,-1,65
 656 770 656 770 656 759 c 1,66,67
 610 713 610 713 591 625 c 0,68,69
 583 588 583 588 583 548 c 0,56,57
EndSplineSet
EndChar

StartChar: F
Encoding: 70 70 41
Width: 680
GlyphClass: 2
Flags: W
LayerCount: 2
Fore
SplineSet
175 512 m 0,0,1
 175 438 175 438 217 433 c 1,2,3
 214 419 214 419 194 419 c 0,4,5
 153 419 153 419 136 469 c 0,6,7
 128 492 128 492 128 525.5 c 128,-1,8
 128 559 128 559 154 606 c 0,9,10
 213 715 213 715 368 746 c 0,11,12
 421 756 421 756 481.5 756 c 128,-1,13
 542 756 542 756 585 768 c 128,-1,14
 628 780 628 780 644 795 c 0,15,16
 686 834 686 834 706 834 c 128,-1,17
 726 834 726 834 726 822 c 0,18,19
 726 819 726 819 726 816 c 0,20,21
 719 788 719 788 666 763 c 0,22,23
 634 749 634 749 594 741 c 1,24,25
 561 727 561 727 539 664.5 c 128,-1,26
 517 602 517 602 493 484 c 1,27,28
 545 489 545 489 579 489 c 0,29,30
 588 489 588 489 587 478 c 1,31,32
 583 466 583 466 566 465.5 c 128,-1,33
 549 465 549 465 487 455 c 1,34,35
 440 223 440 223 405 127 c 0,36,37
 317 -116 317 -116 154 -116 c 0,38,39
 37 -116 37 -116 8 -9 c 0,40,41
 -3 28 -3 28 -3 65 c 0,42,43
 -3 135 -3 135 34 205 c 0,44,45
 90 312 90 312 181 312 c 0,46,47
 194 312 194 312 202.5 306 c 128,-1,48
 211 300 211 300 214 288 c 1,49,50
 128 288 128 288 72 199 c 0,51,52
 28 130 28 130 28 56 c 0,53,54
 28 -52 28 -52 104 -76 c 0,55,56
 122 -81 122 -81 151 -81 c 128,-1,57
 180 -81 180 -81 212.5 -64.5 c 128,-1,58
 245 -48 245 -48 271.5 -4.5 c 128,-1,59
 298 39 298 39 315 68.5 c 128,-1,60
 332 98 332 98 354 174 c 0,61,62
 380 267 380 267 398 346.5 c 128,-1,63
 416 426 416 426 420 442 c 1,64,65
 364 433 364 433 335.5 433 c 128,-1,66
 307 433 307 433 303 458 c 1,67,68
 302 478 302 478 314 481 c 1,69,70
 319 475 319 475 345.5 475 c 128,-1,71
 372 475 372 475 429 480 c 1,72,73
 454 578 454 578 477 639.5 c 128,-1,74
 500 701 500 701 531 733 c 1,75,76
 515 732 515 732 481 732 c 0,77,78
 289 732 289 732 212 619 c 0,79,80
 175 566 175 566 175 512 c 0,0,1
615 307 m 0,81,82
 615 302 615 302 606 302 c 128,-1,83
 597 302 597 302 588.5 306 c 128,-1,84
 580 310 580 310 580 317 c 0,85,86
 580 419 580 419 603 481.5 c 128,-1,87
 626 544 626 544 664 544 c 0,88,89
 674 544 674 544 681 537 c 128,-1,90
 688 530 688 530 688 518 c 1,91,92
 643 473 643 473 623 384 c 0,93,94
 615 347 615 347 615 307 c 0,81,82
EndSplineSet
EndChar

StartChar: G
Encoding: 71 71 42
Width: 755
GlyphClass: 2
Flags: W
LayerCount: 2
Fore
SplineSet
234 444 m 1,0,1
 179 457 179 457 146 490 c 1,2,3
 110 528 110 528 110 579 c 0,4,5
 110 662 110 662 165 706 c 0,6,7
 197 731 197 731 237 731 c 0,8,9
 246 731 246 731 251 725.5 c 128,-1,10
 256 720 256 720 257 709 c 1,11,12
 216 709 216 709 186 677 c 0,13,14
 148 636 148 636 148 585 c 0,15,16
 148 554 148 554 169 518.5 c 128,-1,17
 190 483 190 483 244 470 c 1,18,19
 296 600 296 600 375.5 687 c 128,-1,20
 455 774 455 774 540 774 c 0,21,22
 613 774 613 774 625 714 c 0,23,24
 628 702 628 702 628 690 c 0,25,26
 628 638 628 638 582 576 c 0,27,28
 512 480 512 480 389 449 c 0,29,30
 352 440 352 440 312 438 c 1,31,32
 268 302 268 302 268 182 c 128,-1,33
 268 62 268 62 323 62 c 0,34,35
 361 62 361 62 410 115 c 128,-1,36
 459 168 459 168 502 246 c 0,37,38
 586 400 586 400 619 488 c 1,39,40
 634 525 634 525 648.5 543 c 128,-1,41
 663 561 663 561 684 561 c 128,-1,42
 705 561 705 561 705 538 c 1,43,44
 669 453 669 453 635 253 c 1,45,46
 600 65 600 65 582 10 c 128,-1,47
 564 -45 564 -45 545 -91.5 c 128,-1,48
 526 -138 526 -138 505 -168.5 c 128,-1,49
 484 -199 484 -199 454.5 -231.5 c 128,-1,50
 425 -264 425 -264 392 -283 c 0,51,52
 316 -326 316 -326 222 -326 c 0,53,54
 66 -326 66 -326 7 -222 c 1,55,56
 -21 -175 -21 -175 -21 -132.5 c 128,-1,57
 -21 -90 -21 -90 -11 -56 c 0,58,59
 13 22 13 22 74 49 c 1,60,61
 97 58 97 58 115 58 c 0,62,63
 147 58 147 58 152 38 c 1,64,-1
 153 32 l 1,65,66
 91 32 91 32 56 -36 c 0,67,68
 33 -80 33 -80 33 -117 c 0,69,70
 33 -262 33 -262 156 -295 c 0,71,72
 186 -303 186 -303 221 -303 c 0,73,74
 290 -303 290 -303 344.5 -267 c 128,-1,75
 399 -231 399 -231 431 -189 c 128,-1,76
 463 -147 463 -147 492 -59 c 128,-1,77
 521 29 521 29 531.5 76 c 128,-1,78
 542 123 542 123 552.5 178 c 128,-1,79
 563 233 563 233 564 237 c 128,-1,80
 565 241 565 241 566 246.5 c 128,-1,81
 567 252 567 252 568.5 262.5 c 128,-1,82
 570 273 570 273 576 296 c 1,83,-1
 566 296 l 1,84,85
 506 182 506 182 439 105 c 128,-1,86
 372 28 372 28 314 28 c 128,-1,87
 256 28 256 28 225 65 c 0,88,89
 186 112 186 112 186 213 c 128,-1,90
 186 314 186 314 234 444 c 1,0,1
540 745 m 1,91,92
 477 745 477 745 419.5 665.5 c 128,-1,93
 362 586 362 586 321 465 c 1,94,95
 449 474 449 474 532 568 c 0,96,97
 590 633 590 633 590 693 c 1,98,99
 584 742 584 742 540 745 c 1,91,92
EndSplineSet
EndChar

StartChar: H
Encoding: 72 72 43
Width: 902
GlyphClass: 2
Flags: W
LayerCount: 2
Fore
SplineSet
506 725.5 m 128,-1,1
 567 741 567 741 592 741 c 0,2,3
 625 741 625 741 626 729 c 1,4,-1
 627 725 l 1,5,6
 606 725 606 725 591 708.5 c 128,-1,7
 576 692 576 692 562 643 c 1,8,9
 546 582 546 582 534 513.5 c 128,-1,10
 522 445 522 445 520.5 438 c 128,-1,11
 519 431 519 431 517.5 420.5 c 128,-1,12
 516 410 516 410 514 401 c 1,13,14
 690 416 690 416 748 419 c 1,15,16
 780 585 780 585 828 694.5 c 128,-1,17
 876 804 876 804 919 804 c 0,18,19
 935 804 935 804 935 788 c 1,20,21
 869 643 869 643 833.5 495.5 c 128,-1,22
 798 348 798 348 778.5 208.5 c 128,-1,23
 759 69 759 69 759 -28 c 0,24,25
 759 -42 759 -42 745 -42 c 0,26,27
 710 -42 710 -42 710 38 c 0,28,29
 710 207 710 207 742 394 c 1,30,31
 645 383 645 383 590.5 375.5 c 128,-1,32
 536 368 536 368 508 365 c 1,33,34
 465 129 465 129 412 38 c 0,35,36
 387 -5 387 -5 355 -42 c 0,37,38
 290 -116 290 -116 184 -116 c 0,39,40
 106 -116 106 -116 58.5 -72 c 128,-1,41
 11 -28 11 -28 4 35 c 0,42,43
 2 56 2 56 2 87.5 c 128,-1,44
 2 119 2 119 13.5 171.5 c 128,-1,45
 25 224 25 224 68.5 268 c 128,-1,46
 112 312 112 312 168 312 c 0,47,48
 183 312 183 312 192 303 c 128,-1,49
 201 294 201 294 204 276 c 1,50,51
 113 276 113 276 62 187 c 0,52,53
 28 129 28 129 28 71 c 0,54,55
 28 40 28 40 38 8 c 0,56,57
 66 -81 66 -81 169 -81 c 0,58,59
 269 -81 269 -81 328 24 c 0,60,61
 365 91 365 91 385 158 c 0,62,63
 413 254 413 254 434 356 c 1,64,65
 402 352 402 352 377 352 c 128,-1,66
 352 352 352 352 348 377 c 0,67,68
 344 396 344 396 356 400 c 0,69,70
 357 401 357 401 359 401 c 1,71,72
 363 394 363 394 382.5 394 c 128,-1,73
 402 394 402 394 443 397 c 1,74,75
 462 488 462 488 473 534.5 c 128,-1,76
 484 581 484 581 506 636.5 c 128,-1,77
 528 692 528 692 553 716 c 1,78,79
 461 699 461 699 381 652 c 0,80,81
 340 628 340 628 314 593 c 128,-1,82
 288 558 288 558 288 520 c 0,83,84
 288 494 288 494 308 494 c 1,85,86
 304 480 304 480 286 480 c 128,-1,87
 268 480 268 480 254.5 494 c 128,-1,88
 241 508 241 508 241 533 c 0,89,90
 241 577 241 577 283 618 c 128,-1,91
 325 659 325 659 385 684.5 c 128,-1,0
 445 710 445 710 506 725.5 c 128,-1,1
EndSplineSet
EndChar

StartChar: I
Encoding: 73 73 44
Width: 587
GlyphClass: 2
Flags: W
LayerCount: 2
Fore
SplineSet
589 762 m 0,0,1
 605 762 605 762 608 750 c 2,2,-1
 609 746 l 1,3,4
 580 746 580 746 559.5 709 c 128,-1,5
 539 672 539 672 529 611.5 c 128,-1,6
 519 551 519 551 507 473.5 c 128,-1,7
 495 396 495 396 484.5 315 c 128,-1,8
 474 234 474 234 451 156.5 c 128,-1,9
 428 79 428 79 397.5 18.5 c 128,-1,10
 367 -42 367 -42 313 -79 c 128,-1,11
 259 -116 259 -116 185 -116 c 128,-1,12
 111 -116 111 -116 63.5 -72 c 128,-1,13
 16 -28 16 -28 9 35 c 0,14,15
 7 56 7 56 7 87.5 c 128,-1,16
 7 119 7 119 18.5 171.5 c 128,-1,17
 30 224 30 224 73.5 268 c 128,-1,18
 117 312 117 312 173 312 c 0,19,20
 188 312 188 312 196.5 303 c 128,-1,21
 205 294 205 294 208 276 c 1,22,23
 118 276 118 276 66 187 c 0,24,25
 33 129 33 129 33 71 c 0,26,27
 33 40 33 40 43 8 c 0,28,29
 71 -81 71 -81 174 -81 c 0,30,31
 230 -81 230 -81 272.5 -44.5 c 128,-1,32
 315 -8 315 -8 341 53.5 c 128,-1,33
 367 115 367 115 386 190.5 c 128,-1,34
 405 266 405 266 419 348 c 128,-1,35
 433 430 433 430 446 503 c 0,36,37
 479 677 479 677 527 731 c 1,38,39
 449 704 449 704 385.5 645.5 c 128,-1,40
 322 587 322 587 322 518 c 0,41,42
 322 487 322 487 343 487 c 1,43,44
 341 473 341 473 322.5 473 c 128,-1,45
 304 473 304 473 289.5 488 c 128,-1,46
 275 503 275 503 275 531 c 0,47,48
 275 590 275 590 333.5 645.5 c 128,-1,49
 392 701 392 701 464.5 731.5 c 128,-1,50
 537 762 537 762 589 762 c 0,0,1
EndSplineSet
EndChar

StartChar: J
Encoding: 74 74 45
Width: 732
GlyphClass: 2
Flags: W
LayerCount: 2
Fore
SplineSet
226 -205 m 0,0,1
 301 -205 301 -205 357 -160.5 c 128,-1,2
 413 -116 413 -116 446 -43 c 128,-1,3
 479 30 479 30 503 120 c 128,-1,4
 527 210 527 210 543.5 306.5 c 128,-1,5
 560 403 560 403 576 488 c 0,6,7
 612 685 612 685 673 739 c 1,8,9
 532 717 532 717 458 601 c 0,10,11
 412 530 412 530 412 462 c 0,12,13
 412 379 412 379 463 372 c 0,14,15
 467 371 467 371 471 371 c 1,16,17
 471 364 471 364 465 358 c 0,18,19
 454 347 454 347 435 347 c 0,20,21
 376 347 376 347 360 410 c 0,22,23
 354 431 354 431 354 454 c 0,24,25
 354 509 354 509 387 572 c 0,26,27
 447 687 447 687 574 735 c 0,28,29
 646 762 646 762 731 762 c 0,30,31
 742 762 742 762 748 757 c 128,-1,32
 754 752 754 752 755 742 c 1,33,34
 700 742 700 742 672 620 c 1,35,36
 660 563 660 563 649 490.5 c 128,-1,37
 638 418 638 418 625 337.5 c 128,-1,38
 612 257 612 257 595 176.5 c 128,-1,39
 578 96 578 96 547.5 23.5 c 128,-1,40
 517 -49 517 -49 476.5 -105.5 c 128,-1,41
 436 -162 436 -162 372 -195 c 128,-1,42
 308 -228 308 -228 240 -228 c 128,-1,43
 172 -228 172 -228 129 -211 c 128,-1,44
 86 -194 86 -194 60 -165 c 0,45,46
 3 -100 3 -100 3 -15 c 0,47,48
 3 78 3 78 39 141 c 0,49,50
 112 270 112 270 230 270 c 0,51,52
 251 270 251 270 263.5 259 c 128,-1,53
 276 248 276 248 278 238 c 2,54,-1
 280 227 l 1,55,56
 262 229 262 229 255 229 c 0,57,58
 147 229 147 229 88 120 c 0,59,60
 51 53 51 53 51 -14 c 0,61,62
 51 -55 51 -55 64 -96 c 0,63,64
 101 -205 101 -205 226 -205 c 0,0,1
EndSplineSet
EndChar

StartChar: K
Encoding: 75 75 46
Width: 660
GlyphClass: 2
Flags: W
LayerCount: 2
Fore
SplineSet
723 -177 m 0,0,1
 750 -177 750 -177 763 -158 c 1,2,3
 769 -158 769 -158 769 -163 c 128,-1,4
 769 -168 769 -168 764 -178 c 1,5,6
 742 -208 742 -208 710 -211 c 1,7,8
 660 -211 660 -211 608.5 -157.5 c 128,-1,9
 557 -104 557 -104 516.5 -28 c 128,-1,10
 476 48 476 48 441 124.5 c 128,-1,11
 406 201 406 201 378 254.5 c 128,-1,12
 350 308 350 308 334 308 c 1,13,14
 327 315 327 315 344 338 c 1,15,16
 615 773 615 773 722 773 c 0,17,18
 736 773 736 773 744 760.5 c 128,-1,19
 752 748 752 748 754 724 c 1,20,21
 711 724 711 724 650 666 c 1,22,23
 618 634 618 634 593.5 607.5 c 128,-1,24
 569 581 569 581 528 528 c 0,25,26
 476 461 476 461 398 356 c 1,27,28
 438 329 438 329 548 71 c 0,29,30
 588 -23 588 -23 637 -100 c 128,-1,31
 686 -177 686 -177 723 -177 c 0,0,1
367 740 m 0,32,33
 383 740 383 740 383 724 c 1,34,35
 305 544 305 544 254 221 c 0,36,37
 234 90 234 90 234 32 c 0,38,39
 234 19 234 19 220 19 c 0,40,41
 190 19 190 19 190 99 c 0,42,43
 190 292 190 292 233.5 474 c 128,-1,44
 277 656 277 656 330 717 c 1,45,46
 187 697 187 697 98 616 c 1,47,48
 47 571 47 571 47 518 c 0,49,50
 47 492 47 492 67 492 c 1,51,52
 63 478 63 478 45 478 c 128,-1,53
 27 478 27 478 13.5 492 c 128,-1,54
 0 506 0 506 0 531 c 0,55,56
 0 590 0 590 71.5 640.5 c 128,-1,57
 143 691 143 691 226 715.5 c 128,-1,58
 309 740 309 740 367 740 c 0,32,33
EndSplineSet
EndChar

StartChar: L
Encoding: 76 76 47
Width: 584
GlyphClass: 2
Flags: W
LayerCount: 2
Fore
SplineSet
537 728 m 0,0,1
 492 728 492 728 462.5 667.5 c 128,-1,2
 433 607 433 607 414.5 510.5 c 128,-1,3
 396 414 396 414 376.5 311 c 128,-1,4
 357 208 357 208 318 106.5 c 128,-1,5
 279 5 279 5 223 -50 c 1,6,7
 258 -64 258 -64 327 -92.5 c 128,-1,8
 396 -121 396 -121 437 -137 c 0,9,10
 550 -181 550 -181 606 -181 c 0,11,12
 661 -181 661 -181 690 -146 c 0,13,14
 697 -137 697 -137 701 -126 c 1,15,16
 717 -126 717 -126 717 -150 c 0,17,18
 717 -191 717 -191 679.5 -215.5 c 128,-1,19
 642 -240 642 -240 595 -240 c 128,-1,20
 548 -240 548 -240 489 -221.5 c 128,-1,21
 430 -203 430 -203 394 -187 c 128,-1,22
 358 -171 358 -171 280.5 -130.5 c 128,-1,23
 203 -90 203 -90 184 -81 c 1,24,25
 129 -117 129 -117 50.5 -117 c 128,-1,26
 -28 -117 -28 -117 -52 -73 c 0,27,28
 -59 -61 -59 -61 -59 -46.5 c 128,-1,29
 -59 -32 -59 -32 -40 -14.5 c 128,-1,30
 -21 3 -21 3 27 3 c 128,-1,31
 75 3 75 3 178 -34 c 1,32,33
 258 56 258 56 306 334 c 0,34,35
 324 442 324 442 346 543.5 c 128,-1,36
 368 645 368 645 409.5 709.5 c 128,-1,37
 451 774 451 774 515 774 c 0,38,39
 543 774 543 774 557.5 760 c 128,-1,40
 572 746 572 746 572 732 c 2,41,-1
 573 718 l 1,42,43
 563 728 563 728 537 728 c 0,0,1
597 514 m 0,44,45
 597 510 597 510 588.5 509 c 128,-1,46
 580 508 580 508 571 512 c 128,-1,47
 562 516 562 516 562 523 c 0,48,49
 562 625 562 625 585 687.5 c 128,-1,50
 608 750 608 750 646 750 c 0,51,52
 656 750 656 750 663 743 c 128,-1,53
 670 736 670 736 670 724 c 1,54,55
 624 678 624 678 605 590 c 0,56,57
 597 554 597 554 597 514 c 0,44,45
-31 -52 m 0,58,59
 -31 -70 -31 -70 -5.5 -80.5 c 128,-1,60
 20 -91 20 -91 62 -91 c 128,-1,61
 104 -91 104 -91 146 -62 c 1,62,63
 58 -22 58 -22 8 -22 c 0,64,65
 -23 -22 -23 -22 -30 -44 c 0,66,67
 -31 -48 -31 -48 -31 -52 c 0,58,59
EndSplineSet
EndChar

StartChar: M
Encoding: 77 77 48
Width: 968
GlyphClass: 2
Flags: W
LayerCount: 2
Fore
SplineSet
790 23 m 0,0,1
 790 -113 790 -113 852 -113 c 0,2,3
 892 -113 892 -113 919 -54 c 1,4,5
 925 -44 925 -44 937 -48 c 0,6,7
 942 -50 942 -50 939.5 -56.5 c 128,-1,8
 937 -63 937 -63 932 -72.5 c 128,-1,9
 927 -82 927 -82 914 -102 c 0,10,11
 884 -146 884 -146 845 -146 c 0,12,13
 724 -146 724 -146 724 46 c 0,14,15
 724 262 724 262 877 721 c 0,16,17
 881 733 881 733 872.5 733 c 128,-1,18
 864 733 864 733 854 724 c 0,19,20
 801 674 801 674 745.5 590 c 128,-1,21
 690 506 690 506 648 420 c 0,22,23
 574 271 574 271 539 172 c 1,24,25
 492 33 492 33 456 33 c 0,26,27
 435 33 435 33 435 54 c 0,28,29
 435 55 435 55 436 56 c 0,30,31
 561 509 561 509 561 625 c 0,32,33
 561 677 561 677 538 677 c 0,34,35
 492 677 492 677 393 505.5 c 128,-1,36
 294 334 294 334 244 162 c 0,37,38
 184 -45 184 -45 138 -45 c 0,39,40
 117 -45 117 -45 117 -23 c 1,41,42
 118 -20 118 -20 123 -6 c 128,-1,43
 128 8 128 8 136 35.5 c 128,-1,44
 144 63 144 63 161.5 122.5 c 128,-1,45
 179 182 179 182 191 238 c 0,46,47
 231 424 231 424 231 506 c 0,48,49
 231 550 231 550 225 593.5 c 128,-1,50
 219 637 219 637 195 664 c 128,-1,51
 171 691 171 691 132 691 c 0,52,53
 71 691 71 691 46 640 c 0,54,55
 38 622 38 622 38 609.5 c 128,-1,56
 38 597 38 597 45 597 c 1,57,58
 42 583 42 583 21 583 c 128,-1,59
 0 583 0 583 0 610 c 0,60,61
 0 651 0 651 41.5 683 c 128,-1,62
 83 715 83 715 136 715 c 128,-1,63
 189 715 189 715 220.5 688.5 c 128,-1,64
 252 662 252 662 266 618 c 0,65,66
 289 545 289 545 289 460 c 0,67,68
 289 428 289 428 285 394 c 1,69,-1
 295 394 l 1,70,71
 454 716 454 716 562 716 c 0,72,73
 624 716 624 716 624 610 c 0,74,75
 624 559 624 559 601 431 c 1,76,-1
 610 431 l 1,77,78
 793 776 793 776 910 776 c 0,79,80
 955 776 955 776 955 726 c 1,81,82
 924 649 924 649 886 516 c 0,83,84
 790 187 790 187 790 23 c 0,0,1
EndSplineSet
EndChar

StartChar: N
Encoding: 78 78 49
Width: 693
GlyphClass: 2
Flags: W
LayerCount: 2
Fore
SplineSet
528 26 m 0,0,1
 528 -113 528 -113 590 -113 c 0,2,3
 628 -113 628 -113 658 -54 c 0,4,5
 663 -44 663 -44 675 -48 c 0,6,7
 681 -50 681 -50 678 -56.5 c 128,-1,8
 675 -63 675 -63 670 -72.5 c 128,-1,9
 665 -82 665 -82 652.5 -101.5 c 128,-1,10
 640 -121 640 -121 621.5 -133.5 c 128,-1,11
 603 -146 603 -146 583 -146 c 0,12,13
 462 -146 462 -146 462 45 c 0,14,15
 462 242 462 242 591 658 c 1,16,-1
 607 709 l 2,17,18
 609 717 609 717 602.5 717 c 128,-1,19
 596 717 596 717 590 712 c 0,20,21
 534 663 534 663 470.5 567.5 c 128,-1,22
 407 472 407 472 354 366 c 0,23,24
 256 172 256 172 212 63.5 c 128,-1,25
 168 -45 168 -45 139 -45 c 0,26,27
 118 -45 118 -45 118 -23 c 2,28,-1
 118 -21 l 1,29,30
 130 6 130 6 164 128 c 0,31,32
 224 341 224 341 232 508 c 0,33,34
 233 520 233 520 233 530 c 0,35,36
 233 595 233 595 210 643 c 128,-1,37
 187 691 187 691 129 691 c 128,-1,38
 71 691 71 691 46 638 c 0,39,40
 38 621 38 621 38 609 c 128,-1,41
 38 597 38 597 45 597 c 1,42,43
 43 583 43 583 22 583 c 128,-1,44
 1 583 1 583 1 610 c 0,45,46
 1 651 1 651 42.5 683 c 128,-1,47
 84 715 84 715 145 715 c 0,48,49
 290 715 290 715 290 451 c 0,50,51
 290 394 290 394 280 335 c 1,52,-1
 289 335 l 1,53,54
 521 776 521 776 648 776 c 0,55,56
 693 776 693 776 693 726 c 1,57,58
 662 649 662 649 624 516 c 0,59,60
 528 188 528 188 528 26 c 0,0,1
EndSplineSet
EndChar

StartChar: O
Encoding: 79 79 50
Width: 684
GlyphClass: 2
Flags: W
LayerCount: 2
Fore
SplineSet
564 468 m 0,0,1
 564 651 564 651 481 651 c 1,2,3
 481 658 481 658 488 664 c 0,4,5
 501 675 501 675 520 675 c 0,6,7
 587 675 587 675 608 571 c 0,8,9
 617 529 617 529 617 482 c 0,10,11
 617 393 617 393 586 284 c 0,12,13
 534 97 534 97 429 5 c 0,14,15
 357 -58 357 -58 274 -58 c 0,16,17
 139 -58 139 -58 91 79 c 0,18,19
 68 143 68 143 68 221 c 128,-1,20
 68 299 68 299 90 390 c 0,21,22
 135 571 135 571 237 680 c 0,23,24
 325 774 325 774 426 774 c 0,25,26
 454 774 454 774 469 761.5 c 128,-1,27
 484 749 484 749 484 736 c 1,28,-1
 485 724 l 1,29,30
 475 728 475 728 448 728 c 0,31,32
 340 728 340 728 256.5 590 c 128,-1,33
 173 452 173 452 154 279 c 0,34,35
 149 235 149 235 149 198 c 0,36,37
 149 84 149 84 194 23 c 1,38,39
 230 -24 230 -24 288 -24 c 0,40,41
 409 -24 409 -24 486.5 141.5 c 128,-1,42
 564 307 564 307 564 468 c 0,0,1
EndSplineSet
EndChar

StartChar: P
Encoding: 80 80 51
Width: 651
GlyphClass: 2
Flags: W
LayerCount: 2
Fore
SplineSet
648 682 m 0,0,1
 648 743 648 743 600 743 c 0,2,3
 536 743 536 743 465.5 635.5 c 128,-1,4
 395 528 395 528 346 393.5 c 128,-1,5
 297 259 297 259 264.5 152 c 128,-1,6
 232 45 232 45 232 32 c 128,-1,7
 232 19 232 19 218 19 c 0,8,9
 188 19 188 19 188 99 c 0,10,11
 188 292 188 292 231.5 474 c 128,-1,12
 275 656 275 656 328 717 c 1,13,14
 185 697 185 697 96 616 c 1,15,16
 45 571 45 571 45 518 c 0,17,18
 45 492 45 492 65 492 c 1,19,20
 61 478 61 478 43 478 c 128,-1,21
 25 478 25 478 11.5 492 c 128,-1,22
 -2 506 -2 506 -2 531 c 0,23,24
 -2 590 -2 590 69.5 640.5 c 128,-1,25
 141 691 141 691 224 715.5 c 128,-1,26
 307 740 307 740 365 740 c 0,27,28
 381 740 381 740 381 724 c 1,29,30
 318 578 318 578 263 282 c 1,31,-1
 271 282 l 1,32,33
 330 466 330 466 408 607 c 0,34,35
 450 684 450 684 501 728.5 c 128,-1,36
 552 773 552 773 605 773 c 0,37,38
 713 773 713 773 713 657 c 0,39,40
 713 587 713 587 664 501 c 0,41,42
 602 391 602 391 508 345 c 0,43,44
 458 320 458 320 408 320 c 0,45,46
 396 320 396 320 389.5 327 c 128,-1,47
 383 334 383 334 381 347 c 1,48,49
 475 347 475 347 559 459 c 0,50,51
 628 550 628 550 644 645 c 0,52,53
 648 665 648 665 648 682 c 0,0,1
EndSplineSet
EndChar

StartChar: Q
Encoding: 81 81 52
Width: 682
GlyphClass: 2
Flags: W
LayerCount: 2
Fore
SplineSet
643 -181 m 0,0,1
 716 -181 716 -181 741 -126 c 1,2,3
 756 -126 756 -126 756 -147 c 0,4,5
 756 -189 756 -189 711 -218 c 0,6,7
 677 -240 677 -240 635 -240 c 128,-1,8
 593 -240 593 -240 558 -233 c 128,-1,9
 523 -226 523 -226 473 -204 c 128,-1,10
 423 -182 423 -182 403.5 -173 c 128,-1,11
 384 -164 384 -164 318 -128.5 c 128,-1,12
 252 -93 252 -93 247 -91 c 1,13,14
 177 -117 177 -117 94.5 -117 c 128,-1,15
 12 -117 12 -117 -10 -73 c 0,16,17
 -16 -62 -16 -62 -16 -47.5 c 128,-1,18
 -16 -33 -16 -33 4.5 -15 c 128,-1,19
 25 3 25 3 64 3 c 0,20,21
 137 3 137 3 271 -52 c 1,22,23
 417 18 417 18 495.5 185.5 c 128,-1,24
 574 353 574 353 574 487 c 0,25,26
 574 651 574 651 495 651 c 1,27,28
 495 658 495 658 502 664 c 0,29,30
 515 675 515 675 534 675 c 0,31,32
 627 675 627 675 627 505 c 0,33,34
 627 367 627 367 542.5 191 c 128,-1,35
 458 15 458 15 305 -66 c 1,36,37
 441 -124 441 -124 484 -140 c 0,38,39
 590 -181 590 -181 643 -181 c 0,0,1
393 194 m 128,-1,41
 412 239 412 239 412 269.5 c 128,-1,42
 412 300 412 300 434 309.5 c 128,-1,43
 456 319 456 319 461 304 c 1,44,-1
 462 297 l 1,45,46
 462 256 462 256 434.5 197 c 128,-1,47
 407 138 407 138 353 88.5 c 128,-1,48
 299 39 299 39 240 39 c 0,49,50
 125 39 125 39 92 159 c 0,51,52
 79 203 79 203 79 270.5 c 128,-1,53
 79 338 79 338 112 440 c 0,54,55
 167 607 167 607 271 701 c 1,56,57
 354 774 354 774 443 774 c 0,58,59
 471 774 471 774 485.5 761.5 c 128,-1,60
 500 749 500 749 500 736 c 2,61,-1
 500 724 l 1,62,63
 491 728 491 728 464 728 c 0,64,65
 355 728 355 728 265 586 c 0,66,67
 185 460 185 460 164 304 c 0,68,69
 159 263 159 263 159 228 c 0,70,71
 159 138 159 138 197 97 c 0,72,73
 220 73 220 73 259 73 c 128,-1,74
 298 73 298 73 336 111 c 128,-1,40
 374 149 374 149 393 194 c 128,-1,41
53 -22 m 0,75,76
 22 -22 22 -22 14 -44 c 0,77,78
 12 -49 12 -49 12 -53 c 0,79,80
 12 -70 12 -70 36.5 -80.5 c 128,-1,81
 61 -91 61 -91 109 -91 c 128,-1,82
 157 -91 157 -91 213 -74 c 1,83,84
 107 -22 107 -22 53 -22 c 0,75,76
EndSplineSet
EndChar

StartChar: R
Encoding: 82 82 53
Width: 732
GlyphClass: 2
Flags: W
LayerCount: 2
Fore
SplineSet
649 682 m 0,0,1
 649 743 649 743 600 743 c 0,2,3
 548 743 548 743 490.5 671.5 c 128,-1,4
 433 600 433 600 389 498.5 c 128,-1,5
 345 397 345 397 308.5 291.5 c 128,-1,6
 272 186 272 186 252 113.5 c 128,-1,7
 232 41 232 41 232 32 c 0,8,9
 232 19 232 19 218 19 c 0,10,11
 188 19 188 19 188 99 c 0,12,13
 188 292 188 292 231.5 474 c 128,-1,14
 275 656 275 656 328 717 c 1,15,16
 185 697 185 697 96 616 c 1,17,18
 45 571 45 571 45 518 c 0,19,20
 45 492 45 492 65 492 c 1,21,22
 61 478 61 478 43 478 c 128,-1,23
 25 478 25 478 11.5 492 c 128,-1,24
 -2 506 -2 506 -2 531 c 0,25,26
 -2 590 -2 590 69.5 640.5 c 128,-1,27
 141 691 141 691 224 715.5 c 128,-1,28
 307 740 307 740 365 740 c 0,29,30
 381 740 381 740 381 724 c 1,31,32
 311 562 311 562 262 272 c 1,33,-1
 269 272 l 1,34,35
 313 417 313 417 360 513.5 c 128,-1,36
 407 610 407 610 442 659.5 c 128,-1,37
 477 709 477 709 519.5 741 c 128,-1,38
 562 773 562 773 605 773 c 0,39,40
 693 773 693 773 710 697 c 0,41,42
 714 680 714 680 714 661 c 0,43,44
 714 600 714 600 672 528 c 0,45,46
 612 425 612 425 511 384 c 1,47,-1
 473 372 l 1,48,49
 502 369 502 369 534.5 293.5 c 128,-1,50
 567 218 567 218 592 128.5 c 128,-1,51
 617 39 617 39 652 -35 c 128,-1,52
 687 -109 687 -109 721 -109 c 0,53,54
 748 -109 748 -109 761 -90 c 1,55,56
 768 -90 768 -90 768 -95 c 128,-1,57
 768 -100 768 -100 762 -109 c 0,58,59
 740 -139 740 -139 708 -142 c 1,60,61
 656 -142 656 -142 607.5 -71 c 128,-1,62
 559 0 559 0 529 86.5 c 128,-1,63
 499 173 499 173 465.5 259 c 128,-1,64
 432 345 432 345 409 365 c 1,65,66
 398 365 398 365 391.5 371.5 c 128,-1,67
 385 378 385 378 384 392 c 1,68,69
 490 392 490 392 574 498 c 0,70,71
 649 593 649 593 649 682 c 0,0,1
EndSplineSet
EndChar

StartChar: S
Encoding: 83 83 54
Width: 603
GlyphClass: 2
Flags: W
LayerCount: 2
Fore
SplineSet
49 -41 m 0,0,1
 49 -115 49 -115 127 -130 c 0,2,3
 142 -133 142 -133 161 -133 c 0,4,5
 286 -133 286 -133 359 -52.5 c 128,-1,6
 432 28 432 28 432 150 c 0,7,8
 432 198 432 198 414.5 238.5 c 128,-1,9
 397 279 397 279 371 305.5 c 128,-1,10
 345 332 345 332 314.5 359 c 128,-1,11
 284 386 284 386 258 408 c 128,-1,12
 232 430 232 430 214.5 461 c 128,-1,13
 197 492 197 492 197 527 c 0,14,15
 197 619 197 619 279.5 696.5 c 128,-1,16
 362 774 362 774 457 774 c 0,17,18
 476 774 476 774 485 760 c 128,-1,19
 494 746 494 746 494 732 c 1,20,-1
 493 719 l 1,21,22
 486 723 486 723 458 723 c 0,23,24
 394 723 394 723 334 663 c 128,-1,25
 274 603 274 603 274 524 c 0,26,27
 274 492 274 492 291.5 461.5 c 128,-1,28
 309 431 309 431 335 408 c 128,-1,29
 361 385 361 385 391 356.5 c 128,-1,30
 421 328 421 328 447 300.5 c 128,-1,31
 473 273 473 273 490.5 233.5 c 128,-1,32
 508 194 508 194 508 150 c 0,33,34
 508 29 508 29 408 -65 c 128,-1,35
 308 -159 308 -159 161 -159 c 0,36,37
 37 -159 37 -159 4 -79 c 1,38,39
 -22 -13 -22 -13 24 67 c 128,-1,40
 70 147 70 147 157 175 c 0,41,42
 189 185 189 185 214 185 c 128,-1,43
 239 185 239 185 248.5 176.5 c 128,-1,44
 258 168 258 168 261 150 c 1,45,46
 167 150 167 150 100 74 c 0,47,48
 49 17 49 17 49 -41 c 0,0,1
513 512 m 0,49,50
 513 507 513 507 503.5 507 c 128,-1,51
 494 507 494 507 486 511 c 128,-1,52
 478 515 478 515 478 522 c 0,53,54
 478 624 478 624 501 686 c 128,-1,55
 524 748 524 748 562 748 c 0,56,57
 572 748 572 748 579 741 c 128,-1,58
 586 734 586 734 586 723 c 1,59,60
 541 678 541 678 521 588 c 0,61,62
 513 552 513 552 513 512 c 0,49,50
EndSplineSet
EndChar

StartChar: T
Encoding: 84 84 55
Width: 591
GlyphClass: 2
Flags: W
LayerCount: 2
Fore
SplineSet
167 511 m 0,0,1
 167 440 167 440 209 433 c 1,2,3
 206 419 206 419 186 419 c 0,4,5
 145 419 145 419 128 468 c 0,6,7
 120 491 120 491 120 524 c 128,-1,8
 120 557 120 557 146 604 c 0,9,10
 206 713 206 713 366 745 c 0,11,12
 423 756 423 756 491 756 c 128,-1,13
 559 756 559 756 614.5 772 c 128,-1,14
 670 788 670 788 696.5 808 c 128,-1,15
 723 828 723 828 746.5 844 c 128,-1,16
 770 860 770 860 785.5 860 c 128,-1,17
 801 860 801 860 801 846 c 0,18,19
 801 813 801 813 736 779 c 128,-1,20
 671 745 671 745 567 735 c 1,21,22
 524 712 524 712 500 572 c 0,23,24
 473 411 473 411 455 309 c 128,-1,25
 437 207 437 207 412.5 134.5 c 128,-1,26
 388 62 388 62 357 6.5 c 128,-1,27
 326 -49 326 -49 275.5 -82.5 c 128,-1,28
 225 -116 225 -116 157.5 -116 c 128,-1,29
 90 -116 90 -116 48 -72 c 0,30,31
 2 -24 2 -24 2 58 c 0,32,33
 2 195 2 195 75 268 c 0,34,35
 119 312 119 312 173 312 c 0,36,37
 186 312 186 312 194.5 306 c 128,-1,38
 203 300 203 300 206 288 c 1,39,40
 121 288 121 288 68 200 c 0,41,42
 29 135 29 135 29 65 c 0,43,44
 29 -50 29 -50 108 -75 c 0,45,46
 126 -81 126 -81 147 -81 c 0,47,48
 209 -81 209 -81 255.5 -30 c 128,-1,49
 302 21 302 21 326.5 99 c 128,-1,50
 351 177 351 177 373.5 274.5 c 128,-1,51
 396 372 396 372 411 460 c 128,-1,52
 426 548 426 548 451.5 624.5 c 128,-1,53
 477 701 477 701 510 732 c 1,54,-1
 490 732 l 2,55,56
 285 732 285 732 204 617 c 0,57,58
 167 565 167 565 167 511 c 0,0,1
EndSplineSet
EndChar

StartChar: U
Encoding: 85 85 56
Width: 767
GlyphClass: 2
Flags: W
LayerCount: 2
Fore
SplineSet
611 36 m 0,0,1
 611 -113 611 -113 664 -113 c 0,2,3
 692 -113 692 -113 721 -54 c 0,4,5
 726 -44 726 -44 734 -46.5 c 128,-1,6
 742 -49 742 -49 742 -52.5 c 128,-1,7
 742 -56 742 -56 732 -78 c 128,-1,8
 722 -100 722 -100 700.5 -123 c 128,-1,9
 679 -146 679 -146 657 -146 c 0,10,11
 553 -146 553 -146 553 61 c 0,12,13
 553 169 553 169 572 290 c 1,14,-1
 562 290 l 1,15,16
 409 0 409 0 326 0 c 0,17,18
 225 0 225 0 225 120 c 0,19,20
 225 168 225 168 254.5 265.5 c 128,-1,21
 284 363 284 363 314 467 c 128,-1,22
 344 571 344 571 344 628 c 0,23,24
 344 748 344 748 246 748 c 0,25,26
 155 748 155 748 110 644 c 0,27,28
 80 574 80 574 80 504 c 0,29,30
 80 470 80 470 87 436 c 0,31,32
 109 332 109 332 180 332 c 1,33,34
 173 318 173 318 161 318 c 0,35,36
 71 318 71 318 44 432 c 0,37,38
 35 468 35 468 35 504 c 0,39,40
 35 581 35 581 74 659 c 0,41,42
 132 773 132 773 245 773 c 0,43,44
 332 773 332 773 371.5 724.5 c 128,-1,45
 411 676 411 676 411 598.5 c 128,-1,46
 411 521 411 521 355 335.5 c 128,-1,47
 299 150 299 150 299 92.5 c 128,-1,48
 299 35 299 35 338 35 c 0,49,50
 370 35 370 35 434 133 c 0,51,52
 539 296 539 296 618 486 c 0,53,54
 649 561 649 561 683 561 c 0,55,56
 705 561 705 561 705 538 c 1,57,58
 662 436 662 436 636.5 291.5 c 128,-1,59
 611 147 611 147 611 36 c 0,0,1
EndSplineSet
EndChar

StartChar: V
Encoding: 86 86 57
Width: 628
GlyphClass: 2
Flags: W
LayerCount: 2
Fore
SplineSet
43 640 m 0,0,1
 36 623 36 623 36 610 c 128,-1,2
 36 597 36 597 44 597 c 1,3,4
 42 583 42 583 22 583 c 0,5,6
 -2 583 -2 583 -2 618 c 128,-1,7
 -2 653 -2 653 37 684 c 0,8,9
 77 715 77 715 139.5 715 c 128,-1,10
 202 715 202 715 243.5 668.5 c 128,-1,11
 285 622 285 622 300.5 555 c 128,-1,12
 316 488 316 488 316 401 c 0,13,14
 316 220 316 220 251 -18 c 0,15,16
 247 -30 247 -30 259 -30 c 0,17,18
 268 -30 268 -30 277 -22 c 0,19,20
 382 74 382 74 476 306 c 128,-1,21
 570 538 570 538 570 678 c 0,22,23
 570 740 570 740 543 740 c 1,24,25
 546 754 546 754 558 763.5 c 128,-1,26
 570 773 570 773 586 773 c 0,27,28
 630 773 630 773 630 698 c 0,29,30
 630 590 630 590 563 406.5 c 128,-1,31
 496 223 496 223 397 75 c 128,-1,32
 298 -73 298 -73 222 -73 c 0,33,34
 170 -73 170 -73 170 -23 c 1,35,36
 198 60 198 60 222 204.5 c 128,-1,37
 246 349 246 349 246 451 c 0,38,39
 246 691 246 691 126 691 c 0,40,41
 65 691 65 691 43 640 c 0,0,1
EndSplineSet
EndChar

StartChar: W
Encoding: 87 87 58
Width: 932
GlyphClass: 2
Flags: W
LayerCount: 2
Fore
SplineSet
556 169 m 0,0,1
 556 35 556 35 616 35 c 0,2,3
 662 35 662 35 709.5 116 c 128,-1,4
 757 197 757 197 788 313.5 c 128,-1,5
 819 430 819 430 821 534 c 1,6,7
 772 574 772 574 732 638 c 128,-1,8
 692 702 692 702 692 720.5 c 128,-1,9
 692 739 692 739 709 757.5 c 128,-1,10
 726 776 726 776 745 776 c 0,11,12
 787 776 787 776 818.5 714 c 128,-1,13
 850 652 850 652 853 564 c 1,14,15
 890 532 890 532 917 532 c 128,-1,16
 944 532 944 532 952 549 c 1,17,18
 964 549 964 549 964 534 c 0,19,20
 964 506 964 506 933 497 c 1,21,-1
 915 495 l 1,22,23
 884 495 884 495 853 513 c 1,24,25
 847 399 847 399 814 281 c 128,-1,26
 781 163 781 163 727 81.5 c 128,-1,27
 673 0 673 0 616 0 c 0,28,29
 536 0 536 0 505 78 c 0,30,31
 480 141 480 141 480 229 c 0,32,33
 480 252 480 252 482 276 c 1,34,35
 291 -73 291 -73 177 -73 c 0,36,37
 128 -73 128 -73 128 -28 c 0,38,39
 128 -26 128 -26 128 -23 c 1,40,41
 247 299 247 299 247 520 c 0,42,43
 247 691 247 691 149 691 c 0,44,45
 87 691 87 691 62 638 c 0,46,47
 54 621 54 621 54 609 c 128,-1,48
 54 597 54 597 61 597 c 1,49,50
 59 583 59 583 38 583 c 128,-1,51
 17 583 17 583 17 610 c 0,52,53
 17 651 17 651 58.5 683 c 128,-1,54
 100 715 100 715 161 715 c 0,55,56
 312 715 312 715 312 484 c 0,57,58
 312 398 312 398 292 291.5 c 128,-1,59
 272 185 272 185 258.5 139.5 c 128,-1,60
 245 94 245 94 210 -18 c 0,61,62
 207 -29 207 -29 215 -29 c 1,63,64
 222 -28 222 -28 232 -20 c 0,65,66
 302 41 302 41 370 150 c 1,67,68
 468 311 468 311 514 445 c 1,69,70
 563 597 563 597 608 597 c 0,71,72
 628 597 628 597 628 576 c 1,73,74
 604 500 604 500 568 298 c 0,75,76
 556 227 556 227 556 169 c 0,0,1
752 745 m 1,77,78
 748 743 748 743 748 736 c 128,-1,79
 748 729 748 729 751.5 715 c 128,-1,80
 755 701 755 701 775 665 c 128,-1,81
 795 629 795 629 819 600 c 1,82,83
 812 662 812 662 791.5 703.5 c 128,-1,84
 771 745 771 745 752 745 c 1,77,78
EndSplineSet
EndChar

StartChar: X
Encoding: 88 88 59
Width: 649
GlyphClass: 2
Flags: W
LayerCount: 2
Fore
SplineSet
43 640 m 0,0,1
 36 623 36 623 36 610 c 128,-1,2
 36 597 36 597 44 597 c 1,3,4
 42 583 42 583 22 583 c 0,5,6
 -2 583 -2 583 -2 617 c 128,-1,7
 -2 651 -2 651 38.5 683 c 128,-1,8
 79 715 79 715 146 715 c 0,9,10
 227 715 227 715 285.5 638.5 c 128,-1,11
 344 562 344 562 389 429 c 1,12,13
 534 626 534 626 603.5 700 c 128,-1,14
 673 774 673 774 723 775 c 0,15,16
 741 775 741 775 752 763 c 128,-1,17
 763 751 763 751 764 739 c 2,18,-1
 766 727 l 1,19,20
 691 727 691 727 591 622 c 0,21,22
 507 534 507 534 401 393 c 1,23,24
 419 336 419 336 441.5 253.5 c 128,-1,25
 464 171 464 171 479.5 114.5 c 128,-1,26
 495 58 495 58 514 3 c 0,27,28
 553 -109 553 -109 599 -109 c 0,29,30
 624 -109 624 -109 639 -90 c 1,31,32
 648 -90 648 -90 643 -107 c 0,33,34
 634 -139 634 -139 584 -142 c 1,35,36
 518 -142 518 -142 469 -56 c 0,37,38
 414 41 414 41 354 272 c 0,39,40
 347 300 347 300 343 314 c 1,41,42
 226 154 226 154 188 112 c 128,-1,43
 150 70 150 70 124 44 c 1,44,45
 75 -2 75 -2 38 -2 c 0,46,47
 17 -2 17 -2 5 10 c 128,-1,48
 -7 22 -7 22 -8 34 c 2,49,-1
 -10 46 l 1,50,51
 58 46 58 46 141 126.5 c 128,-1,52
 224 207 224 207 332 352 c 1,53,54
 261 606 261 606 192 665 c 0,55,56
 162 691 162 691 126 691 c 0,57,58
 65 691 65 691 43 640 c 0,0,1
EndSplineSet
EndChar

StartChar: Y
Encoding: 89 89 60
Width: 747
GlyphClass: 2
Flags: W
LayerCount: 2
Fore
SplineSet
221 -303 m 0,0,1
 290 -303 290 -303 344.5 -267 c 128,-1,2
 399 -231 399 -231 431 -189 c 128,-1,3
 463 -147 463 -147 492 -59 c 128,-1,4
 521 29 521 29 531.5 76 c 128,-1,5
 542 123 542 123 552.5 178 c 128,-1,6
 563 233 563 233 564 237 c 128,-1,7
 565 241 565 241 566 246.5 c 128,-1,8
 567 252 567 252 569 263 c 128,-1,9
 571 274 571 274 577 304 c 1,10,-1
 570 304 l 1,11,12
 430 32 430 32 344 32 c 0,13,14
 244 32 244 32 244 152 c 0,15,16
 244 206 244 206 294 380.5 c 128,-1,17
 344 555 344 555 344 634 c 0,18,19
 344 685 344 685 320.5 716.5 c 128,-1,20
 297 748 297 748 246 748 c 0,21,22
 155 748 155 748 110 644 c 0,23,24
 80 574 80 574 80 504 c 0,25,26
 80 470 80 470 87 436 c 0,27,28
 109 332 109 332 180 332 c 1,29,30
 173 318 173 318 161 318 c 0,31,32
 71 318 71 318 44 432 c 0,33,34
 35 468 35 468 35 504 c 0,35,36
 35 581 35 581 74 659 c 0,37,38
 132 773 132 773 245 773 c 0,39,40
 332 773 332 773 371.5 724.5 c 128,-1,41
 411 676 411 676 411 598.5 c 128,-1,42
 411 521 411 521 364.5 351.5 c 128,-1,43
 318 182 318 182 318 124.5 c 128,-1,44
 318 67 318 67 357 67 c 0,45,46
 390 67 390 67 450 162 c 1,47,48
 548 313 548 313 620 491 c 0,49,50
 648 561 648 561 683 561 c 0,51,52
 705 561 705 561 705 538 c 1,53,54
 670 453 670 453 635 253 c 0,55,56
 594 19 594 19 550 -82 c 0,57,58
 531 -126 531 -126 499 -176.5 c 128,-1,59
 467 -227 467 -227 429.5 -256.5 c 128,-1,60
 392 -286 392 -286 338.5 -306 c 128,-1,61
 285 -326 285 -326 222 -326 c 0,62,63
 69 -326 69 -326 7 -222 c 0,64,65
 -22 -172 -22 -172 -22 -115 c 0,66,67
 -22 -84 -22 -84 -13 -51 c 0,68,69
 10 33 10 33 74 64 c 0,70,71
 101 77 101 77 122 77 c 0,72,73
 155 77 155 77 161 58 c 2,74,-1
 163 51 l 1,75,76
 94 51 94 51 55 -21 c 0,77,78
 30 -68 30 -68 30 -107 c 0,79,80
 30 -256 30 -256 150 -293 c 0,81,82
 182 -303 182 -303 221 -303 c 0,0,1
EndSplineSet
EndChar

StartChar: Z
Encoding: 90 90 61
Width: 668
GlyphClass: 2
Flags: W
LayerCount: 2
Fore
SplineSet
494 749.5 m 128,-1,1
 582 726 582 726 608.5 726 c 128,-1,2
 635 726 635 726 665 750 c 128,-1,3
 695 774 695 774 718 774 c 0,4,5
 727 774 727 774 732.5 764 c 128,-1,6
 738 754 738 754 737 745.5 c 128,-1,7
 736 737 736 737 736 736 c 1,8,9
 704 736 704 736 661 659 c 0,10,11
 629 603 629 603 583.5 506.5 c 128,-1,12
 538 410 538 410 519 371 c 1,13,14
 571 373 571 373 589 373 c 0,15,16
 599 373 599 373 597.5 361 c 128,-1,17
 596 349 596 349 582.5 349 c 128,-1,18
 569 349 569 349 558.5 348 c 128,-1,19
 548 347 548 347 531.5 346 c 128,-1,20
 515 345 515 345 505 344 c 1,21,22
 378 93 378 93 257 3 c 1,23,24
 288 -11 288 -11 389.5 -61 c 128,-1,25
 491 -111 491 -111 548 -132.5 c 128,-1,26
 605 -154 605 -154 636 -154 c 128,-1,27
 667 -154 667 -154 685 -148.5 c 128,-1,28
 703 -143 703 -143 713 -135 c 0,29,30
 733 -119 733 -119 740 -100 c 1,31,32
 756 -100 756 -100 756 -125 c 0,33,34
 756 -167 756 -167 719 -192.5 c 128,-1,35
 682 -218 682 -218 634 -218 c 128,-1,36
 586 -218 586 -218 526 -196 c 128,-1,37
 466 -174 466 -174 427.5 -153 c 128,-1,38
 389 -132 389 -132 312.5 -85 c 128,-1,39
 236 -38 236 -38 214 -25 c 1,40,41
 153 -57 153 -57 95 -57 c 0,42,43
 11 -57 11 -57 -13 -13 c 0,44,45
 -20 -1 -20 -1 -20 13.5 c 128,-1,46
 -20 28 -20 28 -1 45.5 c 128,-1,47
 18 63 18 63 66.5 63 c 128,-1,48
 115 63 115 63 214 21 c 1,49,50
 305 98 305 98 425 334 c 1,51,52
 377 328 377 328 340.5 328 c 128,-1,53
 304 328 304 328 300 352 c 1,54,55
 301 367 301 367 312 370 c 1,56,57
 317 364 317 364 352 364 c 128,-1,58
 387 364 387 364 442 367 c 1,59,60
 457 396 457 396 487 456.5 c 128,-1,61
 517 517 517 517 534 550 c 0,62,63
 578 639 578 639 616 693 c 1,64,65
 594 688 594 688 568.5 688 c 128,-1,66
 543 688 543 688 454 712 c 128,-1,67
 365 736 365 736 320 736 c 0,68,69
 206 736 206 736 159 642 c 0,70,71
 135 595 135 595 135 556.5 c 128,-1,72
 135 518 135 518 142 490 c 0,73,74
 160 422 160 422 207 411 c 1,75,-1
 223 409 l 1,76,77
 218 386 218 386 190 386 c 0,78,79
 131 386 131 386 105 454 c 0,80,81
 93 488 93 488 93 528 c 128,-1,82
 93 568 93 568 111 616 c 0,83,84
 151 720 151 720 254 756 c 0,85,86
 301 773 301 773 353.5 773 c 128,-1,0
 406 773 406 773 494 749.5 c 128,-1,1
8 9 m 0,87,88
 8 -9 8 -9 33 -19.5 c 128,-1,89
 58 -30 58 -30 96 -30 c 128,-1,90
 134 -30 134 -30 178 -4 c 1,91,92
 92 38 92 38 54.5 38 c 128,-1,93
 17 38 17 38 9 17 c 0,94,95
 8 13 8 13 8 9 c 0,87,88
EndSplineSet
EndChar

StartChar: bracketleft
Encoding: 91 91 62
Width: 261
GlyphClass: 2
Flags: W
LayerCount: 2
Fore
SplineSet
90 -75 m 2,0,1
 119 -75 119 -75 138.5 -81 c 128,-1,2
 158 -87 158 -87 162 -93 c 2,3,-1
 167 -99 l 1,4,-1
 4 -99 l 1,5,6
 14 -25 14 -25 50 324 c 128,-1,7
 86 673 86 673 93 752 c 1,8,-1
 258 752 l 1,9,10
 257 749 257 749 254 745 c 128,-1,11
 251 741 251 741 232.5 734.5 c 128,-1,12
 214 728 214 728 185 728 c 2,13,-1
 141 728 l 1,14,15
 72 111 72 111 50 -75 c 1,16,-1
 90 -75 l 2,0,1
EndSplineSet
EndChar

StartChar: backslash
Encoding: 92 92 63
Width: 471
GlyphClass: 2
Flags: W
LayerCount: 2
Fore
SplineSet
206.5 335 m 128,-1,1
 273 12 273 12 283 -32.5 c 128,-1,2
 293 -77 293 -77 293 -96.5 c 128,-1,3
 293 -116 293 -116 280 -116 c 0,4,5
 271 -116 271 -116 267 -97 c 0,6,7
 249 -14 249 -14 173 299 c 128,-1,8
 97 612 97 612 89.5 643.5 c 128,-1,9
 82 675 82 675 82 696 c 0,10,11
 82 734 82 734 108 734 c 0,12,13
 113 734 113 734 119.5 727.5 c 128,-1,14
 126 721 126 721 133 689.5 c 128,-1,0
 140 658 140 658 206.5 335 c 128,-1,1
EndSplineSet
EndChar

StartChar: bracketright
Encoding: 93 93 64
Width: 325
GlyphClass: 2
Flags: W
LayerCount: 2
Fore
SplineSet
186 728 m 2,0,1
 157 728 157 728 137.5 734 c 128,-1,2
 118 740 118 740 114 746 c 2,3,-1
 109 752 l 1,4,-1
 272 752 l 1,5,6
 263 682 263 682 227 340.5 c 128,-1,7
 191 -1 191 -1 182 -99 c 1,8,-1
 18 -99 l 1,9,10
 19 -96 19 -96 22 -92 c 128,-1,11
 25 -88 25 -88 43.5 -81.5 c 128,-1,12
 62 -75 62 -75 91 -75 c 2,13,-1
 135 -75 l 1,14,15
 163 170 163 170 226 728 c 1,16,-1
 186 728 l 2,0,1
EndSplineSet
EndChar

StartChar: asciicircum
Encoding: 94 94 65
Width: 458
GlyphClass: 2
Flags: W
LayerCount: 2
Fore
SplineSet
457 446 m 1,0,-1
 423 446 l 1,1,-1
 272 587 l 1,2,-1
 37 446 l 1,3,-1
 2 446 l 1,4,-1
 239 615 l 1,5,-1
 288 615 l 1,6,-1
 457 446 l 1,0,-1
EndSplineSet
EndChar

StartChar: underscore
Encoding: 95 95 66
Width: 613
GlyphClass: 2
Flags: W
LayerCount: 2
Fore
SplineSet
465 -68 m 1,0,-1
 16 -69 l 2,1,2
 5 -69 5 -69 5 -61 c 0,3,4
 5 -37 5 -37 51 -32 c 1,5,-1
 493 -40 l 2,6,7
 503 -40 503 -40 502 -50 c 1,8,9
 494 -66 494 -66 465 -68 c 1,0,-1
EndSplineSet
EndChar

StartChar: grave
Encoding: 96 96 67
Width: 425
GlyphClass: 2
Flags: W
LayerCount: 2
Fore
SplineSet
232 684 m 0,0,1
 269 650 269 650 303 609 c 128,-1,2
 337 568 337 568 337 558.5 c 128,-1,3
 337 549 337 549 325.5 549 c 128,-1,4
 314 549 314 549 279 574.5 c 128,-1,5
 244 600 244 600 205 638 c 0,6,7
 190 652 190 652 190 662.5 c 128,-1,8
 190 673 190 673 196 683.5 c 128,-1,9
 202 694 202 694 212 694 c 128,-1,10
 222 694 222 694 232 684 c 0,0,1
EndSplineSet
EndChar

StartChar: a
Encoding: 97 97 68
Width: 478
GlyphClass: 2
Flags: W
LayerCount: 2
Fore
SplineSet
84 0 m 0,0,1
 2 0 2 0 2 129 c 0,2,3
 2 206 2 206 40 298 c 0,4,5
 93 427 93 427 179 474 c 0,6,7
 216 494 216 494 248 494 c 128,-1,8
 280 494 280 494 298.5 480 c 128,-1,9
 317 466 317 466 322 452 c 1,10,-1
 328 439 l 1,11,12
 325 422 325 422 311 422 c 0,13,14
 295 422 295 422 292.5 429.5 c 128,-1,15
 290 437 290 437 287 442.5 c 128,-1,16
 284 448 284 448 273 457.5 c 128,-1,17
 262 467 262 467 248 467 c 0,18,19
 183 467 183 467 130 350 c 0,20,21
 70 215 70 215 70 96 c 0,22,23
 70 36 70 36 94 36 c 0,24,25
 113 36 113 36 147.5 78.5 c 128,-1,26
 182 121 182 121 220 185 c 0,27,28
 286 295 286 295 327 376 c 1,29,30
 361 448 361 448 397 448 c 0,31,32
 416 448 416 448 416 425 c 1,33,34
 407 406 407 406 393 371 c 128,-1,35
 379 336 379 336 356 232 c 128,-1,36
 333 128 333 128 333 25 c 128,-1,37
 333 -78 333 -78 364 -78 c 0,38,39
 376 -78 376 -78 386 -67.5 c 128,-1,40
 396 -57 396 -57 404 -36 c 1,41,42
 407 -25 407 -25 418 -25 c 0,43,44
 422 -25 422 -25 424 -28 c 128,-1,45
 426 -31 426 -31 424 -38 c 128,-1,46
 422 -45 422 -45 417 -57.5 c 128,-1,47
 412 -70 412 -70 395.5 -91 c 128,-1,48
 379 -112 379 -112 361 -112 c 0,49,50
 319 -112 319 -112 296.5 -57 c 128,-1,51
 274 -2 274 -2 274 73 c 128,-1,52
 274 148 274 148 285 217 c 1,53,-1
 275 217 l 1,54,55
 148 0 148 0 84 0 c 0,0,1
EndSplineSet
EndChar

StartChar: b
Encoding: 98 98 69
Width: 501
GlyphClass: 2
Flags: W
LayerCount: 2
Fore
SplineSet
191 92 m 0,0,1
 191 32 191 32 223 32 c 0,2,3
 264 32 264 32 313 142 c 0,4,5
 370 268 370 268 370 378 c 0,6,7
 370 453 370 453 331 453 c 128,-1,8
 292 453 292 453 243.5 389.5 c 128,-1,9
 195 326 195 326 159 247 c 128,-1,10
 123 168 123 168 97.5 104.5 c 128,-1,11
 72 41 72 41 72 34 c 0,12,13
 72 19 72 19 57 19 c 0,14,15
 27 19 27 19 27 99 c 0,16,17
 27 258 27 258 59 418.5 c 128,-1,18
 91 579 91 579 135 675.5 c 128,-1,19
 179 772 179 772 217 772 c 0,20,21
 233 772 233 772 233 756 c 1,22,23
 180 639 180 639 141.5 475 c 128,-1,24
 103 311 103 311 84 164 c 1,25,-1
 91 164 l 1,26,27
 137 281 137 281 196 374 c 0,28,29
 229 426 229 426 266.5 456.5 c 128,-1,30
 304 487 304 487 339 487 c 0,31,32
 410 487 410 487 427 395 c 0,33,34
 433 368 433 368 433 338 c 0,35,36
 433 264 433 264 401 177 c 0,37,38
 356 53 356 53 283 14 c 0,39,40
 258 0 258 0 231 0 c 0,41,42
 163 0 163 0 163 90 c 0,43,44
 163 138 163 138 189.5 200.5 c 128,-1,45
 216 263 216 263 259 293 c 1,46,47
 268 298 268 298 274 289 c 1,48,49
 275 284 275 284 273 282 c 0,50,51
 235 252 235 252 213 194 c 128,-1,52
 191 136 191 136 191 92 c 0,0,1
EndSplineSet
EndChar

StartChar: c
Encoding: 99 99 70
Width: 388
GlyphClass: 2
Flags: W
LayerCount: 2
Fore
SplineSet
282 92 m 128,-1,1
 295 92 295 92 295 86 c 2,2,-1
 295 83 l 1,3,4
 291 72 291 72 273 47.5 c 128,-1,5
 255 23 255 23 238.5 8 c 128,-1,6
 222 -7 222 -7 196 -19.5 c 128,-1,7
 170 -32 170 -32 143 -32 c 0,8,9
 38 -32 38 -32 9 69 c 0,10,11
 -17 163 -17 163 30 283 c 128,-1,12
 77 403 77 403 161 455 c 0,13,14
 205 482 205 482 245 482 c 128,-1,15
 285 482 285 482 303 459 c 1,16,17
 330 546 330 546 372 546 c 0,18,19
 388 546 388 546 388 529 c 1,20,21
 380 517 380 517 367.5 497.5 c 128,-1,22
 355 478 355 478 334 428 c 128,-1,23
 313 378 313 378 313 340 c 0,24,25
 313 327 313 327 302 327 c 0,26,27
 289 327 289 327 287 350 c 1,28,29
 287 389 287 389 294 423 c 1,30,31
 288 454 288 454 250 454 c 0,32,33
 178 454 178 454 123.5 345 c 128,-1,34
 69 236 69 236 69 132 c 0,35,36
 69 2 69 2 151 2 c 0,37,38
 183 2 183 2 211.5 22 c 128,-1,39
 240 42 240 42 252 62 c 2,40,-1
 265 83 l 1,41,0
 269 92 269 92 282 92 c 128,-1,1
EndSplineSet
EndChar

StartChar: d
Encoding: 100 100 71
Width: 487
GlyphClass: 2
Flags: W
LayerCount: 2
Fore
SplineSet
84 0 m 0,0,1
 0 0 0 0 0 129 c 0,2,3
 0 204 0 204 38 294 c 0,4,5
 90 420 90 420 175 465 c 0,6,7
 212 485 212 485 242 485 c 128,-1,8
 272 485 272 485 288 474.5 c 128,-1,9
 304 464 304 464 309 453 c 2,10,-1
 314 442 l 1,11,12
 311 425 311 425 296 425 c 128,-1,13
 281 425 281 425 274.5 441.5 c 128,-1,14
 268 458 268 458 244 458 c 0,15,16
 179 458 179 458 128 343 c 1,17,18
 69 213 69 213 69 97 c 0,19,20
 69 36 69 36 94 36 c 0,21,22
 114 36 114 36 152.5 85.5 c 128,-1,23
 191 135 191 135 232 206 c 0,24,25
 288 304 288 304 331 385 c 1,26,27
 367 541 367 541 418.5 657.5 c 128,-1,28
 470 774 470 774 504 774 c 0,29,30
 521 774 521 774 521 757 c 1,31,32
 497 705 497 705 464.5 615 c 128,-1,33
 432 525 432 525 409.5 443.5 c 128,-1,34
 387 362 387 362 368.5 249 c 128,-1,35
 350 136 350 136 350 36 c 0,36,37
 350 -113 350 -113 415 -113 c 0,38,39
 440 -113 440 -113 461.5 -91.5 c 128,-1,40
 483 -70 483 -70 492 -49 c 0,41,42
 497 -38 497 -38 510 -43 c 0,43,44
 515 -45 515 -45 514 -49 c 0,45,46
 508 -62 508 -62 499 -79 c 128,-1,47
 490 -96 490 -96 463.5 -121 c 128,-1,48
 437 -146 437 -146 410 -146 c 0,49,50
 291 -146 291 -146 291 78 c 0,51,52
 291 157 291 157 305 247 c 1,53,-1
 292 247 l 1,54,55
 151 0 151 0 84 0 c 0,0,1
EndSplineSet
EndChar

StartChar: e
Encoding: 101 101 72
Width: 389
GlyphClass: 2
Flags: W
LayerCount: 2
Fore
SplineSet
261 485 m 0,0,1
 337 485 337 485 337 396 c 0,2,3
 337 345 337 345 303 289 c 0,4,5
 245 196 245 196 149 196 c 0,6,7
 134 196 134 196 124 201 c 128,-1,8
 114 206 114 206 109 216 c 1,9,10
 180 216 180 216 239 298 c 0,11,12
 287 364 287 364 287 419 c 0,13,14
 287 460 287 460 254 460 c 0,15,16
 188 460 188 460 131 357 c 0,17,18
 70 245 70 245 70 127 c 0,19,20
 70 27 70 27 127 7 c 0,21,22
 138 3 138 3 155 3 c 128,-1,23
 172 3 172 3 191 11.5 c 128,-1,24
 210 20 210 20 223 32 c 0,25,26
 249 56 249 56 266 85 c 0,27,28
 270 93 270 93 281 93 c 0,29,30
 299 93 299 93 298 87 c 0,31,32
 295 76 295 76 275.5 50 c 128,-1,33
 256 24 256 24 239.5 8.5 c 128,-1,34
 223 -7 223 -7 196.5 -19.5 c 128,-1,35
 170 -32 170 -32 143 -32 c 0,36,37
 37 -32 37 -32 8 68 c 0,38,39
 -1 102 -1 102 -1 138 c 0,40,41
 -1 205 -1 205 30 284 c 1,42,43
 79 404 79 404 165 457 c 0,44,45
 212 485 212 485 261 485 c 0,0,1
EndSplineSet
EndChar

StartChar: f
Encoding: 102 102 73
Width: 310
GlyphClass: 2
Flags: W
LayerCount: 2
Fore
SplineSet
-42 -313 m 0,0,1
 -93 -313 -93 -313 -93 -252 c 0,2,3
 -93 -209 -93 -209 -66 -134 c 128,-1,4
 -39 -59 -39 -59 -12 -4 c 0,5,6
 37 92 37 92 58 128 c 1,7,8
 81 343 81 343 99 436 c 1,9,10
 75 433 75 433 51 433 c 128,-1,11
 27 433 27 433 22 458 c 1,12,13
 22 478 22 478 34 481 c 1,14,15
 38 475 38 475 63 475 c 128,-1,16
 88 475 88 475 108 477 c 1,17,18
 173 776 173 776 330 776 c 0,19,20
 350 776 350 776 349 761 c 0,21,22
 348 751 348 751 342 751 c 0,23,24
 274 751 274 751 233 680 c 128,-1,25
 192 609 192 609 167 481 c 1,26,27
 286 490 286 490 312 490 c 0,28,29
 321 490 321 490 319.5 478 c 128,-1,30
 318 466 318 466 299 466 c 128,-1,31
 280 466 280 466 160 446 c 1,32,33
 147 372 147 372 132.5 231 c 128,-1,34
 118 90 118 90 109 16 c 128,-1,35
 100 -58 100 -58 88 -114 c 128,-1,36
 76 -170 76 -170 59 -217 c 0,37,38
 24 -313 24 -313 -42 -313 c 0,0,1
-41 -284 m 0,39,40
 -10 -284 -10 -284 6 -232 c 0,41,42
 24 -175 24 -175 32 -113 c 0,43,44
 44 -20 44 -20 53 78 c 1,45,46
 -22 -81 -22 -81 -38 -132 c 0,47,48
 -65 -218 -65 -218 -65 -251 c 128,-1,49
 -65 -284 -65 -284 -41 -284 c 0,39,40
360 615 m 0,50,51
 348 615 348 615 347 635 c 1,52,53
 347 698 347 698 368.5 751 c 128,-1,54
 390 804 390 804 422 804 c 0,55,56
 434 804 434 804 434 789 c 1,57,58
 427 778 427 778 421 769 c 128,-1,59
 415 760 415 760 408.5 748 c 128,-1,60
 402 736 402 736 395 721 c 128,-1,61
 388 706 388 706 382 691 c 0,62,63
 369 658 369 658 369 627 c 0,64,65
 369 615 369 615 360 615 c 0,50,51
EndSplineSet
EndChar

StartChar: g
Encoding: 103 103 74
Width: 462
GlyphClass: 2
Flags: W
LayerCount: 2
Fore
SplineSet
84 0 m 0,0,1
 2 0 2 0 2 129 c 0,2,3
 2 206 2 206 40 298 c 0,4,5
 93 427 93 427 179 474 c 0,6,7
 216 494 216 494 248 494 c 128,-1,8
 280 494 280 494 298.5 480 c 128,-1,9
 317 466 317 466 322 452 c 1,10,-1
 328 439 l 1,11,12
 325 422 325 422 311 422 c 0,13,14
 295 422 295 422 292.5 429.5 c 128,-1,15
 290 437 290 437 287 442.5 c 128,-1,16
 284 448 284 448 273 457.5 c 128,-1,17
 262 467 262 467 248 467 c 0,18,19
 183 467 183 467 130 350 c 0,20,21
 70 215 70 215 70 96 c 0,22,23
 70 36 70 36 94 36 c 0,24,25
 127 36 127 36 200.5 151.5 c 128,-1,26
 274 267 274 267 333 388 c 0,27,28
 363 449 363 449 396 449 c 0,29,30
 417 449 417 449 417 425 c 1,31,32
 413 418 413 418 405 402 c 128,-1,33
 397 386 397 386 376 310.5 c 128,-1,34
 355 235 355 235 338 137.5 c 128,-1,35
 321 40 321 40 309 -15 c 1,36,37
 385 -28 385 -28 397 -81 c 0,38,39
 399 -90 399 -90 399 -105.5 c 128,-1,40
 399 -121 399 -121 387 -132.5 c 128,-1,41
 375 -144 375 -144 366 -144 c 1,42,43
 368 -137 368 -137 367 -119.5 c 128,-1,44
 366 -102 366 -102 360.5 -90 c 128,-1,45
 355 -78 355 -78 340 -65 c 128,-1,46
 325 -52 325 -52 301 -46 c 1,47,48
 270 -168 270 -168 212 -247 c 0,49,50
 146 -336 146 -336 34 -336 c 0,51,52
 -48 -336 -48 -336 -75 -278 c 0,53,54
 -76 -275 -76 -275 -76 -273 c 0,55,56
 -76 -267 -76 -267 -65 -264.5 c 128,-1,57
 -54 -262 -54 -262 -50 -272 c 0,58,59
 -32 -313 -32 -313 34 -313 c 0,60,61
 124 -313 124 -313 174 -228 c 0,62,63
 219 -153 219 -153 243 -41 c 1,64,65
 63 -45 63 -45 -35 -179 c 0,66,67
 -41 -188 -41 -188 -54 -182 c 0,68,69
 -61 -178 -61 -178 -58 -172 c 0,70,71
 -15 -107 -15 -107 62 -61.5 c 128,-1,72
 139 -16 139 -16 249 -12 c 1,73,74
 260 38 260 38 268.5 93.5 c 128,-1,75
 277 149 277 149 283 181 c 128,-1,76
 289 213 289 213 291 227 c 1,77,-1
 280 227 l 1,78,79
 148 0 148 0 84 0 c 0,0,1
EndSplineSet
EndChar

StartChar: h
Encoding: 104 104 75
Width: 456
GlyphClass: 2
Flags: W
LayerCount: 2
Fore
SplineSet
100.5 120 m 128,-1,1
 71 46 71 46 71 32.5 c 128,-1,2
 71 19 71 19 57 19 c 0,3,4
 27 19 27 19 27 99 c 0,5,6
 27 258 27 258 59 418.5 c 128,-1,7
 91 579 91 579 135 675.5 c 128,-1,8
 179 772 179 772 217 772 c 0,9,10
 233 772 233 772 233 756 c 1,11,12
 180 639 180 639 144.5 489 c 128,-1,13
 109 339 109 339 85 169 c 1,14,-1
 92 169 l 1,15,16
 219 481 219 481 341 481 c 0,17,18
 392 481 392 481 392 432 c 1,19,20
 385 409 385 409 374 371.5 c 128,-1,21
 363 334 363 334 345 237 c 128,-1,22
 327 140 327 140 327 67 c 0,23,24
 327 -39 327 -39 358 -39 c 0,25,26
 369 -39 369 -39 380 -29.5 c 128,-1,27
 391 -20 391 -20 395 -20 c 0,28,29
 409 -20 409 -20 394 -42 c 0,30,31
 390 -49 390 -49 376.5 -61 c 128,-1,32
 363 -73 363 -73 350 -73 c 0,33,34
 311 -73 311 -73 289.5 -18.5 c 128,-1,35
 268 36 268 36 268 123 c 0,36,37
 268 270 268 270 312 426 c 1,38,39
 314 441 314 441 300 439 c 0,40,41
 293 438 293 438 286 431 c 0,42,43
 236 386 236 386 183 290 c 128,-1,0
 130 194 130 194 100.5 120 c 128,-1,1
EndSplineSet
EndChar

StartChar: i
Encoding: 105 105 76
Width: 218
GlyphClass: 2
Flags: W
LayerCount: 2
Fore
SplineSet
26 85 m 0,0,1
 26 233 26 233 56.5 349 c 128,-1,2
 87 465 87 465 134 465 c 0,3,4
 157 465 157 465 157 440 c 1,5,6
 147 414 147 414 132 371 c 128,-1,7
 117 328 117 328 92.5 215.5 c 128,-1,8
 68 103 68 103 68 15 c 0,9,10
 68 1 68 1 53 1 c 0,11,12
 26 1 26 1 26 85 c 0,0,1
160 559 m 1,13,14
 139 559 139 559 139 599 c 0,15,16
 139 623 139 623 152 649.5 c 128,-1,17
 165 676 165 676 189 676 c 0,18,19
 209 676 209 676 209 653 c 256,20,21
 209 630 209 630 172 576 c 2,22,-1
 160 559 l 1,13,14
EndSplineSet
EndChar

StartChar: j
Encoding: 106 106 77
Width: 251
GlyphClass: 2
Flags: W
LayerCount: 2
Fore
SplineSet
-42 -313 m 0,0,1
 -93 -313 -93 -313 -93 -252 c 0,2,3
 -93 -209 -93 -209 -63.5 -129 c 128,-1,4
 -34 -49 -34 -49 -6 7 c 1,5,6
 31 78 31 78 61 132 c 1,7,8
 84 379 84 379 126 439 c 0,9,10
 145 465 145 465 170 465 c 0,11,12
 193 465 193 465 193 440 c 1,13,14
 143 320 143 320 125 159 c 0,15,16
 99 -76 99 -76 77 -160 c 0,17,18
 36 -313 36 -313 -42 -313 c 0,0,1
-41 -284 m 0,19,20
 0 -284 0 -284 21 -178 c 0,21,22
 39 -86 39 -86 46.5 -6 c 128,-1,23
 54 74 54 74 55 82 c 1,24,25
 -21 -80 -21 -80 -38 -131 c 0,26,27
 -65 -216 -65 -216 -65 -250 c 128,-1,28
 -65 -284 -65 -284 -41 -284 c 0,19,20
197 559 m 1,29,30
 176 559 176 559 176 599 c 0,31,32
 176 623 176 623 188.5 649.5 c 128,-1,33
 201 676 201 676 225 676 c 0,34,35
 246 676 246 676 246 653 c 0,36,37
 246 641 246 641 234 617.5 c 128,-1,38
 222 594 222 594 210 576 c 1,39,-1
 197 559 l 1,29,30
EndSplineSet
EndChar

StartChar: k
Encoding: 107 107 78
Width: 456
GlyphClass: 2
Flags: W
LayerCount: 2
Fore
SplineSet
308 311 m 0,0,1
 341 364 341 364 341 410.5 c 128,-1,2
 341 457 341 457 312 457 c 0,3,4
 277 457 277 457 232.5 395.5 c 128,-1,5
 188 334 188 334 153.5 256 c 128,-1,6
 119 178 119 178 95 111.5 c 128,-1,7
 71 45 71 45 71 31 c 1,8,9
 70 19 70 19 57 19 c 0,10,11
 27 19 27 19 27 99 c 0,12,13
 27 258 27 258 59 418.5 c 128,-1,14
 91 579 91 579 135 675.5 c 128,-1,15
 179 772 179 772 217 772 c 0,16,17
 233 772 233 772 233 756 c 1,18,19
 180 639 180 639 141 471 c 1,20,21
 109 341 109 341 87 192 c 1,22,-1
 95 192 l 1,23,24
 209 485 209 485 323 485 c 0,25,26
 394 485 394 485 394 404 c 0,27,28
 394 352 394 352 355.5 294 c 128,-1,29
 317 236 317 236 258 217 c 1,30,31
 270 206 270 206 307 80 c 0,32,33
 320 35 320 35 343 -2 c 128,-1,34
 366 -39 366 -39 392.5 -39 c 128,-1,35
 419 -39 419 -39 432 -20 c 1,36,37
 438 -20 438 -20 438 -25 c 128,-1,38
 438 -30 438 -30 433 -40 c 1,39,40
 411 -70 411 -70 379 -73 c 1,41,42
 338 -73 338 -73 302 -31 c 128,-1,43
 266 11 266 11 246 61 c 128,-1,44
 226 111 226 111 208.5 160.5 c 128,-1,45
 191 210 191 210 187 216 c 1,46,47
 180 221 180 221 178 228 c 1,48,49
 257 228 257 228 308 311 c 0,0,1
EndSplineSet
EndChar

StartChar: l
Encoding: 108 108 79
Width: 263
GlyphClass: 2
Flags: W
LayerCount: 2
Fore
SplineSet
147 -146 m 0,0,1
 89 -146 89 -146 61.5 -85 c 128,-1,2
 34 -24 34 -24 34 98 c 128,-1,3
 34 220 34 220 70 387 c 128,-1,4
 106 554 106 554 154.5 664 c 128,-1,5
 203 774 203 774 239 774 c 0,6,7
 256 774 256 774 256 754 c 1,8,9
 235 706 235 706 203 609.5 c 128,-1,10
 171 513 171 513 149.5 431 c 128,-1,11
 128 349 128 349 110.5 239 c 128,-1,12
 93 129 93 129 93 50.5 c 128,-1,13
 93 -28 93 -28 108.5 -70.5 c 128,-1,14
 124 -113 124 -113 151 -113 c 0,15,16
 174 -113 174 -113 195 -91.5 c 128,-1,17
 216 -70 216 -70 225 -49 c 0,18,19
 230 -38 230 -38 243 -43 c 0,20,21
 248 -45 248 -45 245.5 -51.5 c 128,-1,22
 243 -58 243 -58 237.5 -68 c 128,-1,23
 232 -78 232 -78 218 -99 c 0,24,25
 188 -146 188 -146 147 -146 c 0,0,1
EndSplineSet
EndChar

StartChar: m
Encoding: 109 109 80
Width: 665
GlyphClass: 2
Flags: W
LayerCount: 2
Fore
SplineSet
245 122 m 0,0,1
 245 245 245 245 290 433 c 0,2,3
 293 443 293 443 284 442 c 0,4,5
 277 441 277 441 271 436 c 0,6,7
 227 399 227 399 174 299 c 128,-1,8
 121 199 121 199 89 116.5 c 128,-1,9
 57 34 57 34 57 20 c 0,10,11
 57 8 57 8 42 8 c 0,12,13
 12 8 12 8 12 87 c 0,14,15
 12 237 12 237 42 357.5 c 128,-1,16
 72 478 72 478 115 478 c 0,17,18
 134 478 134 478 134 457 c 1,19,20
 88 312 88 312 68 159 c 1,21,-1
 77 159 l 1,22,23
 209 489 209 489 320 489 c 0,24,25
 368 489 368 489 368 442 c 1,26,27
 321 302 321 302 300 166 c 1,28,-1
 308 166 l 1,29,30
 341 236 341 236 374.5 293.5 c 128,-1,31
 408 351 408 351 453 400.5 c 128,-1,32
 498 450 498 450 534 450 c 0,33,34
 582 450 582 450 582 404 c 1,35,36
 530 231 530 231 530 67 c 0,37,38
 530 -39 530 -39 562 -39 c 0,39,40
 573 -39 573 -39 584 -29.5 c 128,-1,41
 595 -20 595 -20 599 -20 c 0,42,43
 613 -20 613 -20 598 -42 c 0,44,45
 594 -49 594 -49 580.5 -61 c 128,-1,46
 567 -73 567 -73 554 -73 c 0,47,48
 515 -73 515 -73 493.5 -18.5 c 128,-1,49
 472 36 472 36 472 123 c 0,50,51
 472 276 472 276 504 392 c 0,52,53
 506 399 506 399 499 399 c 1,54,55
 493 398 493 398 487 393 c 0,56,57
 430 344 430 344 360 211.5 c 128,-1,58
 290 79 290 79 290 55 c 0,59,60
 290 43 290 43 274 43 c 0,61,62
 245 43 245 43 245 122 c 0,0,1
EndSplineSet
EndChar

StartChar: n
Encoding: 110 110 81
Width: 448
GlyphClass: 2
Flags: W
LayerCount: 2
Fore
SplineSet
77 162 m 1,0,1
 206 481 206 481 328 481 c 0,2,3
 379 481 379 481 379 432 c 1,4,5
 372 409 372 409 361 371.5 c 128,-1,6
 350 334 350 334 331.5 237 c 128,-1,7
 313 140 313 140 313 67 c 0,8,9
 313 -39 313 -39 344 -39 c 0,10,11
 356 -39 356 -39 367 -29.5 c 128,-1,12
 378 -20 378 -20 382 -20 c 0,13,14
 396 -20 396 -20 382 -42 c 0,15,16
 377 -49 377 -49 363.5 -61 c 128,-1,17
 350 -73 350 -73 336 -73 c 0,18,19
 298 -73 298 -73 276.5 -18.5 c 128,-1,20
 255 36 255 36 255 123 c 0,21,22
 255 261 255 261 298 426 c 0,23,24
 302 439 302 439 290 439 c 0,25,26
 282 439 282 439 272 431 c 0,27,28
 224 389 224 389 171 292 c 128,-1,29
 118 195 118 195 88 118.5 c 128,-1,30
 58 42 58 42 58 29.5 c 128,-1,31
 58 17 58 17 44 17 c 0,32,33
 12 17 12 17 12 96 c 0,34,35
 12 245 12 245 42.5 366 c 128,-1,36
 73 487 73 487 116 487 c 0,37,38
 134 487 134 487 134 465 c 1,39,40
 88 316 88 316 68 162 c 1,41,-1
 77 162 l 1,0,1
EndSplineSet
EndChar

StartChar: o
Encoding: 111 111 82
Width: 413
GlyphClass: 2
Flags: W
LayerCount: 2
Fore
SplineSet
122 -9 m 0,0,1
 -1 -9 -1 -9 -1 160 c 0,2,3
 -1 255 -1 255 47 350 c 0,4,5
 108 470 108 470 192 470 c 0,6,7
 204 470 204 470 212 464 c 128,-1,8
 220 458 220 458 223 446 c 1,9,10
 160 446 160 446 114 345 c 128,-1,11
 68 244 68 244 68 146 c 0,12,13
 68 27 68 27 133 27 c 0,14,15
 170 27 170 27 210 83.5 c 128,-1,16
 250 140 250 140 276.5 232 c 128,-1,17
 303 324 303 324 303 417 c 2,18,-1
 303 429 l 1,19,20
 272 449 272 449 252 479 c 128,-1,21
 232 509 232 509 232 523 c 128,-1,22
 232 537 232 537 244.5 549.5 c 128,-1,23
 257 562 257 562 270 562 c 0,24,25
 289 562 289 562 307 528 c 128,-1,26
 325 494 325 494 332 451 c 1,27,28
 363 430 363 430 386.5 430 c 128,-1,29
 410 430 410 430 424 438 c 1,30,31
 424 424 424 424 414 413 c 128,-1,32
 404 402 404 402 383 402 c 128,-1,33
 362 402 362 402 335 412 c 1,34,35
 334 316 334 316 306 219 c 128,-1,36
 278 122 278 122 228 56.5 c 128,-1,37
 178 -9 178 -9 122 -9 c 0,0,1
EndSplineSet
EndChar

StartChar: p
Encoding: 112 112 83
Width: 484
GlyphClass: 2
Flags: W
LayerCount: 2
Fore
SplineSet
189 92 m 0,0,1
 189 32 189 32 221 32 c 0,2,3
 262 32 262 32 311 142 c 0,4,5
 368 268 368 268 368 378 c 0,6,7
 368 453 368 453 328.5 453 c 128,-1,8
 289 453 289 453 242 392 c 128,-1,9
 195 331 195 331 158.5 250.5 c 128,-1,10
 122 170 122 170 96 98.5 c 128,-1,11
 70 27 70 27 64.5 -7.5 c 128,-1,12
 59 -42 59 -42 56 -59.5 c 128,-1,13
 53 -77 53 -77 46.5 -115 c 128,-1,14
 40 -153 40 -153 34.5 -173 c 128,-1,15
 29 -193 29 -193 20 -223.5 c 128,-1,16
 11 -254 11 -254 1.5 -270.5 c 128,-1,17
 -8 -287 -8 -287 -20 -304 c 0,18,19
 -44 -337 -44 -337 -81 -337 c 0,20,21
 -129 -337 -129 -337 -129 -282 c 0,22,23
 -129 -184 -129 -184 21 87 c 1,24,25
 36 197 36 197 52 265 c 1,26,27
 87 426 87 426 126.5 514.5 c 128,-1,28
 166 603 166 603 198 603 c 0,29,30
 214 603 214 603 214 584 c 1,31,32
 166 457 166 457 115 262 c 2,33,-1
 109 239 l 1,34,-1
 122 239 l 1,35,36
 236 487 236 487 337 487 c 0,37,38
 431 487 431 487 431 338 c 0,39,40
 431 230 431 230 376 122 c 0,41,42
 315 0 315 0 230 0 c 0,43,44
 161 0 161 0 161 90 c 0,45,46
 161 138 161 138 187.5 200.5 c 128,-1,47
 214 263 214 263 257 293 c 1,48,49
 266 298 266 298 272 289 c 1,50,51
 273 284 273 284 271 282 c 0,52,53
 233 252 233 252 211 194 c 128,-1,54
 189 136 189 136 189 92 c 0,0,1
-102 -273 m 0,55,56
 -102 -303 -102 -303 -80 -303 c 0,57,58
 -35 -303 -35 -303 -13 -181 c 0,59,60
 -5 -139 -5 -139 15 31 c 1,61,62
 -76 -145 -76 -145 -98 -242 c 0,63,64
 -102 -260 -102 -260 -102 -273 c 0,55,56
EndSplineSet
EndChar

StartChar: q
Encoding: 113 113 84
Width: 480
GlyphClass: 2
Flags: W
LayerCount: 2
Fore
SplineSet
84 0 m 0,0,1
 2 0 2 0 2 129 c 0,2,3
 2 206 2 206 40 298 c 0,4,5
 93 427 93 427 179 474 c 0,6,7
 216 494 216 494 248 494 c 128,-1,8
 280 494 280 494 298.5 480 c 128,-1,9
 317 466 317 466 322 452 c 1,10,-1
 328 439 l 1,11,12
 325 422 325 422 311 422 c 0,13,14
 295 422 295 422 292.5 429.5 c 128,-1,15
 290 437 290 437 287 442.5 c 128,-1,16
 284 448 284 448 273 457.5 c 128,-1,17
 262 467 262 467 248 467 c 0,18,19
 183 467 183 467 130 350 c 0,20,21
 70 215 70 215 70 96 c 0,22,23
 70 36 70 36 94 36 c 0,24,25
 121 36 121 36 180.5 124 c 128,-1,26
 240 212 240 212 286 300 c 2,27,-1
 333 388 l 1,28,29
 363 449 363 449 396 449 c 0,30,31
 417 449 417 449 417 425 c 1,32,33
 404 397 404 397 381 317.5 c 128,-1,34
 358 238 358 238 343 169.5 c 128,-1,35
 328 101 328 101 315.5 1 c 128,-1,36
 303 -99 303 -99 303 -203 c 128,-1,37
 303 -307 303 -307 340 -307 c 0,38,39
 351 -307 351 -307 362.5 -297.5 c 128,-1,40
 374 -288 374 -288 377.5 -288 c 128,-1,41
 381 -288 381 -288 383 -290.5 c 128,-1,42
 385 -293 385 -293 383.5 -298 c 128,-1,43
 382 -303 382 -303 377.5 -310 c 128,-1,44
 373 -317 373 -317 359 -329 c 128,-1,45
 345 -341 345 -341 332 -341 c 0,46,47
 248 -341 248 -341 248 -147 c 0,48,49
 248 23 248 23 284 217 c 1,50,-1
 275 217 l 1,51,52
 148 0 148 0 84 0 c 0,0,1
EndSplineSet
EndChar

StartChar: r
Encoding: 114 114 85
Width: 383
GlyphClass: 2
Flags: W
LayerCount: 2
Fore
SplineSet
318 287 m 0,0,1
 280 287 280 287 280 370 c 0,2,3
 280 417 280 417 298 458 c 1,4,5
 230 399 230 399 146 238.5 c 128,-1,6
 62 78 62 78 62 29 c 0,7,8
 62 17 62 17 46 17 c 0,9,10
 17 17 17 17 17 96 c 0,11,12
 17 245 17 245 47 366 c 128,-1,13
 77 487 77 487 120 487 c 0,14,15
 139 487 139 487 139 465 c 1,16,17
 93 319 93 319 73 166 c 1,18,-1
 80 166 l 1,19,20
 161 353 161 353 259 458 c 0,21,22
 315 518 315 518 361 518 c 0,23,24
 371 518 371 518 377.5 512 c 128,-1,25
 384 506 384 506 384 497 c 1,26,27
 377 490 377 490 367 476 c 128,-1,28
 357 462 357 462 340 409.5 c 128,-1,29
 323 357 323 357 323 295 c 0,30,31
 323 287 323 287 318 287 c 0,0,1
EndSplineSet
EndChar

StartChar: s
Encoding: 115 115 86
Width: 379
GlyphClass: 2
Flags: W
LayerCount: 2
Fore
SplineSet
71 34 m 0,0,1
 71 -36 71 -36 116 -36 c 0,2,3
 158 -36 158 -36 194.5 33 c 128,-1,4
 231 102 231 102 231 207 c 0,5,6
 231 258 231 258 212.5 351 c 128,-1,7
 194 444 194 444 194 472.5 c 128,-1,8
 194 501 194 501 196 510 c 1,9,10
 183 489 183 489 121 370.5 c 128,-1,11
 59 252 59 252 11 183 c 0,12,13
 7 179 7 179 0 180.5 c 128,-1,14
 -7 182 -7 182 -11.5 186.5 c 128,-1,15
 -16 191 -16 191 -16 193 c 128,-1,16
 -16 195 -16 195 -15 196 c 0,17,18
 32 264 32 264 94.5 383.5 c 128,-1,19
 157 503 157 503 199 562 c 128,-1,20
 241 621 241 621 282 621 c 0,21,22
 303 621 303 621 303 603 c 0,23,24
 303 591 303 591 286 571 c 0,25,26
 232 510 232 510 232 446 c 0,27,28
 232 408 232 408 261 299.5 c 128,-1,29
 290 191 290 191 290 142 c 0,30,31
 290 54 290 54 241 -7.5 c 128,-1,32
 192 -69 192 -69 130 -69 c 0,33,34
 42 -69 42 -69 42 32 c 0,35,36
 42 108 42 108 88.5 191 c 128,-1,37
 135 274 135 274 182 303 c 0,38,39
 191 309 191 309 193.5 296 c 128,-1,40
 196 283 196 283 190 279 c 0,41,42
 137 249 137 249 98 151 c 0,43,44
 71 82 71 82 71 34 c 0,0,1
EndSplineSet
EndChar

StartChar: t
Encoding: 116 116 87
Width: 289
GlyphClass: 2
Flags: W
LayerCount: 2
Fore
SplineSet
59 433 m 0,0,1
 20 433 20 433 20 465 c 0,2,3
 20 477 20 477 30 480 c 0,4,5
 31 481 31 481 33 481 c 1,6,7
 39 474 39 474 55.5 474 c 128,-1,8
 72 474 72 474 108 476 c 1,9,10
 155 603 155 603 198 603 c 0,11,12
 215 603 215 603 215 584 c 1,13,14
 199 544 199 544 179 481 c 1,15,16
 278 492 278 492 308 492 c 0,17,18
 316 492 316 492 316 484 c 0,19,20
 316 468 316 468 295 468 c 0,21,22
 284 468 284 468 168 447 c 1,23,24
 89 197 89 197 89 42 c 128,-1,25
 89 -113 89 -113 151 -113 c 0,26,27
 176 -113 176 -113 198 -91.5 c 128,-1,28
 220 -70 220 -70 229 -49 c 0,29,30
 233 -38 233 -38 246 -43 c 0,31,32
 252 -45 252 -45 250 -49 c 0,33,34
 244 -62 244 -62 235 -79 c 128,-1,35
 226 -96 226 -96 200 -121 c 128,-1,36
 174 -146 174 -146 147 -146 c 0,37,38
 28 -146 28 -146 28 61 c 0,39,40
 28 236 28 236 93 435 c 1,41,42
 79 433 79 433 59 433 c 0,0,1
EndSplineSet
EndChar

StartChar: u
Encoding: 117 117 88
Width: 475
GlyphClass: 2
Flags: W
LayerCount: 2
Fore
SplineSet
350 -75 m 0,0,1
 362 -75 362 -75 372.5 -64.5 c 128,-1,2
 383 -54 383 -54 392 -32 c 1,3,4
 393 -23 393 -23 404 -23 c 128,-1,5
 415 -23 415 -23 412.5 -32 c 128,-1,6
 410 -41 410 -41 404.5 -54 c 128,-1,7
 399 -67 399 -67 381.5 -88.5 c 128,-1,8
 364 -110 364 -110 346 -110 c 0,9,10
 306 -110 306 -110 284 -60 c 0,11,12
 261 -10 261 -10 261 63.5 c 128,-1,13
 261 137 261 137 272 215 c 1,14,-1
 263 215 l 1,15,16
 142 4 142 4 77 4 c 0,17,18
 0 4 0 4 0 121.5 c 128,-1,19
 0 239 0 239 50 356 c 0,20,21
 105 485 105 485 147 485 c 0,22,23
 165 485 165 485 165 463 c 1,24,25
 123 352 123 352 93 247 c 128,-1,26
 63 142 63 142 63 90.5 c 128,-1,27
 63 39 63 39 87 39 c 0,28,29
 104 39 104 39 137.5 80 c 128,-1,30
 171 121 171 121 206 180 c 0,31,32
 281 307 281 307 320.5 396 c 128,-1,33
 360 485 360 485 402 485 c 0,34,35
 422 485 422 485 422 463 c 1,36,37
 358 336 358 336 331 160 c 0,38,39
 320 90 320 90 320 23 c 0,40,41
 320 -75 320 -75 350 -75 c 0,0,1
EndSplineSet
EndChar

StartChar: v
Encoding: 118 118 89
Width: 389
GlyphClass: 2
Flags: W
LayerCount: 2
Fore
SplineSet
316 453 m 1,0,1
 345 431 345 431 371.5 431 c 128,-1,2
 398 431 398 431 409 438 c 1,3,4
 409 425 409 425 397.5 413.5 c 128,-1,5
 386 402 386 402 364.5 402 c 128,-1,6
 343 402 343 402 318 412 c 1,7,8
 315 318 315 318 282 219.5 c 128,-1,9
 249 121 249 121 197 54.5 c 128,-1,10
 145 -12 145 -12 93.5 -12 c 128,-1,11
 42 -12 42 -12 20 30.5 c 128,-1,12
 -2 73 -2 73 -2 128 c 0,13,14
 -2 194 -2 194 16.5 269.5 c 128,-1,15
 35 345 35 345 60 391 c 128,-1,16
 85 437 85 437 105 437 c 128,-1,17
 125 437 125 437 125 416 c 1,18,19
 62 198 62 198 62 110 c 128,-1,20
 62 22 62 22 101 22 c 0,21,22
 135 22 135 22 178.5 81 c 128,-1,23
 222 140 222 140 254 236.5 c 128,-1,24
 286 333 286 333 286 425 c 2,25,-1
 286 431 l 1,26,27
 257 452 257 452 239 481 c 128,-1,28
 221 510 221 510 221 524.5 c 128,-1,29
 221 539 221 539 234 551 c 128,-1,30
 247 563 247 563 262 563 c 0,31,32
 280 563 280 563 295.5 529.5 c 128,-1,33
 311 496 311 496 316 453 c 1,0,1
EndSplineSet
EndChar

StartChar: w
Encoding: 119 119 90
Width: 629
GlyphClass: 2
Flags: W
LayerCount: 2
Fore
SplineSet
542 453 m 1,0,1
 571 431 571 431 597.5 431 c 128,-1,2
 624 431 624 431 635 438 c 1,3,4
 635 425 635 425 623.5 413.5 c 128,-1,5
 612 402 612 402 590.5 402 c 128,-1,6
 569 402 569 402 544 412 c 1,7,8
 542 318 542 318 513 219.5 c 128,-1,9
 484 121 484 121 438 54.5 c 128,-1,10
 392 -12 392 -12 347 -12 c 128,-1,11
 302 -12 302 -12 278 23 c 1,12,13
 253 62 253 62 253 134 c 0,14,15
 253 175 253 175 258 222 c 1,16,17
 134 0 134 0 67.5 0 c 128,-1,18
 1 0 1 0 1 112 c 0,19,20
 1 228 1 228 58 360 c 1,21,22
 106 465 106 465 146 470 c 1,23,24
 165 470 165 470 165 449 c 1,25,26
 153 420 153 420 135 374.5 c 128,-1,27
 117 329 117 329 87.5 229 c 128,-1,28
 58 129 58 129 58 81.5 c 128,-1,29
 58 34 58 34 79 34 c 0,30,31
 105 34 105 34 160.5 118 c 128,-1,32
 216 202 216 202 258 286 c 1,33,-1
 301 369 l 2,34,35
 329 425 329 425 351 425 c 128,-1,36
 373 425 373 425 373 404 c 1,37,38
 312 195 312 195 312 77 c 0,39,40
 312 22 312 22 344 22 c 0,41,42
 380 22 380 22 419.5 81.5 c 128,-1,43
 459 141 459 141 485.5 236.5 c 128,-1,44
 512 332 512 332 512 425 c 2,45,-1
 512 431 l 1,46,47
 483 452 483 452 465 481 c 128,-1,48
 447 510 447 510 447 524.5 c 128,-1,49
 447 539 447 539 460 551 c 128,-1,50
 473 563 473 563 488 563 c 0,51,52
 507 563 507 563 522 529.5 c 128,-1,53
 537 496 537 496 542 453 c 1,0,1
EndSplineSet
EndChar

StartChar: x
Encoding: 120 120 91
Width: 401
GlyphClass: 2
Flags: W
LayerCount: 2
Fore
SplineSet
294 -35 m 0,0,1
 251 -35 251 -35 214 23.5 c 128,-1,2
 177 82 177 82 138 184 c 1,3,4
 86 102 86 102 54 60.5 c 128,-1,5
 22 19 22 19 2 19 c 0,6,7
 -9 19 -9 19 -14.5 25.5 c 128,-1,8
 -20 32 -20 32 -20 39 c 2,9,-1
 -20 46 l 1,10,11
 -13 46 -13 46 -4 55.5 c 128,-1,12
 5 65 5 65 11.5 72 c 128,-1,13
 18 79 18 79 27 91.5 c 128,-1,14
 36 104 36 104 43 114 c 128,-1,15
 50 124 50 124 61 140.5 c 128,-1,16
 72 157 72 157 79.5 168.5 c 128,-1,17
 87 180 87 180 100 200 c 2,18,19
 100 200 100 200 121 231 c 1,20,21
 116 245 116 245 108 267 c 128,-1,22
 100 289 100 289 95 303 c 128,-1,23
 90 317 90 317 83.5 335.5 c 128,-1,24
 77 354 77 354 72 366 c 128,-1,25
 67 378 67 378 61 392 c 128,-1,26
 55 406 55 406 50.5 414.5 c 128,-1,27
 46 423 46 423 40 430 c 1,28,29
 30 445 30 445 21 445 c 1,30,31
 22 449 22 449 23.5 455.5 c 128,-1,32
 25 462 25 462 36.5 473 c 128,-1,33
 48 484 48 484 65 484 c 0,34,35
 90 484 90 484 114.5 436 c 128,-1,36
 139 388 139 388 168 301 c 1,37,38
 285 465 285 465 336 465 c 0,39,40
 348 465 348 465 355.5 458 c 128,-1,41
 363 451 363 451 365 437 c 1,42,43
 329 437 329 437 284.5 388.5 c 128,-1,44
 240 340 240 340 183 254 c 1,45,46
 241 70 241 70 263.5 34.5 c 128,-1,47
 286 -1 286 -1 299.5 -1 c 128,-1,48
 313 -1 313 -1 324 8.5 c 128,-1,49
 335 18 335 18 339 18 c 0,50,51
 353 18 353 18 338 -4 c 0,52,53
 334 -11 334 -11 320.5 -23 c 128,-1,54
 307 -35 307 -35 294 -35 c 0,0,1
EndSplineSet
EndChar

StartChar: y
Encoding: 121 121 92
Width: 465
GlyphClass: 2
Flags: W
LayerCount: 2
Fore
SplineSet
27 -313 m 0,0,1
 117 -313 117 -313 168 -228 c 0,2,3
 212 -153 212 -153 236 -41 c 1,4,5
 55 -45 55 -45 -42 -179 c 0,6,7
 -48 -188 -48 -188 -61 -182 c 0,8,9
 -68 -178 -68 -178 -65 -172 c 0,10,11
 -22 -107 -22 -107 55 -61.5 c 128,-1,12
 132 -16 132 -16 242 -12 c 1,13,14
 253 38 253 38 263 105 c 128,-1,15
 273 172 273 172 286 235 c 1,16,-1
 277 235 l 1,17,18
 147 4 147 4 79 4 c 0,19,20
 3 4 3 4 3 121 c 128,-1,21
 3 238 3 238 53 356.5 c 128,-1,22
 103 475 103 475 144 484 c 1,23,-1
 150 485 l 1,24,25
 167 485 167 485 167 463 c 1,26,27
 156 436 156 436 139 392.5 c 128,-1,28
 122 349 122 349 94 249.5 c 128,-1,29
 66 150 66 150 66 94.5 c 128,-1,30
 66 39 66 39 90 39 c 0,31,32
 118 39 118 39 180 136 c 0,33,34
 271 278 271 278 338 424 c 0,35,36
 367 485 367 485 400 485 c 0,37,38
 421 485 421 485 421 462 c 1,39,40
 402 427 402 427 375 331 c 128,-1,41
 348 235 348 235 331 137.5 c 128,-1,42
 314 40 314 40 302 -15 c 1,43,44
 378 -28 378 -28 390 -81 c 0,45,46
 392 -90 392 -90 392 -105.5 c 128,-1,47
 392 -121 392 -121 380 -132.5 c 128,-1,48
 368 -144 368 -144 359 -144 c 1,49,50
 361 -137 361 -137 360 -119.5 c 128,-1,51
 359 -102 359 -102 353.5 -90 c 128,-1,52
 348 -78 348 -78 333 -65 c 128,-1,53
 318 -52 318 -52 294 -46 c 1,54,55
 217 -336 217 -336 27 -336 c 0,56,57
 -55 -336 -55 -336 -82 -278 c 0,58,59
 -83 -275 -83 -275 -83 -273 c 0,60,61
 -83 -267 -83 -267 -72.5 -265.5 c 128,-1,62
 -62 -264 -62 -264 -57 -272 c 1,63,64
 -39 -313 -39 -313 27 -313 c 0,0,1
EndSplineSet
EndChar

StartChar: z
Encoding: 122 122 93
Width: 417
GlyphClass: 2
Flags: W
LayerCount: 2
Fore
SplineSet
-11 -336 m 0,0,1
 -89 -336 -89 -336 -89 -261 c 0,2,3
 -89 -195 -89 -195 -21.5 -105.5 c 128,-1,4
 46 -16 46 -16 148 23 c 0,5,6
 153 25 153 25 158 20.5 c 128,-1,7
 163 16 163 16 163 10.5 c 128,-1,8
 163 5 163 5 157 2 c 0,9,10
 54 -36 54 -36 -16 -138 c 0,11,12
 -63 -208 -63 -208 -63 -253 c 128,-1,13
 -63 -298 -63 -298 -28 -299 c 1,14,15
 55 -299 55 -299 153 -185 c 0,16,17
 236 -89 236 -89 265 7 c 0,18,19
 275 40 275 40 275 62 c 0,20,21
 275 109 275 109 231 109 c 0,22,23
 197 109 197 109 148 86.5 c 128,-1,24
 99 64 99 64 85 64 c 0,25,26
 62 64 62 64 56 98 c 2,27,-1
 54 110 l 1,28,29
 128 110 128 110 204 212 c 1,30,31
 268 300 268 300 282 383 c 0,32,33
 284 398 284 398 284 410 c 0,34,35
 284 458 284 458 245 459 c 1,36,37
 205 459 205 459 166.5 428.5 c 128,-1,38
 128 398 128 398 103.5 358.5 c 128,-1,39
 79 319 79 319 64 287 c 128,-1,40
 49 255 49 255 49 248 c 128,-1,41
 49 241 49 241 39.5 238.5 c 128,-1,42
 30 236 30 236 20.5 241 c 128,-1,43
 11 246 11 246 11 257.5 c 128,-1,44
 11 269 11 269 30 304.5 c 128,-1,45
 49 340 49 340 79.5 381.5 c 128,-1,46
 110 423 110 423 156.5 455 c 128,-1,47
 203 487 203 487 248.5 487 c 128,-1,48
 294 487 294 487 319 457 c 128,-1,49
 344 427 344 427 344 379 c 0,50,51
 344 250 344 250 212 134 c 1,52,53
 224 136 224 136 231 136 c 0,54,55
 325 136 325 136 325 32 c 0,56,57
 325 -43 325 -43 269 -139 c 0,58,59
 200 -256 200 -256 100 -308 c 0,60,61
 44 -336 44 -336 -11 -336 c 0,0,1
EndSplineSet
EndChar

StartChar: braceleft
Encoding: 123 123 94
Width: 316
GlyphClass: 2
Flags: W
LayerCount: 2
Fore
SplineSet
90 254 m 0,0,1
 90 336 90 336 42 336 c 0,2,3
 37 336 37 336 37 347 c 0,4,5
 37 376 37 376 48 376 c 0,6,7
 78 376 78 376 98 406 c 128,-1,8
 118 436 118 436 127 480.5 c 128,-1,9
 136 525 136 525 149 577.5 c 128,-1,10
 162 630 162 630 177 674.5 c 128,-1,11
 192 719 192 719 227 749 c 128,-1,12
 262 779 262 779 312 779 c 0,13,14
 324 779 324 779 331 772.5 c 128,-1,15
 338 766 338 766 339 754 c 1,16,17
 283 754 283 754 252 720.5 c 128,-1,18
 221 687 221 687 211 635.5 c 128,-1,19
 201 584 201 584 195 530 c 0,20,21
 180 392 180 392 116 353 c 1,22,23
 138 332 138 332 138 279.5 c 128,-1,24
 138 227 138 227 128 170 c 0,25,26
 111 73 111 73 111 32 c 0,27,28
 111 -69 111 -69 189 -69 c 1,29,30
 187 -89 187 -89 163 -89 c 0,31,32
 119 -89 119 -89 97.5 -57.5 c 128,-1,33
 76 -26 76 -26 76 21 c 0,34,35
 76 113 76 113 83 177 c 128,-1,36
 90 241 90 241 90 254 c 0,0,1
EndSplineSet
EndChar

StartChar: bar
Encoding: 124 124 95
Width: 364
GlyphClass: 2
Flags: W
LayerCount: 2
Fore
SplineSet
138 -124 m 0,0,1
 127 -124 127 -124 127 -104 c 0,2,3
 131 210 131 210 143 638 c 1,4,5
 144 721 144 721 181 721 c 0,6,7
 188 721 188 721 192.5 713.5 c 128,-1,8
 197 706 197 706 197 696 c 2,9,-1
 158 -66 l 1,10,11
 157 -124 157 -124 138 -124 c 0,0,1
EndSplineSet
EndChar

StartChar: braceright
Encoding: 125 125 96
Width: 321
GlyphClass: 2
Flags: W
LayerCount: 2
Fore
SplineSet
223 435 m 0,0,1
 223 353 223 353 271 353 c 0,2,3
 276 353 276 353 276 342.5 c 128,-1,4
 276 332 276 332 273 323 c 128,-1,5
 270 314 270 314 265 314 c 0,6,7
 229 314 229 314 208.5 272.5 c 128,-1,8
 188 231 188 231 176.5 171.5 c 128,-1,9
 165 112 165 112 150 53 c 128,-1,10
 135 -6 135 -6 98 -47.5 c 128,-1,11
 61 -89 61 -89 2 -89 c 0,12,13
 -10 -89 -10 -89 -17 -82.5 c 128,-1,14
 -24 -76 -24 -76 -26 -64 c 1,15,16
 30 -64 30 -64 61 -30.5 c 128,-1,17
 92 3 92 3 102 54.5 c 128,-1,18
 112 106 112 106 118 160 c 0,19,20
 133 298 133 298 198 336 c 1,21,22
 176 358 176 358 176 410 c 128,-1,23
 176 462 176 462 186 520 c 0,24,25
 203 616 203 616 203 657 c 0,26,27
 203 758 203 758 125 758 c 1,28,29
 125 765 125 765 132 772 c 128,-1,30
 139 779 139 779 150 779 c 0,31,32
 194 779 194 779 215.5 747.5 c 128,-1,33
 237 716 237 716 237 668 c 0,34,35
 237 578 237 578 230 513.5 c 128,-1,36
 223 449 223 449 223 435 c 0,0,1
EndSplineSet
EndChar

StartChar: asciitilde
Encoding: 126 126 97
Width: 475
GlyphClass: 2
Flags: W
LayerCount: 2
Fore
SplineSet
355 462 m 0,0,1
 351 462 351 462 331 462 c 128,-1,2
 311 462 311 462 251.5 447.5 c 128,-1,3
 192 433 192 433 165 433 c 128,-1,4
 138 433 138 433 114 448.5 c 128,-1,5
 90 464 90 464 80 480 c 1,6,-1
 69 495 l 1,7,-1
 102 495 l 1,8,9
 119 473 119 473 151 473 c 128,-1,10
 183 473 183 473 244 492 c 128,-1,11
 305 511 305 511 340 511 c 128,-1,12
 375 511 375 511 408 492 c 128,-1,13
 441 473 441 473 457 454 c 2,14,-1
 473 435 l 1,15,-1
 440 435 l 1,16,17
 409 462 409 462 355 462 c 0,0,1
EndSplineSet
EndChar

StartChar: exclamdown
Encoding: 161 161 98
Width: 312
GlyphClass: 2
Flags: W
LayerCount: 2
Fore
SplineSet
172 485 m 128,-1,1
 196 485 196 485 196 462 c 0,2,3
 196 442 196 442 174 386 c 1,4,-1
 166 368 l 1,5,6
 149 368 149 368 140 397 c 0,7,8
 135 412 135 412 135 426.5 c 128,-1,9
 135 441 135 441 140 456 c 0,10,0
 148 485 148 485 172 485 c 128,-1,1
180 220 m 0,11,12
 180 123 180 123 157 -2 c 128,-1,13
 134 -127 134 -127 95.5 -221.5 c 128,-1,14
 57 -316 57 -316 19 -316 c 0,15,16
 3 -316 3 -316 3 -300 c 1,17,18
 43 -211 43 -211 89 -12 c 128,-1,19
 135 187 135 187 135 265 c 0,20,21
 135 279 135 279 150 279 c 0,22,23
 180 279 180 279 180 220 c 0,11,12
EndSplineSet
EndChar

StartChar: cent
Encoding: 162 162 99
Width: 452
GlyphClass: 2
Flags: W
LayerCount: 2
Fore
SplineSet
128 -192 m 1,0,1
 117 -188 117 -188 117 -173 c 128,-1,2
 117 -158 117 -158 139 -32 c 1,3,4
 37 -30 37 -30 9 70 c 0,5,6
 0 103 0 103 0 139 c 0,7,8
 0 207 0 207 31 285 c 0,9,10
 79 406 79 406 164 457 c 0,11,12
 195 476 195 476 229 481 c 1,13,14
 235 516 235 516 242 558 c 0,15,16
 252 620 252 620 260 661 c 0,17,18
 261 671 261 671 269 671 c 0,19,20
 272 671 272 671 275 670 c 0,21,22
 293 664 293 664 293 638 c 0,23,24
 293 631 293 631 292 625 c 128,-1,25
 291 619 291 619 287 595 c 128,-1,26
 283 571 283 571 277 541 c 128,-1,27
 271 511 271 511 265 481 c 1,28,29
 286 477 286 477 299.5 462.5 c 128,-1,30
 313 448 313 448 316 435 c 2,31,-1
 319 422 l 1,32,-1
 294 422 l 1,33,34
 294 431 294 431 283.5 441 c 128,-1,35
 273 451 273 451 260 453 c 1,36,37
 177 14 177 14 175 4 c 1,38,39
 201 11 201 11 223.5 31 c 128,-1,40
 246 51 246 51 256 67 c 2,41,-1
 265 83 l 2,42,43
 269 92 269 92 282 92 c 128,-1,44
 295 92 295 92 295 86 c 2,45,-1
 295 83 l 1,46,47
 265 22 265 22 212 -10 c 1,48,49
 191 -24 191 -24 168 -29 c 1,50,51
 164 -53 164 -53 157 -89 c 0,52,53
 144 -158 144 -158 140 -185 c 0,54,55
 138 -194 138 -194 133 -194 c 0,56,57
 130 -194 130 -194 128 -192 c 1,0,1
69 135 m 0,58,59
 69 8 69 8 145 2 c 1,60,61
 205 349 205 349 223 449 c 1,62,63
 158 426 158 426 113.5 325 c 128,-1,64
 69 224 69 224 69 135 c 0,58,59
EndSplineSet
EndChar

StartChar: sterling
Encoding: 163 163 100
Width: 727
GlyphClass: 2
Flags: W
LayerCount: 2
Fore
SplineSet
501 312 m 0,0,1
 451 312 451 312 376 309 c 1,2,3
 332 112 332 112 254 36 c 1,4,5
 420 -26 420 -26 491 -26 c 0,6,7
 526 -26 526 -26 550 -12.5 c 128,-1,8
 574 1 574 1 580 14 c 2,9,-1
 587 28 l 1,10,11
 603 28 603 28 602 2 c 0,12,13
 600 -38 600 -38 563.5 -61.5 c 128,-1,14
 527 -85 527 -85 477.5 -85 c 128,-1,15
 428 -85 428 -85 374.5 -70 c 128,-1,16
 321 -55 321 -55 291.5 -41 c 128,-1,17
 262 -27 262 -27 207 1 c 1,18,19
 150 -32 150 -32 70.5 -32 c 128,-1,20
 -9 -32 -9 -32 -34 12 c 0,21,22
 -41 24 -41 24 -41 38.5 c 128,-1,23
 -41 53 -41 53 -22 70.5 c 128,-1,24
 -3 88 -3 88 48 88 c 128,-1,25
 99 88 99 88 205 52 c 1,26,27
 265 120 265 120 302 306 c 1,28,29
 265 304 265 304 212 304 c 0,30,31
 183 304 183 304 179 326 c 1,32,33
 178 341 178 341 190 343 c 1,34,35
 195 336 195 336 212 336 c 2,36,-1
 307 336 l 1,37,38
 339 508 339 508 355 557 c 0,39,40
 402 702 402 702 501 702 c 0,41,42
 529 702 529 702 543.5 688 c 128,-1,43
 558 674 558 674 558 660 c 2,44,-1
 559 646 l 1,45,46
 549 656 549 656 526 656 c 128,-1,47
 503 656 503 656 487 648 c 128,-1,48
 471 640 471 640 459 620 c 128,-1,49
 447 600 447 600 438.5 582 c 128,-1,50
 430 564 430 564 421.5 529 c 128,-1,51
 413 494 413 494 408 471.5 c 128,-1,52
 403 449 403 449 395 404 c 128,-1,53
 387 359 387 359 382 336 c 1,54,-1
 514 336 l 2,55,56
 523 336 523 336 521.5 324 c 128,-1,57
 520 312 520 312 501 312 c 0,0,1
583 441 m 0,58,59
 583 437 583 437 574.5 436.5 c 128,-1,60
 566 436 566 436 557 440 c 128,-1,61
 548 444 548 444 548 451 c 0,62,63
 548 553 548 553 571 615.5 c 128,-1,64
 594 678 594 678 632 678 c 0,65,66
 642 678 642 678 649 671 c 128,-1,67
 656 664 656 664 656 652 c 1,68,69
 610 606 610 606 591 518 c 0,70,71
 583 481 583 481 583 441 c 0,58,59
-12 34 m 0,72,73
 -12 17 -12 17 12.5 6 c 128,-1,74
 37 -5 37 -5 82 -5 c 128,-1,75
 127 -5 127 -5 168 20 c 1,76,77
 85 63 85 63 27 63 c 0,78,79
 -4 63 -4 63 -11 42 c 0,80,81
 -12 38 -12 38 -12 34 c 0,72,73
EndSplineSet
EndChar

StartChar: currency
Encoding: 164 164 101
Width: 565
GlyphClass: 2
Flags: W
LayerCount: 2
Fore
SplineSet
468 470 m 0,0,1
 481 470 481 470 481 459 c 0,2,3
 481 452 481 452 475 445 c 2,4,-1
 406 376 l 1,5,6
 425 343 425 343 425 297 c 0,7,8
 425 208 425 208 373 131 c 1,9,-1
 450 53 l 2,10,11
 461 43 461 43 452 33.5 c 128,-1,12
 443 24 443 24 432 35 c 2,13,-1
 357 109 l 1,14,15
 304 43 304 43 237.5 43 c 128,-1,16
 171 43 171 43 139 85 c 1,17,-1
 83 30 l 2,18,19
 78 25 78 25 73 25 c 0,20,21
 64 25 64 25 61.5 29.5 c 128,-1,22
 59 34 59 34 59 39 c 128,-1,23
 59 44 59 44 64 49 c 2,24,-1
 125 110 l 1,25,26
 118 136 118 136 118 159 c 0,27,28
 118 236 118 236 165 294 c 0,29,30
 199 336 199 336 244 346 c 0,31,32
 250 348 250 348 253.5 343.5 c 128,-1,33
 257 339 257 339 256.5 333 c 128,-1,34
 256 327 256 327 252 326 c 0,35,36
 214 315 214 315 192 251 c 1,37,38
 176 208 176 208 176 167 c 0,39,40
 176 67 176 67 235.5 67 c 128,-1,41
 295 67 295 67 335 150 c 0,42,43
 369 220 369 220 369 291 c 0,44,45
 369 396 369 396 309 396 c 0,46,47
 272 396 272 396 241 368 c 1,48,49
 223 354 223 354 207 358 c 0,50,51
 202 359 202 359 205 363 c 1,52,53
 171 398 171 398 126 443 c 0,54,55
 119 450 119 450 121 458.5 c 128,-1,56
 123 467 123 467 130 468 c 128,-1,57
 137 469 137 469 146 462 c 1,58,-1
 224 384 l 1,59,60
 269 419 269 419 315.5 419 c 128,-1,61
 362 419 362 419 388 396 c 1,62,-1
 457 465 l 2,63,64
 462 470 462 470 468 470 c 0,0,1
EndSplineSet
EndChar

StartChar: yen
Encoding: 165 165 102
Width: 585
GlyphClass: 2
Flags: W
LayerCount: 2
Fore
SplineSet
409 4 m 2,0,-1
 352 4 l 1,1,2
 287 -102 287 -102 172 -102 c 0,3,4
 76 -102 76 -102 49 -38 c 0,5,6
 41 -19 41 -19 41 2.5 c 128,-1,7
 41 24 41 24 58 50.5 c 128,-1,8
 75 77 75 77 108 77 c 0,9,10
 127 77 127 77 132 64 c 1,11,-1
 133 60 l 1,12,13
 91 60 91 60 76 20 c 0,14,15
 70 6 70 6 70 -12.5 c 128,-1,16
 70 -31 70 -31 90.5 -54.5 c 128,-1,17
 111 -78 111 -78 157 -78 c 0,18,19
 237 -78 237 -78 295 2 c 1,20,-1
 255 2 l 2,21,22
 234 2 234 2 234 18 c 1,23,24
 235 27 235 27 241 28 c 1,25,26
 244 23 244 23 266.5 23 c 128,-1,27
 289 23 289 23 308 22 c 1,28,29
 324 50 324 50 331 65 c 1,30,31
 309 64 309 64 270 64 c 0,32,33
 249 64 249 64 248 80 c 1,34,35
 249 89 249 89 255 90 c 1,36,37
 258 85 258 85 270 85 c 2,38,-1
 340 85 l 1,39,40
 370 158 370 158 402 292 c 1,41,-1
 394 292 l 1,42,43
 314 161 314 161 242 161 c 0,44,45
 174 161 174 161 174 243 c 0,46,47
 174 295 174 295 208.5 400.5 c 128,-1,48
 243 506 243 506 243 560 c 0,49,50
 243 647 243 647 163 647 c 0,51,52
 95 647 95 647 55 578 c 0,53,54
 27 530 27 530 27 483 c 0,55,56
 27 461 27 461 33 440 c 0,57,58
 51 371 51 371 125 371 c 1,59,60
 124 354 124 354 99 354 c 0,61,62
 28 354 28 354 7 425 c 0,63,64
 -1 450 -1 450 -1 486 c 128,-1,65
 -1 522 -1 522 22 571 c 0,66,67
 69 671 69 671 163 671 c 0,68,69
 226 671 226 671 260.5 632 c 128,-1,70
 295 593 295 593 295 532.5 c 128,-1,71
 295 472 295 472 261.5 368 c 128,-1,72
 228 264 228 264 228 225.5 c 128,-1,73
 228 187 228 187 250 187 c 0,74,75
 276 187 276 187 308 221 c 128,-1,76
 340 255 340 255 368 304 c 1,77,78
 425 408 425 408 450 483 c 128,-1,79
 475 558 475 558 505 558 c 0,80,81
 515 558 515 558 519.5 552 c 128,-1,82
 524 546 524 546 524 543 c 128,-1,83
 524 540 524 540 523 538 c 0,84,85
 494 474 494 474 456 311.5 c 128,-1,86
 418 149 418 149 392 83 c 1,87,-1
 432 83 l 2,88,89
 440 83 440 83 438 75 c 128,-1,90
 436 67 436 67 417.5 67 c 128,-1,91
 399 67 399 67 384 66 c 1,92,93
 376 44 376 44 363 20 c 1,94,-1
 417 20 l 2,95,96
 425 20 425 20 423 12 c 128,-1,97
 421 4 421 4 409 4 c 2,0,-1
EndSplineSet
EndChar

StartChar: brokenbar
Encoding: 166 166 103
Width: 417
GlyphClass: 2
Flags: W
LayerCount: 2
Fore
SplineSet
136 329 m 1,0,-1
 142 590 l 2,1,2
 143 667 143 667 177 667 c 0,3,4
 192 667 192 667 192 642 c 0,5,6
 192 637 192 637 189 583 c 128,-1,7
 186 529 186 529 182.5 454 c 128,-1,8
 179 379 179 379 176 329 c 1,9,-1
 136 329 l 1,0,-1
137 -125 m 0,10,11
 127 -125 127 -125 127 -106 c 0,12,13
 128 -37 128 -37 134 239 c 1,14,-1
 172 239 l 1,15,16
 157 -49 157 -49 156 -70 c 0,17,18
 155 -125 155 -125 137 -125 c 0,10,11
EndSplineSet
EndChar

StartChar: section
Encoding: 167 167 104
Width: 554
GlyphClass: 2
Flags: W
LayerCount: 2
Fore
SplineSet
19 41 m 0,0,1
 19 31 19 31 22 21 c 0,2,3
 34 -16 34 -16 93 -16 c 0,4,5
 178 -16 178 -16 228 37 c 128,-1,6
 278 90 278 90 278 173 c 0,7,8
 278 245 278 245 222 295 c 0,9,10
 198 316 198 316 174 335 c 0,11,12
 117 380 117 380 117 433 c 128,-1,13
 117 486 117 486 164.5 536.5 c 128,-1,14
 212 587 212 587 271 597 c 1,15,-1
 271 601 l 2,16,17
 271 664 271 664 328 717.5 c 128,-1,18
 385 771 385 771 449 771 c 0,19,20
 469 771 469 771 479 759.5 c 128,-1,21
 489 748 489 748 489 736 c 2,22,-1
 489 724 l 1,23,24
 480 731 480 731 455 731 c 0,25,26
 410 731 410 731 369.5 692.5 c 128,-1,27
 329 654 329 654 329 599 c 0,28,29
 329 554 329 554 386 506 c 0,30,31
 410 485 410 485 434 463 c 0,32,33
 490 410 490 410 490 343 c 128,-1,34
 490 276 490 276 449 220.5 c 128,-1,35
 408 165 408 165 333 143 c 1,36,37
 323 67 323 67 259.5 14 c 128,-1,38
 196 -39 196 -39 98.5 -39 c 128,-1,39
 1 -39 1 -39 -17 24 c 0,40,41
 -21 38 -21 38 -21 52 c 0,42,43
 -21 92 -21 92 10 132 c 0,44,45
 60 196 60 196 135 197 c 0,46,47
 147 197 147 197 155 189.5 c 128,-1,48
 163 182 163 182 166 167 c 1,49,50
 98 167 98 167 50 110 c 0,51,52
 19 73 19 73 19 41 c 0,0,1
232 335 m 0,53,54
 255 315 255 315 278 293 c 0,55,56
 336 239 336 239 336 173 c 1,57,58
 382 195 382 195 407 239.5 c 128,-1,59
 432 284 432 284 432 334 c 128,-1,60
 432 384 432 384 413.5 417 c 128,-1,61
 395 450 395 450 371.5 469 c 128,-1,62
 348 488 348 488 320.5 512 c 128,-1,63
 293 536 293 536 282 557 c 1,64,65
 241 549 241 549 208 513 c 128,-1,66
 175 477 175 477 175 430 c 128,-1,67
 175 383 175 383 232 335 c 0,53,54
EndSplineSet
EndChar

StartChar: dieresis
Encoding: 168 168 105
Width: 450
GlyphClass: 2
Flags: W
LayerCount: 2
Fore
SplineSet
160 559 m 1,0,1
 139 559 139 559 139 599 c 0,2,3
 139 623 139 623 152 649.5 c 128,-1,4
 165 676 165 676 189 676 c 0,5,6
 209 676 209 676 209 653 c 256,7,8
 209 630 209 630 172 576 c 2,9,-1
 160 559 l 1,0,1
303 559 m 1,10,11
 282 559 282 559 282 600 c 0,12,13
 282 624 282 624 294.5 650 c 128,-1,14
 307 676 307 676 331 676 c 0,15,16
 352 676 352 676 352 653 c 0,17,18
 352 641 352 641 340 617.5 c 128,-1,19
 328 594 328 594 316 576 c 1,20,-1
 303 559 l 1,10,11
EndSplineSet
EndChar

StartChar: copyright
Encoding: 169 169 106
Width: 842
GlyphClass: 2
Flags: W
LayerCount: 2
Fore
SplineSet
452 578 m 128,-1,1
 579 578 579 578 660 488 c 0,2,3
 730 410 730 410 730 305 c 0,4,5
 730 157 730 157 616 54 c 0,6,7
 516 -36 516 -36 388.5 -36 c 128,-1,8
 261 -36 261 -36 181 54 c 0,9,10
 112 131 112 131 112 236 c 0,11,12
 112 385 112 385 226 488 c 0,13,0
 325 578 325 578 452 578 c 128,-1,1
133 237 m 0,14,15
 133 141 133 141 197 70 c 0,16,17
 272 -14 272 -14 390.5 -14 c 128,-1,18
 509 -14 509 -14 602 70 c 0,19,20
 709 166 709 166 709 303 c 0,21,22
 709 400 709 400 644 472 c 0,23,24
 568 556 568 556 449.5 556 c 128,-1,25
 331 556 331 556 240 472 c 1,26,27
 133 375 133 375 133 237 c 0,14,15
481 158 m 1,28,29
 483 166 483 166 493.5 166 c 128,-1,30
 504 166 504 166 504 160 c 2,31,-1
 504 158 l 1,32,33
 502 155 502 155 499 149 c 128,-1,34
 496 143 496 143 484.5 128.5 c 128,-1,35
 473 114 473 114 461 102.5 c 128,-1,36
 449 91 449 91 429 82 c 128,-1,37
 409 73 409 73 389 73 c 0,38,39
 305 73 305 73 286 157 c 0,40,41
 281 179 281 179 281 203 c 0,42,43
 281 263 281 263 313 331 c 0,44,45
 357 424 357 424 427 451 c 0,46,47
 449 459 449 459 472 459 c 128,-1,48
 495 459 495 459 508 442 c 1,49,50
 529 506 529 506 561 506 c 0,51,52
 573 506 573 506 573 494 c 1,53,54
 517 416 517 416 517 352 c 0,55,56
 517 341 517 341 508 342 c 0,57,58
 497 343 497 343 497 367.5 c 128,-1,59
 497 392 497 392 499.5 403.5 c 128,-1,60
 502 415 502 415 501.5 416.5 c 128,-1,61
 501 418 501 418 498.5 422 c 128,-1,62
 496 426 496 426 493 430 c 0,63,64
 486 438 486 438 469 438 c 0,65,66
 415 438 415 438 374 356 c 128,-1,67
 333 274 333 274 333 196 c 0,68,69
 333 98 333 98 395 98 c 0,70,71
 419 98 419 98 440.5 113 c 128,-1,72
 462 128 462 128 472 143 c 2,73,-1
 481 158 l 1,28,29
EndSplineSet
EndChar

StartChar: ordfeminine
Encoding: 170 170 107
Width: 457
GlyphClass: 2
Flags: W
LayerCount: 2
Fore
SplineSet
133 457 m 0,0,1
 80 457 80 457 80 540 c 0,2,3
 80 607 80 607 120 679 c 1,4,5
 172 768 172 768 240 771 c 0,6,7
 257 771 257 771 269 762 c 128,-1,8
 281 753 281 753 288 735 c 1,9,10
 287 724 287 724 274 724 c 0,11,12
 265 724 265 724 261 732 c 1,13,14
 257 750 257 750 238 750 c 0,15,16
 200 750 200 750 167 681 c 0,17,18
 129 601 129 601 129 529 c 0,19,20
 129 491 129 491 141 483 c 1,21,22
 155 483 155 483 192.5 538.5 c 128,-1,23
 230 594 230 594 260 649 c 2,24,-1
 290 704 l 1,25,26
 309 741 309 741 327.5 741 c 128,-1,27
 346 741 346 741 346 726 c 1,28,29
 327 688 327 688 310.5 613 c 128,-1,30
 294 538 294 538 294 489 c 128,-1,31
 294 440 294 440 297.5 426 c 128,-1,32
 301 412 301 412 311 412 c 0,33,34
 324 412 324 412 332 434 c 0,35,36
 334 441 334 441 341.5 441 c 128,-1,37
 349 441 349 441 349 436 c 2,38,-1
 349 434 l 1,39,40
 333 386 333 386 309 386 c 0,41,42
 282 386 282 386 267.5 420.5 c 128,-1,43
 253 455 253 455 253 506.5 c 128,-1,44
 253 558 253 558 260 599 c 1,45,-1
 255 599 l 1,46,47
 171 457 171 457 133 457 c 0,0,1
EndSplineSet
EndChar

StartChar: guillemotleft
Encoding: 171 171 108
Width: 610
GlyphClass: 2
Flags: W
LayerCount: 2
Fore
SplineSet
206 61 m 1,0,1
 35 257 35 257 35 271 c 0,2,3
 35 278 35 278 44 284 c 2,4,-1
 272 429 l 1,5,-1
 272 397 l 1,6,-1
 93 260 l 1,7,-1
 206 95 l 1,8,-1
 206 61 l 1,0,1
251 263 m 0,9,10
 248 268 248 268 248 273 c 128,-1,11
 248 278 248 278 256 284 c 2,12,-1
 485 429 l 1,13,-1
 485 397 l 1,14,-1
 306 260 l 1,15,-1
 418 95 l 1,16,-1
 418 61 l 1,17,18
 290 209 290 209 251 263 c 0,9,10
EndSplineSet
EndChar

StartChar: logicalnot
Encoding: 172 172 109
Width: 815
GlyphClass: 2
Flags: W
LayerCount: 2
Fore
SplineSet
675 381 m 0,0,1
 700 381 700 381 709.5 370 c 128,-1,2
 719 359 719 359 719 350.5 c 128,-1,3
 719 342 719 342 716 334 c 2,4,-1
 611 91 l 1,5,-1
 579 91 l 1,6,-1
 650 324 l 1,7,-1
 62 336 l 1,8,-1
 62 363 l 1,9,-1
 671 381 l 2,10,11
 673 381 673 381 675 381 c 0,0,1
EndSplineSet
EndChar

StartChar: uni00AD
Encoding: 173 173 110
Width: 495
GlyphClass: 2
Flags: W
LayerCount: 2
Fore
SplineSet
377 254 m 2,0,-1
 95 252 l 2,1,2
 85 252 85 252 85 258 c 0,3,4
 85 260 85 260 86 262 c 0,5,6
 91 279 91 279 130 279 c 1,7,-1
 406 271 l 2,8,9
 415 271 415 271 415 266 c 1,10,11
 409 255 409 255 377 254 c 2,0,-1
EndSplineSet
EndChar

StartChar: registered
Encoding: 174 174 111
Width: 449
GlyphClass: 2
Flags: W
LayerCount: 2
Fore
SplineSet
246.5 773 m 128,-1,1
 307 773 307 773 342.5 733.5 c 128,-1,2
 378 694 378 694 378 643 c 0,3,4
 378 573 378 573 327 527.5 c 128,-1,5
 276 482 276 482 216 482 c 128,-1,6
 156 482 156 482 121 521.5 c 128,-1,7
 86 561 86 561 86 611 c 0,8,9
 86 682 86 682 136 727.5 c 128,-1,0
 186 773 186 773 246.5 773 c 128,-1,1
277 682 m 0,10,11
 287 700 287 700 287 712 c 128,-1,12
 287 724 287 724 276 724 c 0,13,14
 248 724 248 724 217 647.5 c 128,-1,15
 186 571 186 571 186 553 c 0,16,17
 186 549 186 549 182 549 c 0,18,19
 173 549 173 549 173 568 c 0,20,21
 173 617 173 617 182 659.5 c 128,-1,22
 191 702 191 702 205 718 c 1,23,24
 182 714 182 714 162 702 c 128,-1,25
 142 690 142 690 142 672 c 0,26,27
 142 667 142 667 147 667 c 1,28,29
 146 660 146 660 141 660 c 0,30,31
 129 660 129 660 129 677.5 c 128,-1,32
 129 695 129 695 161.5 710 c 128,-1,33
 194 725 194 725 208 725 c 128,-1,34
 222 725 222 725 222 722 c 1,35,36
 208 687 208 687 202 656 c 128,-1,37
 196 625 196 625 195 622 c 1,38,-1
 198 622 l 1,39,40
 235 733 235 733 277 733 c 0,41,42
 305 733 305 733 305 702.5 c 128,-1,43
 305 672 305 672 272 648 c 0,44,45
 259 638 259 638 244 635 c 1,46,47
 254 635 254 635 263.5 610 c 128,-1,48
 273 585 273 585 282.5 556 c 128,-1,49
 292 527 292 527 300 520 c 1,50,51
 357 559 357 559 366 627 c 0,52,53
 367 634 367 634 367 641 c 0,54,55
 367 688 367 688 334 724.5 c 128,-1,56
 301 761 301 761 245.5 761 c 128,-1,57
 190 761 190 761 148 722 c 0,58,59
 98 677 98 677 98 611 c 0,60,61
 98 566 98 566 130 530 c 128,-1,62
 162 494 162 494 217 494 c 0,63,64
 255 494 255 494 288 513 c 1,65,66
 270 524 270 524 252.5 576.5 c 128,-1,67
 235 629 235 629 229 634 c 1,68,69
 223 634 223 634 223 640 c 2,70,-1
 223 642 l 1,71,72
 256 642 256 642 277 682 c 0,10,11
EndSplineSet
EndChar

StartChar: degree
Encoding: 176 176 112
Width: 354
GlyphClass: 2
Flags: W
LayerCount: 2
Fore
SplineSet
119.5 642.5 m 128,-1,1
 146 669 146 669 185.5 669 c 128,-1,2
 225 669 225 669 252 643 c 128,-1,3
 279 617 279 617 279 578 c 128,-1,4
 279 539 279 539 252 512.5 c 128,-1,5
 225 486 225 486 185.5 486 c 128,-1,6
 146 486 146 486 119.5 513 c 128,-1,7
 93 540 93 540 93 578 c 128,-1,0
 93 616 93 616 119.5 642.5 c 128,-1,1
140.5 534.5 m 128,-1,9
 159 516 159 516 184.5 516 c 128,-1,10
 210 516 210 516 228.5 534.5 c 128,-1,11
 247 553 247 553 247 578.5 c 128,-1,12
 247 604 247 604 228.5 622.5 c 128,-1,13
 210 641 210 641 184 641 c 128,-1,14
 158 641 158 641 140 622.5 c 128,-1,15
 122 604 122 604 122 578.5 c 128,-1,8
 122 553 122 553 140.5 534.5 c 128,-1,9
EndSplineSet
EndChar

StartChar: plusminus
Encoding: 177 177 113
Width: 583
GlyphClass: 2
Flags: W
LayerCount: 2
Fore
SplineSet
249 206 m 0,0,1
 233 206 233 206 233 234 c 128,-1,2
 233 262 233 262 239 297 c 1,3,4
 180 295 180 295 96 295 c 0,5,6
 67 295 67 295 63 315 c 1,7,8
 64 330 64 330 75 333 c 1,9,10
 79 327 79 327 96 327 c 2,11,-1
 244 327 l 1,12,13
 259 388 259 388 281 436 c 128,-1,14
 303 484 303 484 321 484 c 0,15,16
 333 484 333 484 333 473 c 1,17,18
 312 429 312 429 285 327 c 1,19,-1
 441 327 l 2,20,21
 449 327 449 327 449 319 c 0,22,23
 449 303 449 303 425.5 303 c 128,-1,24
 402 303 402 303 278 299 c 1,25,-1
 260 216 l 1,26,27
 260 206 260 206 249 206 c 0,0,1
428 153 m 2,28,29
 428 153 428 153 96 145 c 0,30,31
 67 145 67 145 63 165 c 1,32,33
 64 180 64 180 75 183 c 1,34,35
 79 177 79 177 96 177 c 2,36,-1
 441 177 l 2,37,38
 449 177 449 177 449 169 c 0,39,40
 449 153 449 153 428 153 c 2,28,29
EndSplineSet
EndChar

StartChar: twosuperior
Encoding: 178 178 114
Width: 279
GlyphClass: 2
Flags: W
LayerCount: 2
Fore
SplineSet
50 522 m 0,0,1
 65 522 65 522 104 558.5 c 128,-1,2
 143 595 143 595 177.5 645 c 128,-1,3
 212 695 212 695 212 726 c 0,4,5
 212 755 212 755 175.5 755 c 128,-1,6
 139 755 139 755 116 715 c 0,7,8
 101 689 101 689 113 682 c 0,9,10
 115 681 115 681 117 681 c 1,11,12
 114 655 114 655 95.5 655 c 128,-1,13
 77 655 77 655 77 674 c 0,14,15
 77 680 77 680 79 687 c 0,16,17
 88 728 88 728 128 756 c 0,18,19
 157 776 157 776 188 776 c 0,20,21
 255 776 255 776 255 720 c 0,22,23
 255 676 255 676 200.5 616.5 c 128,-1,24
 146 557 146 557 89 520 c 1,25,26
 177 512 177 512 193 512 c 128,-1,27
 209 512 209 512 221 518 c 128,-1,28
 233 524 233 524 236 530 c 2,29,-1
 239 536 l 1,30,31
 249 536 249 536 246 517 c 0,32,33
 241 486 241 486 208 478 c 1,34,-1
 186 475 l 1,35,36
 154 475 154 475 109 488 c 128,-1,37
 64 501 64 501 50 501 c 0,38,39
 46 501 46 501 46 511.5 c 128,-1,40
 46 522 46 522 50 522 c 0,0,1
EndSplineSet
EndChar

StartChar: threesuperior
Encoding: 179 179 115
Width: 290
GlyphClass: 2
Flags: W
LayerCount: 2
Fore
SplineSet
176 634 m 1,0,1
 240 617 240 617 240 552 c 0,2,3
 240 510 240 510 202.5 469 c 128,-1,4
 165 428 165 428 101 428 c 0,5,6
 76 428 76 428 58 435 c 0,7,8
 28 447 28 447 28 465 c 0,9,10
 28 473 28 473 34 479.5 c 128,-1,11
 40 486 40 486 52 491 c 1,12,13
 52 446 52 446 101 446 c 128,-1,14
 150 446 150 446 176 490 c 0,15,16
 193 518 193 518 193 540 c 0,17,18
 193 623 193 623 123 623 c 1,19,20
 124 639 124 639 141 639 c 128,-1,21
 158 639 158 639 184 670 c 128,-1,22
 210 701 210 701 210 731 c 0,23,24
 210 756 210 756 177.5 756 c 128,-1,25
 145 756 145 756 128 727 c 1,26,27
 117 706 117 706 129 701 c 1,28,-1
 134 700 l 1,29,30
 130 679 130 679 111.5 679 c 128,-1,31
 93 679 93 679 93 697 c 0,32,33
 93 733 93 733 138 760 c 0,34,35
 163 775 163 775 191 775 c 0,36,37
 252 775 252 775 252 726 c 0,38,39
 252 692 252 692 216 659 c 0,40,41
 198 643 198 643 176 634 c 1,0,1
EndSplineSet
EndChar

StartChar: acute
Encoding: 180 180 116
Width: 445
GlyphClass: 2
Flags: W
LayerCount: 2
Fore
SplineSet
382 653 m 1,0,1
 352 617 352 617 315 584 c 128,-1,2
 278 551 278 551 268.5 551 c 128,-1,3
 259 551 259 551 259 560.5 c 128,-1,4
 259 570 259 570 282 606.5 c 128,-1,5
 305 643 305 643 336 678 c 0,6,7
 349 693 349 693 359.5 693 c 128,-1,8
 370 693 370 693 379 688.5 c 128,-1,9
 388 684 388 684 388 674.5 c 128,-1,10
 388 665 388 665 382 653 c 1,0,1
EndSplineSet
EndChar

StartChar: mu
Encoding: 181 181 117
Width: 475
GlyphClass: 2
Flags: W
LayerCount: 2
Fore
SplineSet
-28 -288 m 0,0,1
 -79 -288 -79 -288 -79 -189 c 0,2,3
 -79 -103 -79 -103 -42 56 c 1,4,5
 -10 189 -10 189 26 290 c 0,6,7
 95 485 95 485 147 485 c 0,8,9
 165 485 165 485 165 463 c 1,10,11
 123 352 123 352 93 247 c 128,-1,12
 63 142 63 142 63 90.5 c 128,-1,13
 63 39 63 39 87 39 c 0,14,15
 122 39 122 39 198 165 c 128,-1,16
 274 291 274 291 318 388 c 128,-1,17
 362 485 362 485 402 485 c 0,18,19
 422 485 422 485 422 463 c 1,20,21
 396 422 396 422 359 290 c 128,-1,22
 322 158 322 158 322 78 c 128,-1,23
 322 -2 322 -2 354 -2 c 0,24,25
 367 -2 367 -2 377.5 9 c 128,-1,26
 388 20 388 20 396 41 c 1,27,28
 398 50 398 50 406 50 c 0,29,30
 419 50 419 50 418 44 c 0,31,32
 412 18 412 18 390.5 -9.5 c 128,-1,33
 369 -37 369 -37 351 -37 c 0,34,35
 263 -37 263 -37 263 125 c 0,36,37
 263 163 263 163 272 217 c 1,38,-1
 264 217 l 1,39,40
 143 4 143 4 77 4 c 0,41,42
 26 4 26 4 8 61 c 1,43,44
 -21 -74 -21 -74 -21 -168 c 128,-1,45
 -21 -262 -21 -262 9 -262 c 1,46,47
 9 -272 9 -272 -2 -280 c 128,-1,48
 -13 -288 -13 -288 -28 -288 c 0,0,1
EndSplineSet
EndChar

StartChar: paragraph
Encoding: 182 182 118
Width: 698
GlyphClass: 2
Flags: W
LayerCount: 2
Fore
SplineSet
206 -101 m 0,0,1
 71 -101 71 -101 25 -18 c 0,2,3
 7 14 7 14 7 44.5 c 128,-1,4
 7 75 7 75 19 103 c 0,5,6
 48 167 48 167 109 167 c 0,7,8
 126 167 126 167 137 150 c 1,9,10
 92 150 92 150 67 100 c 0,11,12
 53 71 53 71 53 44 c 128,-1,13
 53 17 53 17 66 -8 c 0,14,15
 100 -76 100 -76 206 -76 c 0,16,17
 285 -76 285 -76 340 -34 c 128,-1,18
 395 8 395 8 422 73 c 128,-1,19
 449 138 449 138 469 223 c 128,-1,20
 489 308 489 308 498 386.5 c 128,-1,21
 507 465 507 465 525.5 543 c 128,-1,22
 544 621 544 621 570 663 c 1,23,24
 499 690 499 690 458 690 c 0,25,26
 361 690 361 690 297 592 c 1,27,28
 244 513 244 513 244 424 c 0,29,30
 244 323 244 323 310 297 c 0,31,32
 328 290 328 290 349 290 c 1,33,34
 346 275 346 275 327 275 c 0,35,36
 227 275 227 275 186 360 c 0,37,38
 166 402 166 402 166 446.5 c 128,-1,39
 166 491 166 491 182 536 c 0,40,41
 218 640 218 640 313 686 c 0,42,43
 368 713 368 713 435 713 c 128,-1,44
 502 713 502 713 583 681 c 1,45,46
 585 684 585 684 590 689 c 1,47,48
 623 813 623 813 685 813 c 0,49,50
 698 813 698 813 702 801 c 1,51,-1
 704 797 l 1,52,53
 652 797 652 797 622 715 c 1,54,55
 644 727 644 727 676 727 c 0,56,57
 722 727 722 727 731 696 c 0,58,59
 733 689 733 689 733 683 c 0,60,61
 733 663 733 663 713 649 c 128,-1,62
 693 635 693 635 668.5 635 c 128,-1,63
 644 635 644 635 605 649 c 1,64,65
 591 576 591 576 577 394 c 128,-1,66
 563 212 563 212 550 130 c 0,67,68
 524 -47 524 -47 441 -47 c 0,69,70
 431 -47 431 -47 427 -40.5 c 128,-1,71
 423 -34 423 -34 425 -21 c 1,72,73
 487 -21 487 -21 514 132 c 0,74,75
 527 205 527 205 534 280 c 0,76,77
 561 544 561 544 573 611 c 1,78,79
 548 548 548 548 535 452 c 128,-1,80
 522 356 522 356 510.5 293 c 128,-1,81
 499 230 499 230 486 175 c 128,-1,82
 473 120 473 120 449 68.5 c 128,-1,83
 425 17 425 17 394 -20 c 128,-1,84
 363 -57 363 -57 315 -79 c 128,-1,85
 267 -101 267 -101 206 -101 c 0,0,1
676 706 m 0,86,87
 637 706 637 706 611 677 c 1,88,-1
 610 669 l 1,89,90
 643 657 643 657 666 657 c 0,91,92
 703 657 703 657 709 679 c 0,93,94
 710 682 710 682 710 685 c 0,95,96
 710 698 710 698 692 704 c 0,97,98
 685 706 685 706 676 706 c 0,86,87
EndSplineSet
EndChar

StartChar: periodcentered
Encoding: 183 183 119
Width: 302
GlyphClass: 2
Flags: W
LayerCount: 2
Fore
SplineSet
123 240 m 1,0,1
 102 240 102 240 102 280 c 0,2,3
 102 304 102 304 114.5 331 c 128,-1,4
 127 358 127 358 151 358 c 0,5,6
 172 358 172 358 172 335 c 0,7,8
 172 311 172 311 136 258 c 1,9,-1
 123 240 l 1,0,1
EndSplineSet
EndChar

StartChar: cedilla
Encoding: 184 184 120
Width: 254
GlyphClass: 2
Flags: W
LayerCount: 2
Fore
SplineSet
44 -92 m 0,0,1
 44 -70 44 -70 95 3 c 1,2,-1
 117 3 l 1,3,-1
 71 -79 l 1,4,5
 97 -66 97 -66 130 -66 c 0,6,7
 180 -66 180 -66 190 -104 c 0,8,9
 191 -111 191 -111 191 -119 c 0,10,11
 191 -148 191 -148 157.5 -178.5 c 128,-1,12
 124 -209 124 -209 63 -209 c 128,-1,13
 2 -209 2 -209 2 -170 c 0,14,15
 2 -155 2 -155 16 -148 c 0,16,17
 20 -146 20 -146 26 -146 c 0,18,19
 36 -146 36 -146 40 -158 c 1,20,21
 26 -158 26 -158 24 -173 c 0,22,23
 22 -196 22 -196 59 -196 c 0,24,25
 119 -196 119 -196 146 -152 c 0,26,27
 157 -134 157 -134 157 -120.5 c 128,-1,28
 157 -107 157 -107 147.5 -96 c 128,-1,29
 138 -85 138 -85 120 -85 c 128,-1,30
 102 -85 102 -85 89 -88.5 c 128,-1,31
 76 -92 76 -92 67 -96 c 128,-1,32
 58 -100 58 -100 55 -101 c 1,33,-1
 53 -101 l 2,34,35
 44 -101 44 -101 44 -92 c 0,0,1
EndSplineSet
EndChar

StartChar: onesuperior
Encoding: 185 185 121
Width: 244
GlyphClass: 2
Flags: W
LayerCount: 2
Fore
SplineSet
206 773 m 0,0,1
 214 773 214 773 214 766 c 1,2,3
 189 748 189 748 171 641.5 c 128,-1,4
 153 535 153 535 153 477 c 0,5,6
 153 471 153 471 144 471 c 0,7,8
 125 471 125 471 125 508 c 0,9,10
 125 586 125 586 139 655.5 c 128,-1,11
 153 725 153 725 176 755 c 1,12,13
 137 740 137 740 105 702 c 128,-1,14
 73 664 73 664 73 627 c 0,15,16
 73 606 73 606 91 606 c 1,17,18
 91 591 91 591 74.5 591 c 128,-1,19
 58 591 58 591 49 602.5 c 128,-1,20
 40 614 40 614 40 630 c 0,21,22
 40 678 40 678 96.5 725.5 c 128,-1,23
 153 773 153 773 206 773 c 0,0,1
EndSplineSet
EndChar

StartChar: ordmasculine
Encoding: 186 186 122
Width: 311
GlyphClass: 2
Flags: W
LayerCount: 2
Fore
SplineSet
111 453 m 0,0,1
 35 453 35 453 35 557 c 0,2,3
 35 613 35 613 64 669 c 0,4,5
 100 741 100 741 152 741 c 0,6,7
 162 741 162 741 167.5 736.5 c 128,-1,8
 173 732 173 732 174 724 c 1,9,10
 137 724 137 724 109.5 664.5 c 128,-1,11
 82 605 82 605 82 542 c 128,-1,12
 82 479 82 479 120 479 c 0,13,14
 154 479 154 479 187 552 c 128,-1,15
 220 625 220 625 220 707 c 2,16,-1
 220 715 l 1,17,18
 202 727 202 727 190.5 744 c 128,-1,19
 179 761 179 761 179 769.5 c 128,-1,20
 179 778 179 778 186 785 c 128,-1,21
 193 792 193 792 203.5 792 c 128,-1,22
 214 792 214 792 224.5 772 c 128,-1,23
 235 752 235 752 239 726 c 1,24,25
 256 716 256 716 269.5 716 c 128,-1,26
 283 716 283 716 290 721 c 1,27,28
 290 699 290 699 270 699 c 0,29,30
 253 699 253 699 241 703 c 1,31,32
 239 614 239 614 201 533.5 c 128,-1,33
 163 453 163 453 111 453 c 0,0,1
EndSplineSet
EndChar

StartChar: guillemotright
Encoding: 187 187 123
Width: 578
GlyphClass: 2
Flags: W
LayerCount: 2
Fore
SplineSet
497 226 m 0,0,1
 499 222 499 222 499 217 c 128,-1,2
 499 212 499 212 491 206 c 2,3,-1
 263 61 l 1,4,-1
 263 93 l 1,5,-1
 441 230 l 1,6,-1
 329 394 l 1,7,-1
 329 429 l 1,8,9
 457 280 457 280 497 226 c 0,0,1
284 226 m 0,10,11
 287 222 287 222 287 217 c 128,-1,12
 287 212 287 212 279 206 c 2,13,-1
 50 61 l 1,14,-1
 50 93 l 1,15,-1
 229 230 l 1,16,-1
 117 394 l 1,17,-1
 117 429 l 1,18,19
 245 280 245 280 284 226 c 0,10,11
EndSplineSet
EndChar

StartChar: onequarter
Encoding: 188 188 124
Width: 988
GlyphClass: 2
Flags: W
LayerCount: 2
Fore
SplineSet
829 194 m 0,0,1
 854 194 854 194 854 159 c 128,-1,2
 854 124 854 124 822 96 c 128,-1,3
 790 68 790 68 732 65 c 1,4,5
 722 1 722 1 722 -48 c 0,6,7
 722 -58 722 -58 711 -58 c 0,8,9
 683 -58 683 -58 683 3 c 0,10,11
 683 44 683 44 684 65 c 1,12,13
 631 67 631 67 527 79 c 1,14,15
 507 69 507 69 488 69 c 0,16,17
 447 69 447 69 444 89 c 0,18,19
 442 105 442 105 465 112 c 0,20,21
 473 115 473 115 484 115 c 2,22,-1
 494 115 l 1,23,24
 544 171 544 171 565 340 c 0,25,26
 568 367 568 367 568 400 c 128,-1,27
 568 433 568 433 556 433 c 1,28,-1
 556 434 l 2,29,30
 556 450 556 450 575 450 c 0,31,32
 601 450 601 450 612 385 c 0,33,34
 617 356 617 356 617 319 c 128,-1,35
 617 282 617 282 610 236 c 0,36,37
 596 151 596 151 559 106 c 1,38,39
 660 92 660 92 685 91 c 1,40,41
 693 199 693 199 713 261.5 c 128,-1,42
 733 324 733 324 754.5 348 c 128,-1,43
 776 372 776 372 803 372 c 0,44,45
 815 372 815 372 815 360 c 1,46,47
 769 299 769 299 735 91 c 1,48,49
 796 97 796 97 811 140 c 0,50,51
 820 166 820 166 809 173 c 0,52,53
 807 174 807 174 805 174 c 1,54,55
 808 194 808 194 829 194 c 0,0,1
315 713 m 0,56,57
 333 713 333 713 333 701 c 1,58,59
 293 656 293 656 258 487.5 c 128,-1,60
 223 319 223 319 223 239 c 0,61,62
 223 229 223 229 212 229 c 0,63,64
 184 229 184 229 184 288 c 0,65,66
 184 414 184 414 207 524.5 c 128,-1,67
 230 635 230 635 267 684 c 1,68,69
 205 659 205 659 153 597 c 128,-1,70
 101 535 101 535 101 477 c 0,71,72
 101 444 101 444 121 444 c 1,73,74
 121 422 121 422 99.5 422 c 128,-1,75
 78 422 78 422 66 439 c 128,-1,76
 54 456 54 456 54 483 c 0,77,78
 54 557 54 557 148.5 635 c 128,-1,79
 243 713 243 713 315 713 c 0,56,57
190 -89 m 0,80,81
 178 -89 178 -89 178 -73 c 256,82,83
 178 -57 178 -57 202.5 -7 c 128,-1,84
 227 43 227 43 370.5 358 c 128,-1,85
 514 673 514 673 526.5 698.5 c 128,-1,86
 539 724 539 724 557 724 c 128,-1,87
 575 724 575 724 575 698 c 0,88,89
 575 670 575 670 558 635.5 c 128,-1,90
 541 601 541 601 460 442 c 0,91,92
 267 59 267 59 206 -73 c 0,93,94
 198 -89 198 -89 190 -89 c 0,80,81
EndSplineSet
EndChar

StartChar: onehalf
Encoding: 189 189 125
Width: 926
GlyphClass: 2
Flags: W
LayerCount: 2
Fore
SplineSet
565 340 m 0,0,1
 546 310 546 310 546 287.5 c 128,-1,2
 546 265 546 265 562 264 c 1,3,4
 562 251 562 251 553 240.5 c 128,-1,5
 544 230 544 230 530 230 c 0,6,7
 499 230 499 230 499 264 c 0,8,9
 499 319 499 319 555 375 c 128,-1,10
 611 431 611 431 683 431 c 0,11,12
 792 431 792 431 792 339 c 0,13,14
 792 299 792 299 761 247.5 c 128,-1,15
 730 196 730 196 684 149 c 0,16,17
 586 49 586 49 503 0 c 1,18,19
 506 0 506 0 579 -5 c 128,-1,20
 652 -10 652 -10 684.5 -10 c 128,-1,21
 717 -10 717 -10 736 0 c 128,-1,22
 755 10 755 10 760 20 c 2,23,-1
 765 30 l 1,24,25
 779 30 779 30 776 6 c 1,26,27
 773 -32 773 -32 734 -52 c 0,28,29
 711 -63 711 -63 669 -63 c 128,-1,30
 627 -63 627 -63 552 -42 c 128,-1,31
 477 -21 477 -21 455 -21 c 0,32,33
 452 -21 452 -21 450.5 -15.5 c 128,-1,34
 449 -10 449 -10 451 -4.5 c 128,-1,35
 453 1 453 1 456 1 c 0,36,37
 476 1 476 1 541.5 64 c 128,-1,38
 607 127 607 127 667 213 c 128,-1,39
 727 299 727 299 727 349 c 0,40,41
 727 402 727 402 664.5 402 c 128,-1,42
 602 402 602 402 565 340 c 0,0,1
315 713 m 0,43,44
 333 713 333 713 333 701 c 1,45,46
 293 656 293 656 258 487.5 c 128,-1,47
 223 319 223 319 223 239 c 0,48,49
 223 229 223 229 212 229 c 0,50,51
 184 229 184 229 184 288 c 0,52,53
 184 414 184 414 207 524.5 c 128,-1,54
 230 635 230 635 267 684 c 1,55,56
 205 659 205 659 153 597 c 128,-1,57
 101 535 101 535 101 477 c 0,58,59
 101 444 101 444 121 444 c 1,60,61
 121 422 121 422 99.5 422 c 128,-1,62
 78 422 78 422 66 439 c 128,-1,63
 54 456 54 456 54 483 c 0,64,65
 54 557 54 557 148.5 635 c 128,-1,66
 243 713 243 713 315 713 c 0,43,44
190 -89 m 0,67,68
 178 -89 178 -89 178 -73 c 256,69,70
 178 -57 178 -57 202.5 -7 c 128,-1,71
 227 43 227 43 370.5 358 c 128,-1,72
 514 673 514 673 526.5 698.5 c 128,-1,73
 539 724 539 724 557 724 c 128,-1,74
 575 724 575 724 575 698 c 0,75,76
 575 670 575 670 558 635.5 c 128,-1,77
 541 601 541 601 460 442 c 0,78,79
 267 59 267 59 206 -73 c 0,80,81
 198 -89 198 -89 190 -89 c 0,67,68
EndSplineSet
EndChar

StartChar: threequarters
Encoding: 190 190 126
Width: 1032
GlyphClass: 2
Flags: W
LayerCount: 2
Fore
SplineSet
873 194 m 0,0,1
 899 194 899 194 899 159 c 128,-1,2
 899 124 899 124 866 96 c 128,-1,3
 833 68 833 68 776 65 c 1,4,5
 766 -10 766 -10 766 -48 c 0,6,7
 766 -58 766 -58 756 -58 c 0,8,9
 727 -58 727 -58 727 3 c 0,10,11
 727 44 727 44 728 65 c 1,12,13
 679 67 679 67 571 79 c 1,14,15
 553 69 553 69 528 69 c 128,-1,16
 503 69 503 69 492.5 80.5 c 128,-1,17
 482 92 482 92 493.5 103.5 c 128,-1,18
 505 115 505 115 529 115 c 2,19,-1
 538 115 l 1,20,21
 589 168 589 168 610 340 c 0,22,23
 613 367 613 367 613 400 c 128,-1,24
 613 433 613 433 601 433 c 1,25,-1
 601 436 l 2,26,27
 601 450 601 450 619 450 c 0,28,29
 646 450 646 450 657 385 c 0,30,31
 662 356 662 356 662 319.5 c 128,-1,32
 662 283 662 283 654 236 c 0,33,34
 640 151 640 151 603 106 c 1,35,36
 703 92 703 92 730 91 c 1,37,38
 739 209 739 209 767.5 290.5 c 128,-1,39
 796 372 796 372 847 372 c 0,40,41
 860 372 860 372 860 360 c 1,42,43
 814 299 814 299 780 91 c 1,44,45
 840 97 840 97 856 140 c 0,46,47
 865 166 865 166 853 173 c 0,48,49
 851 174 851 174 849 174 c 1,50,51
 853 194 853 194 873 194 c 0,0,1
222 501 m 1,52,53
 318 474 318 474 318 378 c 0,54,55
 318 316 318 316 268 260 c 0,56,57
 207 193 207 193 109 193 c 0,58,59
 55 193 55 193 28 212 c 128,-1,60
 1 231 1 231 1 245 c 0,61,62
 1 267 1 267 23 280 c 2,63,-1
 30 284 l 1,64,65
 30 261 30 261 48.5 238.5 c 128,-1,66
 67 216 67 216 109 216 c 0,67,68
 187 216 187 216 230 286 c 0,69,70
 255 328 255 328 255 370 c 0,71,72
 255 390 255 390 250 410 c 0,73,74
 228 485 228 485 142 485 c 1,75,76
 144 508 144 508 164 508 c 0,77,78
 197 508 197 508 238.5 554.5 c 128,-1,79
 280 601 280 601 280 647 c 0,80,81
 280 686 280 686 228.5 686 c 128,-1,82
 177 686 177 686 151 643 c 0,83,84
 142 627 142 627 142 617 c 128,-1,85
 142 607 142 607 146.5 603 c 128,-1,86
 151 599 151 599 157 599 c 1,87,88
 153 564 153 564 128 564 c 0,89,90
 95 564 95 564 95 600.5 c 128,-1,91
 95 637 95 637 139 675.5 c 128,-1,92
 183 714 183 714 245 714 c 0,93,94
 325 714 325 714 336 659 c 0,95,96
 338 650 338 650 338 641 c 0,97,98
 338 599 338 599 302 559 c 128,-1,99
 266 519 266 519 222 501 c 1,52,53
234 -89 m 0,100,101
 223 -89 223 -89 223 -73 c 0,102,103
 223 -56 223 -56 247.5 -6 c 128,-1,104
 272 44 272 44 417.5 363.5 c 128,-1,105
 563 683 563 683 573.5 703.5 c 128,-1,106
 584 724 584 724 601.5 724 c 128,-1,107
 619 724 619 724 619 699 c 0,108,109
 619 670 619 670 602 635.5 c 128,-1,110
 585 601 585 601 504 442 c 0,111,112
 311 59 311 59 250 -73 c 0,113,114
 242 -89 242 -89 234 -89 c 0,100,101
EndSplineSet
EndChar

StartChar: questiondown
Encoding: 191 191 127
Width: 492
GlyphClass: 2
Flags: W
LayerCount: 2
Fore
SplineSet
298 -190 m 0,0,1
 330 -143 330 -143 330 -110 c 128,-1,2
 330 -77 330 -77 310 -77 c 1,3,-1
 310 -72 l 2,4,5
 310 -49 310 -49 329 -38 c 0,6,7
 337 -34 337 -34 347 -34 c 0,8,9
 386 -34 386 -34 386 -79 c 0,10,11
 386 -140 386 -140 328 -208 c 0,12,13
 250 -300 250 -300 142 -300 c 0,14,15
 73 -300 73 -300 37.5 -266 c 128,-1,16
 2 -232 2 -232 2 -178 c 128,-1,17
 2 -124 2 -124 35.5 -67.5 c 128,-1,18
 69 -11 69 -11 116 36 c 128,-1,19
 163 83 163 83 210 126 c 0,20,21
 325 231 325 231 325 286 c 0,22,23
 325 297 325 297 342.5 297.5 c 128,-1,24
 360 298 360 298 360 286 c 0,25,26
 360 230 360 230 260 114 c 1,27,28
 218 67 218 67 176 17 c 0,29,30
 76 -104 76 -104 76 -190 c 0,31,32
 76 -268 76 -268 160 -268 c 128,-1,33
 244 -268 244 -268 298 -190 c 0,0,1
359 484 m 128,-1,35
 383 484 383 484 383 461 c 0,36,37
 383 439 383 439 360 386 c 2,38,-1
 352 367 l 1,39,40
 335 367 335 367 326 396 c 0,41,42
 322 410 322 410 322 425 c 128,-1,43
 322 440 322 440 326 454 c 0,44,34
 335 484 335 484 359 484 c 128,-1,35
EndSplineSet
EndChar

StartChar: Agrave
Encoding: 192 192 128
Width: 1057
GlyphClass: 2
Flags: W
LayerCount: 2
Fore
SplineSet
961 1005 m 1,0,1
 997 971 997 971 1031 930 c 128,-1,2
 1065 889 1065 889 1065 879 c 128,-1,3
 1065 869 1065 869 1054 869 c 128,-1,4
 1043 869 1043 869 1007.5 895 c 128,-1,5
 972 921 972 921 934 959 c 1,6,7
 918 973 918 973 918 983 c 128,-1,8
 918 993 918 993 924.5 1003 c 128,-1,9
 931 1013 931 1013 941 1013 c 128,-1,10
 951 1013 951 1013 961 1005 c 1,0,1
369 -14 m 1,11,12
 320 33 320 33 320 127 c 0,13,14
 320 232 320 232 389 344 c 0,15,16
 427 406 427 406 492 446 c 128,-1,17
 557 486 557 486 634 486 c 0,18,19
 668 486 668 486 707 474 c 1,20,21
 783 599 783 599 831 655 c 128,-1,22
 879 711 879 711 914 740 c 0,23,24
 993 804 993 804 1074 804 c 0,25,26
 1090 804 1090 804 1090 788 c 1,27,28
 1024 643 1024 643 988.5 495.5 c 128,-1,29
 953 348 953 348 933.5 208.5 c 128,-1,30
 914 69 914 69 914 -28 c 0,31,32
 914 -42 914 -42 900 -42 c 0,33,34
 865 -42 865 -42 865 38 c 0,35,36
 865 139 865 139 846 221 c 0,37,38
 811 377 811 377 724 427 c 1,39,40
 713 406 713 406 682.5 347 c 128,-1,41
 652 288 652 288 637.5 260.5 c 128,-1,42
 623 233 623 233 594.5 183.5 c 128,-1,43
 566 134 566 134 546 104 c 0,44,45
 498 32 498 32 442 -22 c 1,46,47
 452 -25 452 -25 466 -25 c 0,48,49
 550 -25 550 -25 605 30.5 c 128,-1,50
 660 86 660 86 681 162 c 0,51,52
 684 173 684 173 697 172 c 0,53,54
 705 171 705 171 703 164 c 0,55,56
 681 78 681 78 619.5 13.5 c 128,-1,57
 558 -51 558 -51 465 -51 c 0,58,59
 444 -51 444 -51 418 -44 c 1,60,61
 326 -118 326 -118 222 -118 c 0,62,63
 87 -118 87 -118 30 -12 c 0,64,65
 -1 45 -1 45 -1 111 c 0,66,67
 -1 146 -1 146 8 184 c 0,68,69
 32 287 32 287 106 331 c 0,70,71
 143 353 143 353 187 353 c 0,72,73
 201 353 201 353 210 344.5 c 128,-1,74
 219 336 219 336 223 318 c 1,75,76
 164 318 164 318 117 276 c 0,77,78
 38 207 38 207 38 80 c 0,79,80
 38 3 38 3 84.5 -40.5 c 128,-1,81
 131 -84 131 -84 209.5 -84 c 128,-1,82
 288 -84 288 -84 369 -14 c 1,11,12
633 450 m 0,83,84
 549 450 549 450 482 395 c 128,-1,85
 415 340 415 340 384 266.5 c 128,-1,86
 353 193 353 193 353 118 c 128,-1,87
 353 43 353 43 391 4 c 1,88,89
 429 40 429 40 472 98.5 c 128,-1,90
 515 157 515 157 540 197 c 128,-1,91
 565 237 565 237 618 327 c 128,-1,92
 671 417 671 417 687 443 c 1,93,94
 663 450 663 450 633 450 c 0,83,84
1022 765 m 1,95,96
 942 744 942 744 876 666 c 128,-1,97
 810 588 810 588 741 459 c 1,98,99
 838 406 838 406 877 247 c 1,100,101
 895 417 895 417 935.5 559.5 c 128,-1,102
 976 702 976 702 1022 765 c 1,95,96
EndSplineSet
EndChar

StartChar: Aacute
Encoding: 193 193 129
Width: 1057
GlyphClass: 2
Flags: W
LayerCount: 2
Fore
SplineSet
1143 958 m 1,0,1
 1113 922 1113 922 1076 888.5 c 128,-1,2
 1039 855 1039 855 1029.5 855 c 128,-1,3
 1020 855 1020 855 1020 864.5 c 128,-1,4
 1020 874 1020 874 1042.5 910.5 c 128,-1,5
 1065 947 1065 947 1097 983 c 1,6,7
 1111 997 1111 997 1121 997 c 128,-1,8
 1131 997 1131 997 1140.5 992 c 128,-1,9
 1150 987 1150 987 1150 978 c 128,-1,10
 1150 969 1150 969 1143 958 c 1,0,1
369 -14 m 1,11,12
 320 33 320 33 320 127 c 0,13,14
 320 232 320 232 389 344 c 0,15,16
 427 406 427 406 492 446 c 128,-1,17
 557 486 557 486 634 486 c 0,18,19
 668 486 668 486 707 474 c 1,20,21
 783 599 783 599 831 655 c 128,-1,22
 879 711 879 711 914 740 c 0,23,24
 993 804 993 804 1074 804 c 0,25,26
 1090 804 1090 804 1090 788 c 1,27,28
 1024 643 1024 643 988.5 495.5 c 128,-1,29
 953 348 953 348 933.5 208.5 c 128,-1,30
 914 69 914 69 914 -28 c 0,31,32
 914 -42 914 -42 900 -42 c 0,33,34
 865 -42 865 -42 865 38 c 0,35,36
 865 139 865 139 846 221 c 0,37,38
 811 377 811 377 724 427 c 1,39,40
 713 406 713 406 682.5 347 c 128,-1,41
 652 288 652 288 637.5 260.5 c 128,-1,42
 623 233 623 233 594.5 183.5 c 128,-1,43
 566 134 566 134 546 104 c 0,44,45
 498 32 498 32 442 -22 c 1,46,47
 452 -25 452 -25 466 -25 c 0,48,49
 550 -25 550 -25 605 30.5 c 128,-1,50
 660 86 660 86 681 162 c 0,51,52
 684 173 684 173 697 172 c 0,53,54
 705 171 705 171 703 164 c 0,55,56
 681 78 681 78 619.5 13.5 c 128,-1,57
 558 -51 558 -51 465 -51 c 0,58,59
 444 -51 444 -51 418 -44 c 1,60,61
 326 -118 326 -118 222 -118 c 0,62,63
 87 -118 87 -118 30 -12 c 0,64,65
 -1 45 -1 45 -1 111 c 0,66,67
 -1 146 -1 146 8 184 c 0,68,69
 32 287 32 287 106 331 c 0,70,71
 143 353 143 353 187 353 c 0,72,73
 201 353 201 353 210 344.5 c 128,-1,74
 219 336 219 336 223 318 c 1,75,76
 164 318 164 318 117 276 c 0,77,78
 38 207 38 207 38 80 c 0,79,80
 38 3 38 3 84.5 -40.5 c 128,-1,81
 131 -84 131 -84 209.5 -84 c 128,-1,82
 288 -84 288 -84 369 -14 c 1,11,12
633 450 m 0,83,84
 549 450 549 450 482 395 c 128,-1,85
 415 340 415 340 384 266.5 c 128,-1,86
 353 193 353 193 353 118 c 128,-1,87
 353 43 353 43 391 4 c 1,88,89
 429 40 429 40 472 98.5 c 128,-1,90
 515 157 515 157 540 197 c 128,-1,91
 565 237 565 237 618 327 c 128,-1,92
 671 417 671 417 687 443 c 1,93,94
 663 450 663 450 633 450 c 0,83,84
1022 765 m 1,95,96
 942 744 942 744 876 666 c 128,-1,97
 810 588 810 588 741 459 c 1,98,99
 838 406 838 406 877 247 c 1,100,101
 895 417 895 417 935.5 559.5 c 128,-1,102
 976 702 976 702 1022 765 c 1,95,96
EndSplineSet
EndChar

StartChar: Acircumflex
Encoding: 194 194 130
Width: 1057
GlyphClass: 2
Flags: W
LayerCount: 2
Fore
SplineSet
1060 975 m 128,-1,1
 1068 975 1068 975 1072 967 c 2,2,-1
 1131 849 l 1,3,-1
 1103 849 l 1,4,-1
 1057 926 l 1,5,-1
 927 849 l 1,6,-1
 898 849 l 1,7,8
 994 929 994 929 1042 967 c 0,9,0
 1052 975 1052 975 1060 975 c 128,-1,1
369 -14 m 1,10,11
 320 33 320 33 320 127 c 0,12,13
 320 232 320 232 389 344 c 0,14,15
 427 406 427 406 492 446 c 128,-1,16
 557 486 557 486 634 486 c 0,17,18
 668 486 668 486 707 474 c 1,19,20
 783 599 783 599 831 655 c 128,-1,21
 879 711 879 711 914 740 c 0,22,23
 993 804 993 804 1074 804 c 0,24,25
 1090 804 1090 804 1090 788 c 1,26,27
 1024 643 1024 643 988.5 495.5 c 128,-1,28
 953 348 953 348 933.5 208.5 c 128,-1,29
 914 69 914 69 914 -28 c 0,30,31
 914 -42 914 -42 900 -42 c 0,32,33
 865 -42 865 -42 865 38 c 0,34,35
 865 139 865 139 846 221 c 0,36,37
 811 377 811 377 724 427 c 1,38,39
 713 406 713 406 682.5 347 c 128,-1,40
 652 288 652 288 637.5 260.5 c 128,-1,41
 623 233 623 233 594.5 183.5 c 128,-1,42
 566 134 566 134 546 104 c 0,43,44
 498 32 498 32 442 -22 c 1,45,46
 452 -25 452 -25 466 -25 c 0,47,48
 550 -25 550 -25 605 30.5 c 128,-1,49
 660 86 660 86 681 162 c 0,50,51
 684 173 684 173 697 172 c 0,52,53
 705 171 705 171 703 164 c 0,54,55
 681 78 681 78 619.5 13.5 c 128,-1,56
 558 -51 558 -51 465 -51 c 0,57,58
 444 -51 444 -51 418 -44 c 1,59,60
 326 -118 326 -118 222 -118 c 0,61,62
 87 -118 87 -118 30 -12 c 0,63,64
 -1 45 -1 45 -1 111 c 0,65,66
 -1 146 -1 146 8 184 c 0,67,68
 32 287 32 287 106 331 c 0,69,70
 143 353 143 353 187 353 c 0,71,72
 201 353 201 353 210 344.5 c 128,-1,73
 219 336 219 336 223 318 c 1,74,75
 164 318 164 318 117 276 c 0,76,77
 38 207 38 207 38 80 c 0,78,79
 38 3 38 3 84.5 -40.5 c 128,-1,80
 131 -84 131 -84 209.5 -84 c 128,-1,81
 288 -84 288 -84 369 -14 c 1,10,11
633 450 m 0,82,83
 549 450 549 450 482 395 c 128,-1,84
 415 340 415 340 384 266.5 c 128,-1,85
 353 193 353 193 353 118 c 128,-1,86
 353 43 353 43 391 4 c 1,87,88
 429 40 429 40 472 98.5 c 128,-1,89
 515 157 515 157 540 197 c 128,-1,90
 565 237 565 237 618 327 c 128,-1,91
 671 417 671 417 687 443 c 1,92,93
 663 450 663 450 633 450 c 0,82,83
1022 765 m 1,94,95
 942 744 942 744 876 666 c 128,-1,96
 810 588 810 588 741 459 c 1,97,98
 838 406 838 406 877 247 c 1,99,100
 895 417 895 417 935.5 559.5 c 128,-1,101
 976 702 976 702 1022 765 c 1,94,95
EndSplineSet
EndChar

StartChar: Atilde
Encoding: 195 195 131
Width: 1057
GlyphClass: 2
Flags: W
LayerCount: 2
Fore
SplineSet
966 909 m 0,0,1
 941 909 941 909 918 868 c 1,2,-1
 886 868 l 1,3,4
 894 893 894 893 913 911 c 0,5,6
 950 946 950 946 987 946 c 0,7,8
 1005 946 1005 946 1032.5 922.5 c 128,-1,9
 1060 899 1060 899 1082.5 899 c 128,-1,10
 1105 899 1105 899 1125 935 c 1,11,-1
 1155 935 l 1,12,13
 1153 932 1153 932 1150.5 926.5 c 128,-1,14
 1148 921 1148 921 1138.5 907.5 c 128,-1,15
 1129 894 1129 894 1118 884 c 0,16,17
 1091 856 1091 856 1065 856 c 128,-1,18
 1039 856 1039 856 1009.5 882.5 c 128,-1,19
 980 909 980 909 966 909 c 0,0,1
369 -14 m 1,20,21
 320 33 320 33 320 127 c 0,22,23
 320 232 320 232 389 344 c 0,24,25
 427 406 427 406 492 446 c 128,-1,26
 557 486 557 486 634 486 c 0,27,28
 668 486 668 486 707 474 c 1,29,30
 783 599 783 599 831 655 c 128,-1,31
 879 711 879 711 914 740 c 0,32,33
 993 804 993 804 1074 804 c 0,34,35
 1090 804 1090 804 1090 788 c 1,36,37
 1024 643 1024 643 988.5 495.5 c 128,-1,38
 953 348 953 348 933.5 208.5 c 128,-1,39
 914 69 914 69 914 -28 c 0,40,41
 914 -42 914 -42 900 -42 c 0,42,43
 865 -42 865 -42 865 38 c 0,44,45
 865 139 865 139 846 221 c 0,46,47
 811 377 811 377 724 427 c 1,48,49
 713 406 713 406 682.5 347 c 128,-1,50
 652 288 652 288 637.5 260.5 c 128,-1,51
 623 233 623 233 594.5 183.5 c 128,-1,52
 566 134 566 134 546 104 c 0,53,54
 498 32 498 32 442 -22 c 1,55,56
 452 -25 452 -25 466 -25 c 0,57,58
 550 -25 550 -25 605 30.5 c 128,-1,59
 660 86 660 86 681 162 c 0,60,61
 684 173 684 173 697 172 c 0,62,63
 705 171 705 171 703 164 c 0,64,65
 681 78 681 78 619.5 13.5 c 128,-1,66
 558 -51 558 -51 465 -51 c 0,67,68
 444 -51 444 -51 418 -44 c 1,69,70
 326 -118 326 -118 222 -118 c 0,71,72
 87 -118 87 -118 30 -12 c 0,73,74
 -1 45 -1 45 -1 111 c 0,75,76
 -1 146 -1 146 8 184 c 0,77,78
 32 287 32 287 106 331 c 0,79,80
 143 353 143 353 187 353 c 0,81,82
 201 353 201 353 210 344.5 c 128,-1,83
 219 336 219 336 223 318 c 1,84,85
 164 318 164 318 117 276 c 0,86,87
 38 207 38 207 38 80 c 0,88,89
 38 3 38 3 84.5 -40.5 c 128,-1,90
 131 -84 131 -84 209.5 -84 c 128,-1,91
 288 -84 288 -84 369 -14 c 1,20,21
633 450 m 0,92,93
 549 450 549 450 482 395 c 128,-1,94
 415 340 415 340 384 266.5 c 128,-1,95
 353 193 353 193 353 118 c 128,-1,96
 353 43 353 43 391 4 c 1,97,98
 429 40 429 40 472 98.5 c 128,-1,99
 515 157 515 157 540 197 c 128,-1,100
 565 237 565 237 618 327 c 128,-1,101
 671 417 671 417 687 443 c 1,102,103
 663 450 663 450 633 450 c 0,92,93
1022 765 m 1,104,105
 942 744 942 744 876 666 c 128,-1,106
 810 588 810 588 741 459 c 1,107,108
 838 406 838 406 877 247 c 1,109,110
 895 417 895 417 935.5 559.5 c 128,-1,111
 976 702 976 702 1022 765 c 1,104,105
EndSplineSet
EndChar

StartChar: Adieresis
Encoding: 196 196 132
Width: 1057
GlyphClass: 2
Flags: W
LayerCount: 2
Fore
SplineSet
969 856 m 1,0,1
 948 856 948 856 948 896 c 0,2,3
 948 920 948 920 961 947 c 128,-1,4
 974 974 974 974 998 974 c 0,5,6
 1018 974 1018 974 1018 951 c 0,7,8
 1018 927 1018 927 982 874 c 1,9,-1
 969 856 l 1,0,1
1112 856 m 1,10,11
 1091 856 1091 856 1091 897 c 0,12,13
 1091 921 1091 921 1103.5 947.5 c 128,-1,14
 1116 974 1116 974 1140 974 c 0,15,16
 1161 974 1161 974 1161 951 c 0,17,18
 1161 930 1161 930 1124 874 c 2,19,-1
 1112 856 l 1,10,11
369 -14 m 1,20,21
 320 33 320 33 320 127 c 0,22,23
 320 232 320 232 389 344 c 0,24,25
 427 406 427 406 492 446 c 128,-1,26
 557 486 557 486 634 486 c 0,27,28
 668 486 668 486 707 474 c 1,29,30
 783 599 783 599 831 655 c 128,-1,31
 879 711 879 711 914 740 c 0,32,33
 993 804 993 804 1074 804 c 0,34,35
 1090 804 1090 804 1090 788 c 1,36,37
 1024 643 1024 643 988.5 495.5 c 128,-1,38
 953 348 953 348 933.5 208.5 c 128,-1,39
 914 69 914 69 914 -28 c 0,40,41
 914 -42 914 -42 900 -42 c 0,42,43
 865 -42 865 -42 865 38 c 0,44,45
 865 139 865 139 846 221 c 0,46,47
 811 377 811 377 724 427 c 1,48,49
 713 406 713 406 682.5 347 c 128,-1,50
 652 288 652 288 637.5 260.5 c 128,-1,51
 623 233 623 233 594.5 183.5 c 128,-1,52
 566 134 566 134 546 104 c 0,53,54
 498 32 498 32 442 -22 c 1,55,56
 452 -25 452 -25 466 -25 c 0,57,58
 550 -25 550 -25 605 30.5 c 128,-1,59
 660 86 660 86 681 162 c 0,60,61
 684 173 684 173 697 172 c 0,62,63
 705 171 705 171 703 164 c 0,64,65
 681 78 681 78 619.5 13.5 c 128,-1,66
 558 -51 558 -51 465 -51 c 0,67,68
 444 -51 444 -51 418 -44 c 1,69,70
 326 -118 326 -118 222 -118 c 0,71,72
 87 -118 87 -118 30 -12 c 0,73,74
 -1 45 -1 45 -1 111 c 0,75,76
 -1 146 -1 146 8 184 c 0,77,78
 32 287 32 287 106 331 c 0,79,80
 143 353 143 353 187 353 c 0,81,82
 201 353 201 353 210 344.5 c 128,-1,83
 219 336 219 336 223 318 c 1,84,85
 164 318 164 318 117 276 c 0,86,87
 38 207 38 207 38 80 c 0,88,89
 38 3 38 3 84.5 -40.5 c 128,-1,90
 131 -84 131 -84 209.5 -84 c 128,-1,91
 288 -84 288 -84 369 -14 c 1,20,21
633 450 m 0,92,93
 549 450 549 450 482 395 c 128,-1,94
 415 340 415 340 384 266.5 c 128,-1,95
 353 193 353 193 353 118 c 128,-1,96
 353 43 353 43 391 4 c 1,97,98
 429 40 429 40 472 98.5 c 128,-1,99
 515 157 515 157 540 197 c 128,-1,100
 565 237 565 237 618 327 c 128,-1,101
 671 417 671 417 687 443 c 1,102,103
 663 450 663 450 633 450 c 0,92,93
1022 765 m 1,104,105
 942 744 942 744 876 666 c 128,-1,106
 810 588 810 588 741 459 c 1,107,108
 838 406 838 406 877 247 c 1,109,110
 895 417 895 417 935.5 559.5 c 128,-1,111
 976 702 976 702 1022 765 c 1,104,105
EndSplineSet
EndChar

StartChar: Aring
Encoding: 197 197 133
Width: 1057
GlyphClass: 2
Flags: W
LayerCount: 2
Fore
SplineSet
979.5 982 m 128,-1,1
 1000 1003 1000 1003 1030.5 1003 c 128,-1,2
 1061 1003 1061 1003 1082 982 c 128,-1,3
 1103 961 1103 961 1103 931 c 128,-1,4
 1103 901 1103 901 1082 880 c 128,-1,5
 1061 859 1061 859 1030.5 859 c 128,-1,6
 1000 859 1000 859 979.5 880.5 c 128,-1,7
 959 902 959 902 959 931.5 c 128,-1,0
 959 961 959 961 979.5 982 c 128,-1,1
1029 891 m 128,-1,9
 1046 891 1046 891 1058.5 903 c 128,-1,10
 1071 915 1071 915 1071 932 c 128,-1,11
 1071 949 1071 949 1058.5 961 c 128,-1,12
 1046 973 1046 973 1029 973 c 128,-1,13
 1012 973 1012 973 1000 961 c 128,-1,14
 988 949 988 949 988 932 c 128,-1,15
 988 915 988 915 1000 903 c 128,-1,8
 1012 891 1012 891 1029 891 c 128,-1,9
369 -14 m 1,16,17
 320 33 320 33 320 127 c 0,18,19
 320 232 320 232 389 344 c 0,20,21
 427 406 427 406 492 446 c 128,-1,22
 557 486 557 486 634 486 c 0,23,24
 668 486 668 486 707 474 c 1,25,26
 783 599 783 599 831 655 c 128,-1,27
 879 711 879 711 914 740 c 0,28,29
 993 804 993 804 1074 804 c 0,30,31
 1090 804 1090 804 1090 788 c 1,32,33
 1024 643 1024 643 988.5 495.5 c 128,-1,34
 953 348 953 348 933.5 208.5 c 128,-1,35
 914 69 914 69 914 -28 c 0,36,37
 914 -42 914 -42 900 -42 c 0,38,39
 865 -42 865 -42 865 38 c 0,40,41
 865 139 865 139 846 221 c 0,42,43
 811 377 811 377 724 427 c 1,44,45
 713 406 713 406 682.5 347 c 128,-1,46
 652 288 652 288 637.5 260.5 c 128,-1,47
 623 233 623 233 594.5 183.5 c 128,-1,48
 566 134 566 134 546 104 c 0,49,50
 498 32 498 32 442 -22 c 1,51,52
 452 -25 452 -25 466 -25 c 0,53,54
 550 -25 550 -25 605 30.5 c 128,-1,55
 660 86 660 86 681 162 c 0,56,57
 684 173 684 173 697 172 c 0,58,59
 705 171 705 171 703 164 c 0,60,61
 681 78 681 78 619.5 13.5 c 128,-1,62
 558 -51 558 -51 465 -51 c 0,63,64
 444 -51 444 -51 418 -44 c 1,65,66
 326 -118 326 -118 222 -118 c 0,67,68
 87 -118 87 -118 30 -12 c 0,69,70
 -1 45 -1 45 -1 111 c 0,71,72
 -1 146 -1 146 8 184 c 0,73,74
 32 287 32 287 106 331 c 0,75,76
 143 353 143 353 187 353 c 0,77,78
 201 353 201 353 210 344.5 c 128,-1,79
 219 336 219 336 223 318 c 1,80,81
 164 318 164 318 117 276 c 0,82,83
 38 207 38 207 38 80 c 0,84,85
 38 3 38 3 84.5 -40.5 c 128,-1,86
 131 -84 131 -84 209.5 -84 c 128,-1,87
 288 -84 288 -84 369 -14 c 1,16,17
633 450 m 0,88,89
 549 450 549 450 482 395 c 128,-1,90
 415 340 415 340 384 266.5 c 128,-1,91
 353 193 353 193 353 118 c 128,-1,92
 353 43 353 43 391 4 c 1,93,94
 429 40 429 40 472 98.5 c 128,-1,95
 515 157 515 157 540 197 c 128,-1,96
 565 237 565 237 618 327 c 128,-1,97
 671 417 671 417 687 443 c 1,98,99
 663 450 663 450 633 450 c 0,88,89
1022 765 m 1,100,101
 942 744 942 744 876 666 c 128,-1,102
 810 588 810 588 741 459 c 1,103,104
 838 406 838 406 877 247 c 1,105,106
 895 417 895 417 935.5 559.5 c 128,-1,107
 976 702 976 702 1022 765 c 1,100,101
EndSplineSet
EndChar

StartChar: AE
Encoding: 198 198 134
Width: 1459
GlyphClass: 2
Flags: W
LayerCount: 2
Fore
SplineSet
826 80 m 1,0,-1
 828 145 l 1,1,2
 828 358 828 358 724 425 c 1,3,4
 636 258 636 258 618.5 226 c 128,-1,5
 601 194 601 194 568 139 c 0,6,7
 509 43 509 43 442 -22 c 1,8,9
 463 -25 463 -25 466 -25 c 0,10,11
 550 -25 550 -25 605 30.5 c 128,-1,12
 660 86 660 86 681 162 c 0,13,14
 684 173 684 173 697 172 c 0,15,16
 705 171 705 171 703 164 c 0,17,18
 681 78 681 78 619.5 13.5 c 128,-1,19
 558 -51 558 -51 465 -51 c 0,20,21
 444 -51 444 -51 418 -44 c 1,22,23
 326 -118 326 -118 222 -118 c 0,24,25
 87 -118 87 -118 30 -12 c 0,26,27
 -1 45 -1 45 -1 111 c 0,28,29
 -1 146 -1 146 8 184 c 0,30,31
 32 287 32 287 106 331 c 0,32,33
 143 353 143 353 187 353 c 0,34,35
 201 353 201 353 210 344.5 c 128,-1,36
 219 336 219 336 223 318 c 1,37,38
 164 318 164 318 117 276 c 0,39,40
 38 207 38 207 38 80 c 0,41,42
 38 3 38 3 84.5 -40.5 c 128,-1,43
 131 -84 131 -84 209.5 -84 c 128,-1,44
 288 -84 288 -84 369 -14 c 1,45,46
 320 33 320 33 320 127 c 0,47,48
 320 232 320 232 389 344 c 0,49,50
 427 406 427 406 492 446 c 128,-1,51
 557 486 557 486 634 486 c 0,52,53
 668 486 668 486 706 474 c 1,54,55
 794 618 794 618 876 704 c 1,56,57
 969 804 969 804 1074 804 c 0,58,59
 1076 804 1076 804 1076 796 c 128,-1,60
 1076 788 1076 788 1075 772 c 1,61,62
 971 772 971 772 887 678 c 0,63,64
 845 631 845 631 812.5 581 c 128,-1,65
 780 531 780 531 740 458 c 1,66,67
 838 399 838 399 855 211 c 1,68,69
 895 306 895 306 977 379 c 128,-1,70
 1059 452 1059 452 1169 476 c 1,71,72
 1089 505 1089 505 1089 576 c 128,-1,73
 1089 647 1089 647 1155 706 c 0,74,75
 1231 774 1231 774 1339 774 c 0,76,77
 1358 774 1358 774 1367 760 c 128,-1,78
 1376 746 1376 746 1376 732 c 1,79,-1
 1375 719 l 1,80,81
 1367 723 1367 723 1340 723 c 0,82,83
 1250 723 1250 723 1187 659 c 0,84,85
 1144 614 1144 614 1144 571 c 0,86,87
 1144 487 1144 487 1269 487 c 0,88,89
 1280 487 1280 487 1287.5 480.5 c 128,-1,90
 1295 474 1295 474 1299 461 c 1,91,92
 1127 461 1127 461 1010 328 c 0,93,94
 900 204 900 204 900 53 c 0,95,96
 900 -34 900 -34 950 -81 c 0,97,98
 989 -119 989 -119 1052 -119 c 0,99,100
 1194 -119 1194 -119 1270 1 c 0,101,102
 1320 79 1320 79 1320 165 c 0,103,104
 1320 259 1320 259 1273 276 c 0,105,106
 1265 279 1265 279 1256 279 c 1,107,108
 1269 302 1269 302 1304 302 c 0,109,110
 1353 302 1353 302 1368 237 c 0,111,112
 1373 213 1373 213 1373 187 c 0,113,114
 1373 126 1373 126 1343 53 c 1,115,116
 1289 -73 1289 -73 1180 -124 c 0,117,118
 1120 -152 1120 -152 1051 -152 c 0,119,120
 930 -152 930 -152 878 -84 c 128,-1,121
 826 -16 826 -16 826 80 c 1,0,-1
633 450 m 0,122,123
 549 450 549 450 482 395 c 128,-1,124
 415 340 415 340 384 266.5 c 128,-1,125
 353 193 353 193 353 118 c 128,-1,126
 353 43 353 43 391 4 c 1,127,128
 454 64 454 64 540 196 c 1,129,130
 581 261 581 261 687 442 c 1,131,132
 666 450 666 450 633 450 c 0,122,123
1410 548 m 0,133,134
 1410 543 1410 543 1401 543 c 0,135,136
 1375 543 1375 543 1375 558 c 0,137,138
 1375 660 1375 660 1398 722.5 c 128,-1,139
 1421 785 1421 785 1459 785 c 0,140,141
 1468 785 1468 785 1475.5 777.5 c 128,-1,142
 1483 770 1483 770 1483 759 c 1,143,144
 1437 713 1437 713 1418 625 c 0,145,146
 1410 588 1410 588 1410 548 c 0,133,134
EndSplineSet
EndChar

StartChar: Ccedilla
Encoding: 199 199 135
Width: 605
GlyphClass: 2
Flags: W
LayerCount: 2
Fore
SplineSet
519 726 m 0,0,1
 381 726 381 726 272 565 c 0,2,3
 178 426 178 426 149 241 c 0,4,5
 139 180 139 180 139 129 c 0,6,7
 139 31 139 31 175 -28.5 c 128,-1,8
 211 -88 211 -88 276 -88 c 0,9,10
 364 -88 364 -88 426 13 c 0,11,12
 468 81 468 81 468 133 c 0,13,14
 468 156 468 156 456 156 c 1,15,16
 462 179 462 179 486 179 c 0,17,18
 514 179 514 179 514 139 c 0,19,20
 514 64 514 64 448 -21 c 0,21,22
 369 -122 369 -122 263 -122 c 0,23,24
 245 -122 245 -122 223 -117 c 1,25,-1
 185 -186 l 1,26,27
 211 -173 211 -173 244 -173 c 0,28,29
 294 -173 294 -173 304 -211 c 0,30,31
 305 -218 305 -218 305 -226 c 0,32,33
 305 -255 305 -255 271.5 -285.5 c 128,-1,34
 238 -316 238 -316 180.5 -316 c 128,-1,35
 123 -316 123 -316 117 -285 c 0,36,37
 113 -264 113 -264 130 -255 c 0,38,39
 134 -253 134 -253 140 -253 c 0,40,41
 150 -253 150 -253 154 -265 c 1,42,43
 140 -265 140 -265 138 -280 c 0,44,45
 136 -303 136 -303 173 -303 c 0,46,47
 232 -303 232 -303 260 -259 c 0,48,49
 271 -241 271 -241 271 -227 c 128,-1,50
 271 -213 271 -213 261.5 -202 c 128,-1,51
 252 -191 252 -191 234 -191 c 128,-1,52
 216 -191 216 -191 203 -194.5 c 128,-1,53
 190 -198 190 -198 181 -202.5 c 128,-1,54
 172 -207 172 -207 169 -208 c 1,55,-1
 167 -208 l 2,56,57
 157 -208 157 -208 157 -199.5 c 128,-1,58
 157 -191 157 -191 169 -167 c 128,-1,59
 181 -143 181 -143 203 -113 c 1,60,61
 117 -87 117 -87 82 13 c 0,62,63
 60 74 60 74 60 132 c 0,64,65
 60 295 60 295 146 487 c 0,66,67
 200 609 200 609 301 691.5 c 128,-1,68
 402 774 402 774 517 774 c 0,69,70
 537 774 537 774 546 761 c 128,-1,71
 555 748 555 748 554 736 c 1,72,-1
 554 723 l 1,73,74
 546 726 546 726 519 726 c 0,0,1
579 514 m 0,75,76
 579 509 579 509 567 509 c 1,77,-1
 554 512 l 1,78,79
 545 516 545 516 545 523 c 0,80,81
 545 625 545 625 568 687.5 c 128,-1,82
 591 750 591 750 628 750 c 0,83,84
 638 750 638 750 645 743 c 128,-1,85
 652 736 652 736 652 724 c 1,86,87
 606 678 606 678 587 590 c 0,88,89
 579 554 579 554 579 514 c 0,75,76
EndSplineSet
EndChar

StartChar: Egrave
Encoding: 200 200 136
Width: 632
GlyphClass: 2
Flags: W
LayerCount: 2
Fore
SplineSet
453 970 m 0,0,1
 490 936 490 936 523.5 894.5 c 128,-1,2
 557 853 557 853 557 844 c 128,-1,3
 557 835 557 835 546.5 835 c 128,-1,4
 536 835 536 835 499.5 861 c 128,-1,5
 463 887 463 887 425 924 c 0,6,7
 411 938 411 938 411 948.5 c 128,-1,8
 411 959 411 959 417 969.5 c 128,-1,9
 423 980 423 980 433 980 c 128,-1,10
 443 980 443 980 453 970 c 0,0,1
477 302 m 0,11,12
 526 302 526 302 541 237 c 0,13,14
 547 213 547 213 547 187 c 0,15,16
 547 126 547 126 516 53 c 0,17,18
 462 -73 462 -73 353 -124 c 0,19,20
 293 -152 293 -152 224 -152 c 0,21,22
 76 -152 76 -152 22 -44 c 0,23,24
 -3 6 -3 6 -3 63 c 128,-1,25
 -3 120 -3 120 18 182 c 0,26,27
 64 318 64 318 182 404 c 0,28,29
 255 456 255 456 343 476 c 1,30,31
 263 505 263 505 263 576 c 128,-1,32
 263 647 263 647 334 710.5 c 128,-1,33
 405 774 405 774 513 774 c 0,34,35
 531 774 531 774 540 760 c 128,-1,36
 549 746 549 746 548 732 c 1,37,-1
 548 719 l 1,38,39
 540 723 540 723 514 723 c 0,40,41
 423 723 423 723 361 659 c 0,42,43
 317 614 317 614 317 570 c 0,44,45
 317 487 317 487 442 487 c 0,46,47
 453 487 453 487 460.5 480.5 c 128,-1,48
 468 474 468 474 473 461 c 1,49,50
 300 461 300 461 183 328 c 0,51,52
 73 204 73 204 73 52 c 0,53,54
 73 -34 73 -34 123 -81 c 0,55,56
 162 -119 162 -119 225 -119 c 0,57,58
 367 -119 367 -119 443 1 c 0,59,60
 493 79 493 79 493 165 c 0,61,62
 493 259 493 259 446 276 c 0,63,64
 438 279 438 279 429 279 c 1,65,66
 442 302 442 302 477 302 c 0,11,12
583 548 m 0,67,68
 583 543 583 543 574 543 c 128,-1,69
 565 543 565 543 556.5 547 c 128,-1,70
 548 551 548 551 548 558 c 0,71,72
 548 660 548 660 571 722.5 c 128,-1,73
 594 785 594 785 632 785 c 0,74,75
 642 785 642 785 649 777.5 c 128,-1,76
 656 770 656 770 656 759 c 1,77,78
 610 713 610 713 591 625 c 0,79,80
 583 588 583 588 583 548 c 0,67,68
EndSplineSet
EndChar

StartChar: Eacute
Encoding: 201 201 137
Width: 632
GlyphClass: 2
Flags: W
LayerCount: 2
Fore
SplineSet
620 925 m 1,0,1
 592 890 592 890 555 856 c 128,-1,2
 518 822 518 822 508 822 c 128,-1,3
 498 822 498 822 498 830 c 0,4,5
 498 842 498 842 520.5 878 c 128,-1,6
 543 914 543 914 575 950 c 0,7,8
 587 964 587 964 597.5 964 c 128,-1,9
 608 964 608 964 617.5 959 c 128,-1,10
 627 954 627 954 627 945 c 128,-1,11
 627 936 627 936 620 925 c 1,0,1
477 302 m 0,12,13
 526 302 526 302 541 237 c 0,14,15
 547 213 547 213 547 187 c 0,16,17
 547 126 547 126 516 53 c 0,18,19
 462 -73 462 -73 353 -124 c 0,20,21
 293 -152 293 -152 224 -152 c 0,22,23
 76 -152 76 -152 22 -44 c 0,24,25
 -3 6 -3 6 -3 63 c 128,-1,26
 -3 120 -3 120 18 182 c 0,27,28
 64 318 64 318 182 404 c 0,29,30
 255 456 255 456 343 476 c 1,31,32
 263 505 263 505 263 576 c 128,-1,33
 263 647 263 647 334 710.5 c 128,-1,34
 405 774 405 774 513 774 c 0,35,36
 531 774 531 774 540 760 c 128,-1,37
 549 746 549 746 548 732 c 1,38,-1
 548 719 l 1,39,40
 540 723 540 723 514 723 c 0,41,42
 423 723 423 723 361 659 c 0,43,44
 317 614 317 614 317 570 c 0,45,46
 317 487 317 487 442 487 c 0,47,48
 453 487 453 487 460.5 480.5 c 128,-1,49
 468 474 468 474 473 461 c 1,50,51
 300 461 300 461 183 328 c 0,52,53
 73 204 73 204 73 52 c 0,54,55
 73 -34 73 -34 123 -81 c 0,56,57
 162 -119 162 -119 225 -119 c 0,58,59
 367 -119 367 -119 443 1 c 0,60,61
 493 79 493 79 493 165 c 0,62,63
 493 259 493 259 446 276 c 0,64,65
 438 279 438 279 429 279 c 1,66,67
 442 302 442 302 477 302 c 0,12,13
583 548 m 0,68,69
 583 543 583 543 574 543 c 128,-1,70
 565 543 565 543 556.5 547 c 128,-1,71
 548 551 548 551 548 558 c 0,72,73
 548 660 548 660 571 722.5 c 128,-1,74
 594 785 594 785 632 785 c 0,75,76
 642 785 642 785 649 777.5 c 128,-1,77
 656 770 656 770 656 759 c 1,78,79
 610 713 610 713 591 625 c 0,80,81
 583 588 583 588 583 548 c 0,68,69
EndSplineSet
EndChar

StartChar: Ecircumflex
Encoding: 202 202 138
Width: 632
GlyphClass: 2
Flags: W
LayerCount: 2
Fore
SplineSet
535 950 m 128,-1,1
 542 950 542 950 546 942 c 2,2,-1
 606 824 l 1,3,-1
 578 824 l 1,4,-1
 532 901 l 1,5,-1
 402 824 l 1,6,-1
 373 824 l 1,7,8
 469 904 469 904 517 942 c 0,9,0
 528 950 528 950 535 950 c 128,-1,1
477 302 m 0,10,11
 526 302 526 302 541 237 c 0,12,13
 547 213 547 213 547 187 c 0,14,15
 547 126 547 126 516 53 c 0,16,17
 462 -73 462 -73 353 -124 c 0,18,19
 293 -152 293 -152 224 -152 c 0,20,21
 76 -152 76 -152 22 -44 c 0,22,23
 -3 6 -3 6 -3 63 c 128,-1,24
 -3 120 -3 120 18 182 c 0,25,26
 64 318 64 318 182 404 c 0,27,28
 255 456 255 456 343 476 c 1,29,30
 263 505 263 505 263 576 c 128,-1,31
 263 647 263 647 334 710.5 c 128,-1,32
 405 774 405 774 513 774 c 0,33,34
 531 774 531 774 540 760 c 128,-1,35
 549 746 549 746 548 732 c 1,36,-1
 548 719 l 1,37,38
 540 723 540 723 514 723 c 0,39,40
 423 723 423 723 361 659 c 0,41,42
 317 614 317 614 317 570 c 0,43,44
 317 487 317 487 442 487 c 0,45,46
 453 487 453 487 460.5 480.5 c 128,-1,47
 468 474 468 474 473 461 c 1,48,49
 300 461 300 461 183 328 c 0,50,51
 73 204 73 204 73 52 c 0,52,53
 73 -34 73 -34 123 -81 c 0,54,55
 162 -119 162 -119 225 -119 c 0,56,57
 367 -119 367 -119 443 1 c 0,58,59
 493 79 493 79 493 165 c 0,60,61
 493 259 493 259 446 276 c 0,62,63
 438 279 438 279 429 279 c 1,64,65
 442 302 442 302 477 302 c 0,10,11
583 548 m 0,66,67
 583 543 583 543 574 543 c 128,-1,68
 565 543 565 543 556.5 547 c 128,-1,69
 548 551 548 551 548 558 c 0,70,71
 548 660 548 660 571 722.5 c 128,-1,72
 594 785 594 785 632 785 c 0,73,74
 642 785 642 785 649 777.5 c 128,-1,75
 656 770 656 770 656 759 c 1,76,77
 610 713 610 713 591 625 c 0,78,79
 583 588 583 588 583 548 c 0,66,67
EndSplineSet
EndChar

StartChar: Edieresis
Encoding: 203 203 139
Width: 632
GlyphClass: 2
Flags: W
LayerCount: 2
Fore
SplineSet
413 819 m 1,0,1
 392 819 392 819 392 859 c 0,2,3
 392 883 392 883 404.5 909.5 c 128,-1,4
 417 936 417 936 441 936 c 0,5,6
 462 936 462 936 462 913 c 0,7,8
 462 901 462 901 450 877.5 c 128,-1,9
 438 854 438 854 426 836 c 1,10,-1
 413 819 l 1,0,1
555 819 m 1,11,12
 534 819 534 819 534 859 c 0,13,14
 534 883 534 883 547 909.5 c 128,-1,15
 560 936 560 936 584 936 c 0,16,17
 604 936 604 936 604 913 c 0,18,19
 604 901 604 901 592 877.5 c 128,-1,20
 580 854 580 854 568 836 c 1,21,-1
 555 819 l 1,11,12
477 302 m 0,22,23
 526 302 526 302 541 237 c 0,24,25
 547 213 547 213 547 187 c 0,26,27
 547 126 547 126 516 53 c 0,28,29
 462 -73 462 -73 353 -124 c 0,30,31
 293 -152 293 -152 224 -152 c 0,32,33
 76 -152 76 -152 22 -44 c 0,34,35
 -3 6 -3 6 -3 63 c 128,-1,36
 -3 120 -3 120 18 182 c 0,37,38
 64 318 64 318 182 404 c 0,39,40
 255 456 255 456 343 476 c 1,41,42
 263 505 263 505 263 576 c 128,-1,43
 263 647 263 647 334 710.5 c 128,-1,44
 405 774 405 774 513 774 c 0,45,46
 531 774 531 774 540 760 c 128,-1,47
 549 746 549 746 548 732 c 1,48,-1
 548 719 l 1,49,50
 540 723 540 723 514 723 c 0,51,52
 423 723 423 723 361 659 c 0,53,54
 317 614 317 614 317 570 c 0,55,56
 317 487 317 487 442 487 c 0,57,58
 453 487 453 487 460.5 480.5 c 128,-1,59
 468 474 468 474 473 461 c 1,60,61
 300 461 300 461 183 328 c 0,62,63
 73 204 73 204 73 52 c 0,64,65
 73 -34 73 -34 123 -81 c 0,66,67
 162 -119 162 -119 225 -119 c 0,68,69
 367 -119 367 -119 443 1 c 0,70,71
 493 79 493 79 493 165 c 0,72,73
 493 259 493 259 446 276 c 0,74,75
 438 279 438 279 429 279 c 1,76,77
 442 302 442 302 477 302 c 0,22,23
583 548 m 0,78,79
 583 543 583 543 574 543 c 128,-1,80
 565 543 565 543 556.5 547 c 128,-1,81
 548 551 548 551 548 558 c 0,82,83
 548 660 548 660 571 722.5 c 128,-1,84
 594 785 594 785 632 785 c 0,85,86
 642 785 642 785 649 777.5 c 128,-1,87
 656 770 656 770 656 759 c 1,88,89
 610 713 610 713 591 625 c 0,90,91
 583 588 583 588 583 548 c 0,78,79
EndSplineSet
EndChar

StartChar: Igrave
Encoding: 204 204 140
Width: 587
GlyphClass: 2
Flags: W
LayerCount: 2
Fore
SplineSet
472 943 m 0,0,1
 509 909 509 909 542.5 868.5 c 128,-1,2
 576 828 576 828 576 818 c 128,-1,3
 576 808 576 808 564.5 808 c 128,-1,4
 553 808 553 808 518 833.5 c 128,-1,5
 483 859 483 859 444 897 c 0,6,7
 429 911 429 911 429 921.5 c 128,-1,8
 429 932 429 932 435 942 c 128,-1,9
 441 952 441 952 451 952 c 128,-1,10
 461 952 461 952 472 943 c 0,0,1
589 762 m 0,11,12
 605 762 605 762 608 750 c 2,13,-1
 609 746 l 1,14,15
 580 746 580 746 559.5 709 c 128,-1,16
 539 672 539 672 529 611.5 c 128,-1,17
 519 551 519 551 507 473.5 c 128,-1,18
 495 396 495 396 484.5 315 c 128,-1,19
 474 234 474 234 451 156.5 c 128,-1,20
 428 79 428 79 397.5 18.5 c 128,-1,21
 367 -42 367 -42 313 -79 c 128,-1,22
 259 -116 259 -116 185 -116 c 128,-1,23
 111 -116 111 -116 63.5 -72 c 128,-1,24
 16 -28 16 -28 9 35 c 0,25,26
 7 56 7 56 7 87.5 c 128,-1,27
 7 119 7 119 18.5 171.5 c 128,-1,28
 30 224 30 224 73.5 268 c 128,-1,29
 117 312 117 312 173 312 c 0,30,31
 188 312 188 312 196.5 303 c 128,-1,32
 205 294 205 294 208 276 c 1,33,34
 118 276 118 276 66 187 c 0,35,36
 33 129 33 129 33 71 c 0,37,38
 33 40 33 40 43 8 c 0,39,40
 71 -81 71 -81 174 -81 c 0,41,42
 230 -81 230 -81 272.5 -44.5 c 128,-1,43
 315 -8 315 -8 341 53.5 c 128,-1,44
 367 115 367 115 386 190.5 c 128,-1,45
 405 266 405 266 419 348 c 128,-1,46
 433 430 433 430 446 503 c 0,47,48
 479 677 479 677 527 731 c 1,49,50
 449 704 449 704 385.5 645.5 c 128,-1,51
 322 587 322 587 322 518 c 0,52,53
 322 487 322 487 343 487 c 1,54,55
 341 473 341 473 322.5 473 c 128,-1,56
 304 473 304 473 289.5 488 c 128,-1,57
 275 503 275 503 275 531 c 0,58,59
 275 590 275 590 333.5 645.5 c 128,-1,60
 392 701 392 701 464.5 731.5 c 128,-1,61
 537 762 537 762 589 762 c 0,11,12
EndSplineSet
EndChar

StartChar: Iacute
Encoding: 205 205 141
Width: 587
GlyphClass: 2
Flags: W
LayerCount: 2
Fore
SplineSet
620 896 m 1,0,1
 592 861 592 861 555 827.5 c 128,-1,2
 518 794 518 794 508 794 c 128,-1,3
 498 794 498 794 498 802 c 0,4,5
 498 814 498 814 521 850.5 c 128,-1,6
 544 887 544 887 565.5 911.5 c 128,-1,7
 587 936 587 936 598 936 c 0,8,9
 627 936 627 936 627 916 c 0,10,11
 627 907 627 907 620 896 c 1,0,1
589 762 m 0,12,13
 605 762 605 762 608 750 c 2,14,-1
 609 746 l 1,15,16
 580 746 580 746 559.5 709 c 128,-1,17
 539 672 539 672 529 611.5 c 128,-1,18
 519 551 519 551 507 473.5 c 128,-1,19
 495 396 495 396 484.5 315 c 128,-1,20
 474 234 474 234 451 156.5 c 128,-1,21
 428 79 428 79 397.5 18.5 c 128,-1,22
 367 -42 367 -42 313 -79 c 128,-1,23
 259 -116 259 -116 185 -116 c 128,-1,24
 111 -116 111 -116 63.5 -72 c 128,-1,25
 16 -28 16 -28 9 35 c 0,26,27
 7 56 7 56 7 87.5 c 128,-1,28
 7 119 7 119 18.5 171.5 c 128,-1,29
 30 224 30 224 73.5 268 c 128,-1,30
 117 312 117 312 173 312 c 0,31,32
 188 312 188 312 196.5 303 c 128,-1,33
 205 294 205 294 208 276 c 1,34,35
 118 276 118 276 66 187 c 0,36,37
 33 129 33 129 33 71 c 0,38,39
 33 40 33 40 43 8 c 0,40,41
 71 -81 71 -81 174 -81 c 0,42,43
 230 -81 230 -81 272.5 -44.5 c 128,-1,44
 315 -8 315 -8 341 53.5 c 128,-1,45
 367 115 367 115 386 190.5 c 128,-1,46
 405 266 405 266 419 348 c 128,-1,47
 433 430 433 430 446 503 c 0,48,49
 479 677 479 677 527 731 c 1,50,51
 449 704 449 704 385.5 645.5 c 128,-1,52
 322 587 322 587 322 518 c 0,53,54
 322 487 322 487 343 487 c 1,55,56
 341 473 341 473 322.5 473 c 128,-1,57
 304 473 304 473 289.5 488 c 128,-1,58
 275 503 275 503 275 531 c 0,59,60
 275 590 275 590 333.5 645.5 c 128,-1,61
 392 701 392 701 464.5 731.5 c 128,-1,62
 537 762 537 762 589 762 c 0,12,13
EndSplineSet
EndChar

StartChar: Icircumflex
Encoding: 206 206 142
Width: 587
GlyphClass: 2
Flags: W
LayerCount: 2
Fore
SplineSet
562.5 922 m 128,-1,1
 571 922 571 922 575 914 c 2,2,-1
 635 797 l 1,3,-1
 606 797 l 1,4,-1
 561 873 l 1,5,-1
 431 797 l 1,6,-1
 401 797 l 1,7,8
 498 877 498 877 546 914 c 1,9,0
 554 922 554 922 562.5 922 c 128,-1,1
589 762 m 0,10,11
 605 762 605 762 608 750 c 2,12,-1
 609 746 l 1,13,14
 580 746 580 746 559.5 709 c 128,-1,15
 539 672 539 672 529 611.5 c 128,-1,16
 519 551 519 551 507 473.5 c 128,-1,17
 495 396 495 396 484.5 315 c 128,-1,18
 474 234 474 234 451 156.5 c 128,-1,19
 428 79 428 79 397.5 18.5 c 128,-1,20
 367 -42 367 -42 313 -79 c 128,-1,21
 259 -116 259 -116 185 -116 c 128,-1,22
 111 -116 111 -116 63.5 -72 c 128,-1,23
 16 -28 16 -28 9 35 c 0,24,25
 7 56 7 56 7 87.5 c 128,-1,26
 7 119 7 119 18.5 171.5 c 128,-1,27
 30 224 30 224 73.5 268 c 128,-1,28
 117 312 117 312 173 312 c 0,29,30
 188 312 188 312 196.5 303 c 128,-1,31
 205 294 205 294 208 276 c 1,32,33
 118 276 118 276 66 187 c 0,34,35
 33 129 33 129 33 71 c 0,36,37
 33 40 33 40 43 8 c 0,38,39
 71 -81 71 -81 174 -81 c 0,40,41
 230 -81 230 -81 272.5 -44.5 c 128,-1,42
 315 -8 315 -8 341 53.5 c 128,-1,43
 367 115 367 115 386 190.5 c 128,-1,44
 405 266 405 266 419 348 c 128,-1,45
 433 430 433 430 446 503 c 0,46,47
 479 677 479 677 527 731 c 1,48,49
 449 704 449 704 385.5 645.5 c 128,-1,50
 322 587 322 587 322 518 c 0,51,52
 322 487 322 487 343 487 c 1,53,54
 341 473 341 473 322.5 473 c 128,-1,55
 304 473 304 473 289.5 488 c 128,-1,56
 275 503 275 503 275 531 c 0,57,58
 275 590 275 590 333.5 645.5 c 128,-1,59
 392 701 392 701 464.5 731.5 c 128,-1,60
 537 762 537 762 589 762 c 0,10,11
EndSplineSet
EndChar

StartChar: Idieresis
Encoding: 207 207 143
Width: 587
GlyphClass: 2
Flags: W
LayerCount: 2
Fore
SplineSet
450 814 m 1,0,1
 429 814 429 814 429 854 c 0,2,3
 429 878 429 878 442 905 c 128,-1,4
 455 932 455 932 479 932 c 0,5,6
 499 932 499 932 499 909 c 0,7,8
 499 888 499 888 462 832 c 2,9,-1
 450 814 l 1,0,1
593 814 m 1,10,11
 572 814 572 814 572 854 c 0,12,13
 572 878 572 878 584.5 905 c 128,-1,14
 597 932 597 932 621 932 c 0,15,16
 642 932 642 932 642 909 c 0,17,18
 642 885 642 885 606 832 c 1,19,-1
 593 814 l 1,10,11
589 762 m 0,20,21
 605 762 605 762 608 750 c 2,22,-1
 609 746 l 1,23,24
 580 746 580 746 559.5 709 c 128,-1,25
 539 672 539 672 529 611.5 c 128,-1,26
 519 551 519 551 507 473.5 c 128,-1,27
 495 396 495 396 484.5 315 c 128,-1,28
 474 234 474 234 451 156.5 c 128,-1,29
 428 79 428 79 397.5 18.5 c 128,-1,30
 367 -42 367 -42 313 -79 c 128,-1,31
 259 -116 259 -116 185 -116 c 128,-1,32
 111 -116 111 -116 63.5 -72 c 128,-1,33
 16 -28 16 -28 9 35 c 0,34,35
 7 56 7 56 7 87.5 c 128,-1,36
 7 119 7 119 18.5 171.5 c 128,-1,37
 30 224 30 224 73.5 268 c 128,-1,38
 117 312 117 312 173 312 c 0,39,40
 188 312 188 312 196.5 303 c 128,-1,41
 205 294 205 294 208 276 c 1,42,43
 118 276 118 276 66 187 c 0,44,45
 33 129 33 129 33 71 c 0,46,47
 33 40 33 40 43 8 c 0,48,49
 71 -81 71 -81 174 -81 c 0,50,51
 230 -81 230 -81 272.5 -44.5 c 128,-1,52
 315 -8 315 -8 341 53.5 c 128,-1,53
 367 115 367 115 386 190.5 c 128,-1,54
 405 266 405 266 419 348 c 128,-1,55
 433 430 433 430 446 503 c 0,56,57
 479 677 479 677 527 731 c 1,58,59
 449 704 449 704 385.5 645.5 c 128,-1,60
 322 587 322 587 322 518 c 0,61,62
 322 487 322 487 343 487 c 1,63,64
 341 473 341 473 322.5 473 c 128,-1,65
 304 473 304 473 289.5 488 c 128,-1,66
 275 503 275 503 275 531 c 0,67,68
 275 590 275 590 333.5 645.5 c 128,-1,69
 392 701 392 701 464.5 731.5 c 128,-1,70
 537 762 537 762 589 762 c 0,20,21
EndSplineSet
EndChar

StartChar: Eth
Encoding: 208 208 144
Width: 750
GlyphClass: 2
Flags: W
LayerCount: 2
Fore
SplineSet
44 478 m 0,0,1
 7 478 7 478 7 530 c 128,-1,2
 7 582 7 582 61 646 c 0,3,4
 151 754 151 754 311 771 c 1,5,-1
 366 774 l 1,6,7
 548 774 548 774 630 629 c 1,8,9
 679 540 679 540 679 424 c 0,10,11
 679 376 679 376 671 323 c 0,12,13
 642 145 642 145 533 21 c 0,14,15
 413 -116 413 -116 253.5 -116 c 128,-1,16
 94 -116 94 -116 51 -27 c 0,17,18
 38 1 38 1 38 32.5 c 128,-1,19
 38 64 38 64 55 99 c 0,20,21
 88 163 88 163 145 163 c 0,22,23
 150 163 150 163 151.5 157.5 c 128,-1,24
 153 152 153 152 150.5 146 c 128,-1,25
 148 140 148 140 143 140 c 0,26,27
 109 140 109 140 84 96 c 1,28,29
 68 65 68 65 68 39 c 128,-1,30
 68 13 68 13 78 -9 c 0,31,32
 110 -77 110 -77 231 -77 c 0,33,34
 368 -77 368 -77 479 63 c 0,35,36
 579 189 579 189 608 359 c 0,37,38
 618 414 618 414 618 463 c 0,39,40
 618 572 618 572 569 647 c 0,41,42
 504 748 504 748 365 748 c 0,43,44
 191 748 191 748 104 631 c 0,45,46
 60 571 60 571 60 519 c 0,47,48
 60 498 60 498 69 498 c 1,49,50
 63 478 63 478 44 478 c 0,0,1
409 374 m 0,51,52
 406 374 406 374 279 369 c 1,53,54
 232 137 232 137 232 32 c 0,55,56
 232 19 232 19 218 19 c 0,57,58
 188 19 188 19 188 99 c 0,59,60
 188 234 188 234 209 366 c 1,61,62
 145 364 145 364 129 364 c 0,63,64
 100 364 100 364 96 384 c 1,65,66
 97 399 97 399 108 402 c 1,67,68
 112 396 112 396 129 396 c 2,69,-1
 214 396 l 1,70,71
 239 532 239 532 279.5 618.5 c 128,-1,72
 320 705 320 705 358 705 c 0,73,74
 374 705 374 705 374 689 c 1,75,76
 326 589 326 589 285 397 c 1,77,78
 338 398 338 398 421 398 c 0,79,80
 429 398 429 398 429 390 c 0,81,82
 429 374 429 374 409 374 c 0,51,52
EndSplineSet
EndChar

StartChar: Ntilde
Encoding: 209 209 145
Width: 693
GlyphClass: 2
Flags: W
LayerCount: 2
Fore
SplineSet
398 871 m 0,0,1
 373 871 373 871 350 830 c 1,2,-1
 319 830 l 1,3,4
 327 855 327 855 346 874 c 0,5,6
 381 909 381 909 419 909 c 0,7,8
 437 909 437 909 464.5 885.5 c 128,-1,9
 492 862 492 862 508 862 c 128,-1,10
 524 862 524 862 535.5 870.5 c 128,-1,11
 547 879 547 879 557 897 c 1,12,-1
 587 897 l 1,13,14
 574 868 574 868 546 843.5 c 128,-1,15
 518 819 518 819 494.5 819 c 128,-1,16
 471 819 471 819 441.5 845 c 128,-1,17
 412 871 412 871 398 871 c 0,0,1
528 26 m 0,18,19
 528 -113 528 -113 590 -113 c 0,20,21
 628 -113 628 -113 658 -54 c 0,22,23
 663 -44 663 -44 675 -48 c 0,24,25
 681 -50 681 -50 678 -56.5 c 128,-1,26
 675 -63 675 -63 670 -72.5 c 128,-1,27
 665 -82 665 -82 652.5 -101.5 c 128,-1,28
 640 -121 640 -121 621.5 -133.5 c 128,-1,29
 603 -146 603 -146 583 -146 c 0,30,31
 462 -146 462 -146 462 45 c 0,32,33
 462 242 462 242 591 658 c 1,34,-1
 607 709 l 2,35,36
 609 717 609 717 602.5 717 c 128,-1,37
 596 717 596 717 590 712 c 0,38,39
 534 663 534 663 470.5 567.5 c 128,-1,40
 407 472 407 472 354 366 c 0,41,42
 256 172 256 172 212 63.5 c 128,-1,43
 168 -45 168 -45 139 -45 c 0,44,45
 118 -45 118 -45 118 -23 c 2,46,-1
 118 -21 l 1,47,48
 130 6 130 6 164 128 c 0,49,50
 224 341 224 341 232 508 c 0,51,52
 233 520 233 520 233 530 c 0,53,54
 233 595 233 595 210 643 c 128,-1,55
 187 691 187 691 129 691 c 128,-1,56
 71 691 71 691 46 638 c 0,57,58
 38 621 38 621 38 609 c 128,-1,59
 38 597 38 597 45 597 c 1,60,61
 43 583 43 583 22 583 c 128,-1,62
 1 583 1 583 1 610 c 0,63,64
 1 651 1 651 42.5 683 c 128,-1,65
 84 715 84 715 145 715 c 0,66,67
 290 715 290 715 290 451 c 0,68,69
 290 394 290 394 280 335 c 1,70,-1
 289 335 l 1,71,72
 521 776 521 776 648 776 c 0,73,74
 693 776 693 776 693 726 c 1,75,76
 662 649 662 649 624 516 c 0,77,78
 528 188 528 188 528 26 c 0,18,19
EndSplineSet
EndChar

StartChar: Ograve
Encoding: 210 210 146
Width: 684
GlyphClass: 2
Flags: W
LayerCount: 2
Fore
SplineSet
416 962 m 1,0,1
 453 926 453 926 486.5 885.5 c 128,-1,2
 520 845 520 845 520 836 c 128,-1,3
 520 827 520 827 509 827 c 128,-1,4
 498 827 498 827 462.5 852.5 c 128,-1,5
 427 878 427 878 388 916 c 0,6,7
 373 930 373 930 373 940.5 c 128,-1,8
 373 951 373 951 379 961 c 128,-1,9
 385 971 385 971 395 971 c 128,-1,10
 405 971 405 971 416 962 c 1,0,1
564 468 m 0,11,12
 564 651 564 651 481 651 c 1,13,14
 481 658 481 658 488 664 c 0,15,16
 501 675 501 675 520 675 c 0,17,18
 587 675 587 675 608 571 c 0,19,20
 617 529 617 529 617 482 c 0,21,22
 617 393 617 393 586 284 c 0,23,24
 534 97 534 97 429 5 c 0,25,26
 357 -58 357 -58 274 -58 c 0,27,28
 139 -58 139 -58 91 79 c 0,29,30
 68 143 68 143 68 221 c 128,-1,31
 68 299 68 299 90 390 c 0,32,33
 135 571 135 571 237 680 c 0,34,35
 325 774 325 774 426 774 c 0,36,37
 454 774 454 774 469 761.5 c 128,-1,38
 484 749 484 749 484 736 c 1,39,-1
 485 724 l 1,40,41
 475 728 475 728 448 728 c 0,42,43
 340 728 340 728 256.5 590 c 128,-1,44
 173 452 173 452 154 279 c 0,45,46
 149 235 149 235 149 198 c 0,47,48
 149 84 149 84 194 23 c 1,49,50
 230 -24 230 -24 288 -24 c 0,51,52
 409 -24 409 -24 486.5 141.5 c 128,-1,53
 564 307 564 307 564 468 c 0,11,12
EndSplineSet
EndChar

StartChar: Oacute
Encoding: 211 211 147
Width: 684
GlyphClass: 2
Flags: W
LayerCount: 2
Fore
SplineSet
575 928 m 1,0,1
 545 892 545 892 509 859 c 128,-1,2
 473 826 473 826 463 826 c 128,-1,3
 453 826 453 826 453 836 c 128,-1,4
 453 846 453 846 476 882.5 c 128,-1,5
 499 919 499 919 520.5 943.5 c 128,-1,6
 542 968 542 968 552.5 968 c 128,-1,7
 563 968 563 968 572 963.5 c 128,-1,8
 581 959 581 959 581 949.5 c 128,-1,9
 581 940 581 940 575 928 c 1,0,1
564 468 m 0,10,11
 564 651 564 651 481 651 c 1,12,13
 481 658 481 658 488 664 c 0,14,15
 501 675 501 675 520 675 c 0,16,17
 587 675 587 675 608 571 c 0,18,19
 617 529 617 529 617 482 c 0,20,21
 617 393 617 393 586 284 c 0,22,23
 534 97 534 97 429 5 c 0,24,25
 357 -58 357 -58 274 -58 c 0,26,27
 139 -58 139 -58 91 79 c 0,28,29
 68 143 68 143 68 221 c 128,-1,30
 68 299 68 299 90 390 c 0,31,32
 135 571 135 571 237 680 c 0,33,34
 325 774 325 774 426 774 c 0,35,36
 454 774 454 774 469 761.5 c 128,-1,37
 484 749 484 749 484 736 c 1,38,-1
 485 724 l 1,39,40
 475 728 475 728 448 728 c 0,41,42
 340 728 340 728 256.5 590 c 128,-1,43
 173 452 173 452 154 279 c 0,44,45
 149 235 149 235 149 198 c 0,46,47
 149 84 149 84 194 23 c 1,48,49
 230 -24 230 -24 288 -24 c 0,50,51
 409 -24 409 -24 486.5 141.5 c 128,-1,52
 564 307 564 307 564 468 c 0,10,11
EndSplineSet
EndChar

StartChar: Ocircumflex
Encoding: 212 212 148
Width: 684
GlyphClass: 2
Flags: W
LayerCount: 2
Fore
SplineSet
519.5 944 m 128,-1,1
 528 944 528 944 531 937 c 2,2,-1
 591 820 l 1,3,-1
 562 820 l 1,4,-1
 517 896 l 1,5,-1
 387 820 l 1,6,-1
 358 820 l 1,7,8
 454 900 454 900 502 937 c 0,9,0
 511 944 511 944 519.5 944 c 128,-1,1
564 468 m 0,10,11
 564 651 564 651 481 651 c 1,12,13
 481 658 481 658 488 664 c 0,14,15
 501 675 501 675 520 675 c 0,16,17
 587 675 587 675 608 571 c 0,18,19
 617 529 617 529 617 482 c 0,20,21
 617 393 617 393 586 284 c 0,22,23
 534 97 534 97 429 5 c 0,24,25
 357 -58 357 -58 274 -58 c 0,26,27
 139 -58 139 -58 91 79 c 0,28,29
 68 143 68 143 68 221 c 128,-1,30
 68 299 68 299 90 390 c 0,31,32
 135 571 135 571 237 680 c 0,33,34
 325 774 325 774 426 774 c 0,35,36
 454 774 454 774 469 761.5 c 128,-1,37
 484 749 484 749 484 736 c 1,38,-1
 485 724 l 1,39,40
 475 728 475 728 448 728 c 0,41,42
 340 728 340 728 256.5 590 c 128,-1,43
 173 452 173 452 154 279 c 0,44,45
 149 235 149 235 149 198 c 0,46,47
 149 84 149 84 194 23 c 1,48,49
 230 -24 230 -24 288 -24 c 0,50,51
 409 -24 409 -24 486.5 141.5 c 128,-1,52
 564 307 564 307 564 468 c 0,10,11
EndSplineSet
EndChar

StartChar: Otilde
Encoding: 213 213 149
Width: 684
GlyphClass: 2
Flags: W
LayerCount: 2
Fore
SplineSet
496 895.5 m 128,-1,1
 524 872 524 872 546 872 c 128,-1,2
 568 872 568 872 588 908 c 1,3,-1
 619 908 l 1,4,5
 617 905 617 905 614.5 899.5 c 128,-1,6
 612 894 612 894 602 880.5 c 128,-1,7
 592 867 592 867 582 856 c 0,8,9
 554 829 554 829 528 829 c 128,-1,10
 502 829 502 829 472.5 855.5 c 128,-1,11
 443 882 443 882 430 882 c 128,-1,12
 417 882 417 882 405 872 c 128,-1,13
 393 862 393 862 381 841 c 1,14,-1
 350 841 l 1,15,16
 366 888 366 888 412 910 c 0,17,18
 430 919 430 919 449 919 c 128,-1,0
 468 919 468 919 496 895.5 c 128,-1,1
564 468 m 0,19,20
 564 651 564 651 481 651 c 1,21,22
 481 658 481 658 488 664 c 0,23,24
 501 675 501 675 520 675 c 0,25,26
 587 675 587 675 608 571 c 0,27,28
 617 529 617 529 617 482 c 0,29,30
 617 393 617 393 586 284 c 0,31,32
 534 97 534 97 429 5 c 0,33,34
 357 -58 357 -58 274 -58 c 0,35,36
 139 -58 139 -58 91 79 c 0,37,38
 68 143 68 143 68 221 c 128,-1,39
 68 299 68 299 90 390 c 0,40,41
 135 571 135 571 237 680 c 0,42,43
 325 774 325 774 426 774 c 0,44,45
 454 774 454 774 469 761.5 c 128,-1,46
 484 749 484 749 484 736 c 1,47,-1
 485 724 l 1,48,49
 475 728 475 728 448 728 c 0,50,51
 340 728 340 728 256.5 590 c 128,-1,52
 173 452 173 452 154 279 c 0,53,54
 149 235 149 235 149 198 c 0,55,56
 149 84 149 84 194 23 c 1,57,58
 230 -24 230 -24 288 -24 c 0,59,60
 409 -24 409 -24 486.5 141.5 c 128,-1,61
 564 307 564 307 564 468 c 0,19,20
EndSplineSet
EndChar

StartChar: Odieresis
Encoding: 214 214 150
Width: 684
GlyphClass: 2
Flags: W
LayerCount: 2
Fore
SplineSet
424 816 m 1,0,1
 403 816 403 816 403 856 c 0,2,3
 403 880 403 880 415.5 907 c 128,-1,4
 428 934 428 934 452 934 c 0,5,6
 473 934 473 934 473 910 c 0,7,8
 473 890 473 890 436 834 c 2,9,-1
 424 816 l 1,0,1
566 816 m 1,10,11
 545 816 545 816 545 856 c 0,12,13
 545 880 545 880 558 907 c 128,-1,14
 571 934 571 934 595 934 c 0,15,16
 615 934 615 934 615 910 c 0,17,18
 615 890 615 890 578 834 c 2,19,-1
 566 816 l 1,10,11
564 468 m 0,20,21
 564 651 564 651 481 651 c 1,22,23
 481 658 481 658 488 664 c 0,24,25
 501 675 501 675 520 675 c 0,26,27
 587 675 587 675 608 571 c 0,28,29
 617 529 617 529 617 482 c 0,30,31
 617 393 617 393 586 284 c 0,32,33
 534 97 534 97 429 5 c 0,34,35
 357 -58 357 -58 274 -58 c 0,36,37
 139 -58 139 -58 91 79 c 0,38,39
 68 143 68 143 68 221 c 128,-1,40
 68 299 68 299 90 390 c 0,41,42
 135 571 135 571 237 680 c 0,43,44
 325 774 325 774 426 774 c 0,45,46
 454 774 454 774 469 761.5 c 128,-1,47
 484 749 484 749 484 736 c 1,48,-1
 485 724 l 1,49,50
 475 728 475 728 448 728 c 0,51,52
 340 728 340 728 256.5 590 c 128,-1,53
 173 452 173 452 154 279 c 0,54,55
 149 235 149 235 149 198 c 0,56,57
 149 84 149 84 194 23 c 1,58,59
 230 -24 230 -24 288 -24 c 0,60,61
 409 -24 409 -24 486.5 141.5 c 128,-1,62
 564 307 564 307 564 468 c 0,20,21
EndSplineSet
EndChar

StartChar: multiply
Encoding: 215 215 151
Width: 587
GlyphClass: 2
Flags: W
LayerCount: 2
Fore
SplineSet
65 6 m 0,0,1
 59 0 59 0 54 0 c 128,-1,2
 49 0 49 0 49 12 c 128,-1,3
 49 24 49 24 66.5 44.5 c 128,-1,4
 84 65 84 65 240 252 c 1,5,6
 224 279 224 279 197 325 c 128,-1,7
 170 371 170 371 150 405 c 128,-1,8
 130 439 130 439 119 458 c 0,9,10
 105 480 105 480 124 480 c 0,11,12
 145 480 145 480 169 443 c 1,13,14
 176 430 176 430 260 275 c 1,15,16
 347 382 347 382 432 480 c 0,17,18
 438 486 438 486 442.5 486 c 128,-1,19
 447 486 447 486 450 480.5 c 128,-1,20
 453 475 453 475 453 469 c 0,21,22
 453 451 453 451 423 414.5 c 128,-1,23
 393 378 393 378 275 247 c 1,24,25
 333 136 333 136 378 58 c 0,26,27
 387 44 387 44 376 44 c 0,28,29
 361 44 361 44 341 78 c 1,30,31
 301 152 301 152 255 224 c 1,32,33
 105 55 105 55 65 6 c 0,0,1
EndSplineSet
EndChar

StartChar: Oslash
Encoding: 216 216 152
Width: 684
GlyphClass: 2
Flags: W
LayerCount: 2
Fore
SplineSet
525 674 m 1,0,1
 619 668 619 668 619 481 c 0,2,3
 619 318 619 318 533 144 c 128,-1,4
 447 -30 447 -30 311 -54 c 1,5,6
 300 -90 300 -90 286 -137 c 128,-1,7
 272 -184 272 -184 269.5 -191 c 128,-1,8
 267 -198 267 -198 262 -198 c 0,9,10
 259 -198 259 -198 252 -194.5 c 128,-1,11
 245 -191 245 -191 245 -180 c 128,-1,12
 245 -169 245 -169 248 -160 c 0,13,14
 269 -89 269 -89 278 -58 c 1,15,-1
 274 -58 l 2,16,17
 139 -58 139 -58 91 79 c 0,18,19
 68 143 68 143 68 221 c 128,-1,20
 68 299 68 299 90 390 c 0,21,22
 135 571 135 571 237 680 c 0,23,24
 325 774 325 774 426 774 c 0,25,26
 454 774 454 774 469 761.5 c 128,-1,27
 484 749 484 749 484 736 c 1,28,-1
 485 724 l 1,29,30
 475 728 475 728 448 728 c 0,31,32
 340 728 340 728 256.5 589.5 c 128,-1,33
 173 451 173 451 153 278 c 0,34,35
 148 235 148 235 148 198 c 0,36,37
 148 84 148 84 194 23 c 0,38,39
 229 -23 229 -23 287 -24 c 1,40,41
 522 807 522 807 539 875 c 0,42,43
 542 885 542 885 550 885 c 0,44,45
 553 885 553 885 557 883 c 0,46,47
 574 877 574 877 574 856 c 0,48,49
 574 842 574 842 554 774 c 128,-1,50
 534 706 534 706 525 674 c 1,0,1
514 208 m 128,-1,52
 542 294 542 294 552 362 c 128,-1,53
 562 430 562 430 562 470 c 0,54,55
 562 601 562 601 514 639 c 1,56,57
 417 303 417 303 320 -20 c 1,58,59
 382 -6 382 -6 434 58 c 128,-1,51
 486 122 486 122 514 208 c 128,-1,52
EndSplineSet
EndChar

